<svg width="1728" height="4538" viewBox="0 0 1728 4538" fill="none" xmlns="http://www.w3.org/2000/svg">
<g clip-path="url(#clip0_968_3397)">
<g filter="url(#filter0_f_968_3397)">
<path fill-rule="evenodd" clip-rule="evenodd" d="M598.145 818.597C651.031 811.291 701.673 783.474 753.483 796.361C814.535 811.547 892.497 835.349 909.267 895.985C926.737 959.15 827.548 1005.83 829.535 1071.34C832.26 1161.17 978.433 1248.74 922.091 1318.77C866.86 1387.41 755.113 1267.75 667.17 1273.14C608.075 1276.76 560.903 1371.24 508.282 1344.11C451.129 1314.64 489.724 1216.47 453.816 1163.13C424.892 1120.16 358.715 1118.84 328.376 1076.85C285.635 1017.71 211.22 941.21 247.819 878.081C286.101 812.049 392.889 848.556 468.14 835.778C512.126 828.31 553.949 824.702 598.145 818.597Z" fill="url(#paint0_linear_968_3397)"/>
</g>
<g filter="url(#filter1_f_968_3397)">
<path fill-rule="evenodd" clip-rule="evenodd" d="M1410.08 652.403C1475.29 656.653 1551 562.068 1597.05 608.461C1648.5 660.302 1574.14 749.553 1578.89 822.472C1581.42 861.175 1604.26 893.277 1617.99 929.547C1647.13 1006.52 1734.73 1078.6 1704.89 1155.3C1678.84 1222.25 1572.22 1197.58 1504.46 1221.33C1431.96 1246.74 1367.96 1315.18 1292.69 1299.76C1217.23 1284.31 1163.92 1212.45 1128.05 1144.22C1096.07 1083.4 1078.08 1006.56 1105.35 943.48C1131.4 883.247 1245.14 895.536 1262.91 832.361C1286.47 748.66 1151.76 650.313 1206.79 583.022C1253.07 526.424 1337.16 647.649 1410.08 652.403Z" fill="url(#paint1_linear_968_3397)"/>
</g>
<g filter="url(#filter2_f_968_3397)">
<path fill-rule="evenodd" clip-rule="evenodd" d="M1719.08 691.403C1784.29 695.653 1860 601.068 1906.05 647.461C1957.5 699.302 1883.14 788.553 1887.89 861.472C1890.42 900.175 1913.26 932.277 1926.99 968.547C1956.13 1045.52 2043.73 1117.6 2013.89 1194.3C1987.84 1261.25 1881.22 1236.58 1813.46 1260.33C1740.96 1285.74 1676.96 1354.18 1601.69 1338.76C1526.23 1323.31 1472.92 1251.45 1437.05 1183.22C1405.07 1122.4 1387.08 1045.56 1414.35 982.48C1440.4 922.247 1554.14 934.536 1571.91 871.361C1595.47 787.66 1460.76 689.313 1515.79 622.022C1562.07 565.424 1646.16 686.649 1719.08 691.403Z" fill="url(#paint2_linear_968_3397)"/>
</g>
<g filter="url(#filter3_f_968_3397)">
<path fill-rule="evenodd" clip-rule="evenodd" d="M1537.08 740.403C1602.29 744.653 1678 650.068 1724.05 696.461C1775.5 748.302 1701.14 837.553 1705.89 910.472C1708.42 949.175 1731.26 981.277 1744.99 1017.55C1774.13 1094.52 1861.73 1166.6 1831.89 1243.3C1805.84 1310.25 1699.22 1285.58 1631.46 1309.33C1558.96 1334.74 1494.96 1403.18 1419.69 1387.76C1344.23 1372.31 1290.92 1300.45 1255.05 1232.22C1223.07 1171.4 1205.08 1094.56 1232.35 1031.48C1258.4 971.247 1372.14 983.536 1389.91 920.361C1413.47 836.66 1278.76 738.313 1333.79 671.022C1380.07 614.424 1464.16 735.649 1537.08 740.403Z" fill="url(#paint3_linear_968_3397)"/>
</g>
<g filter="url(#filter4_f_968_3397)">
<path fill-rule="evenodd" clip-rule="evenodd" d="M11.0304 421.661C105.295 480.624 11.4063 665.759 102.844 728.769C187.192 786.894 316.937 639.829 404.719 692.955C474.231 735.025 476.244 861.344 427.824 925.451C373.859 996.899 250.538 958.007 171.288 1002.01C128.62 1025.7 120.221 1080.9 86.0742 1115.21C21.4394 1180.14 -40.8595 1343.3 -117.618 1292.27C-208.59 1231.79 -108.016 1084.15 -120.499 977.868C-124.315 945.38 -155.435 923.281 -164.651 891.829C-175.067 856.278 -172.626 820.574 -177.334 783.899C-188.316 698.355 -250.788 609.577 -210.764 532.608C-172.531 459.083 -60.3229 377.03 11.0304 421.661Z" fill="url(#paint4_linear_968_3397)"/>
</g>
<g filter="url(#filter5_f_968_3397)">
<path fill-rule="evenodd" clip-rule="evenodd" d="M237.005 542.156C317.843 530.851 397.911 604.457 435.542 676.945C470.707 744.684 395.337 829.95 423.281 900.979C448.63 965.412 555.961 968.788 576.387 1034.95C597.336 1102.81 590.375 1205.32 527.279 1237.83C454.62 1275.27 374.88 1192.3 294.02 1180.44C254.966 1174.72 217.058 1179.88 178.17 1186.64C97.0251 1200.76 4.76555 1295.43 -57.6002 1241.59C-115.303 1191.78 0.711459 1097.12 -12.5346 1022.02C-26.5593 942.505 -154.546 894.919 -132.441 817.263C-111.716 744.453 10.4964 773.09 71.1871 727.897C139.12 677.31 153.144 553.883 237.005 542.156Z" fill="url(#paint5_linear_968_3397)" fill-opacity="0.9"/>
</g>
<g filter="url(#filter6_f_968_3397)">
<path fill-rule="evenodd" clip-rule="evenodd" d="M790.005 633.156C870.843 621.851 950.911 695.457 988.542 767.945C1023.71 835.685 948.337 920.95 976.281 991.979C1001.63 1056.41 1108.96 1059.79 1129.39 1125.95C1150.34 1193.81 1143.37 1296.32 1080.28 1328.83C1007.62 1366.27 927.88 1283.3 847.02 1271.44C807.966 1265.72 770.059 1270.88 731.17 1277.64C650.025 1291.76 557.766 1386.43 495.4 1332.59C437.697 1282.78 553.711 1188.12 540.465 1113.02C526.441 1033.51 398.454 985.919 420.559 908.263C441.284 835.453 563.496 864.09 624.187 818.897C692.12 768.31 706.144 644.883 790.005 633.156Z" fill="url(#paint6_linear_968_3397)" fill-opacity="0.9"/>
</g>
<g filter="url(#filter7_f_968_3397)">
<path fill-rule="evenodd" clip-rule="evenodd" d="M1056.82 574.909C1119.57 594.604 1095.97 706.907 1150.14 744.183C1201.29 779.373 1293.38 714.966 1331.55 763.927C1365.93 808.037 1297.65 867.51 1289.42 922.831C1281.25 977.745 1327.22 1051.53 1283.62 1085.91C1236.53 1123.05 1163.76 1042.11 1108.53 1065.49C1040.33 1094.37 1031.55 1209.91 958.731 1223.46C891.753 1235.93 826.55 1179.01 783.845 1125.93C741.763 1073.62 702.709 998.853 728.004 936.666C755.383 869.356 865.746 880.603 907.75 821.308C937.399 779.454 889.793 714.68 916.344 670.795C946.298 621.284 1001.61 557.578 1056.82 574.909Z" fill="url(#paint7_linear_968_3397)"/>
</g>
<g filter="url(#filter8_f_968_3397)">
<path fill-rule="evenodd" clip-rule="evenodd" d="M1556 625.156C1636.84 613.851 1716.91 687.457 1754.54 759.945C1789.71 827.685 1714.34 912.95 1742.28 983.979C1767.63 1048.41 1874.96 1051.79 1895.39 1117.95C1916.34 1185.81 1909.37 1288.32 1846.28 1320.83C1773.62 1358.27 1693.88 1275.3 1613.02 1263.44C1573.97 1257.72 1536.06 1262.88 1497.17 1269.64C1416.03 1283.76 1323.77 1378.43 1261.4 1324.59C1203.7 1274.78 1319.71 1180.12 1306.47 1105.02C1292.44 1025.51 1164.45 977.919 1186.56 900.263C1207.28 827.453 1329.5 856.09 1390.19 810.897C1458.12 760.31 1472.14 636.883 1556 625.156Z" fill="url(#paint8_linear_968_3397)" fill-opacity="0.9"/>
</g>
</g>
<g clip-path="url(#clip1_968_3397)">
<g filter="url(#filter9_f_968_3397)">
<path fill-rule="evenodd" clip-rule="evenodd" d="M1197.1 2152.56C1280.48 2159.95 1309.98 2262.92 1370.82 2320.43C1435.21 2381.29 1545.66 2406.47 1558.45 2494.15C1571.76 2585.37 1505.77 2674.47 1430.15 2727.21C1363.7 2773.56 1275.55 2766.46 1197.1 2746.19C1137.06 2730.68 1101.25 2677.57 1059.73 2631.51C1021.65 2589.27 981.238 2549.88 969.9 2494.15C955.501 2423.36 949.569 2346.77 989.572 2286.63C1036.98 2215.34 1111.82 2145 1197.1 2152.56Z" fill="url(#paint9_linear_968_3397)"/>
</g>
<g filter="url(#filter10_f_968_3397)">
<path fill-rule="evenodd" clip-rule="evenodd" d="M1396.1 2091.56C1479.48 2098.95 1508.98 2201.92 1569.82 2259.43C1634.21 2320.29 1744.66 2345.47 1757.45 2433.15C1770.76 2524.37 1704.77 2613.47 1629.15 2666.21C1562.7 2712.56 1474.55 2705.46 1396.1 2685.19C1336.06 2669.68 1300.25 2616.57 1258.73 2570.51C1220.65 2528.27 1180.24 2488.88 1168.9 2433.15C1154.5 2362.36 1148.57 2285.77 1188.57 2225.63C1235.98 2154.34 1310.82 2084 1396.1 2091.56Z" fill="url(#paint10_linear_968_3397)"/>
</g>
<g filter="url(#filter11_f_968_3397)">
<path fill-rule="evenodd" clip-rule="evenodd" d="M603.935 2534.14C774.822 2539.77 836.391 2739.08 885.132 2902.8C928.564 3048.68 958.563 3222.74 835.765 3312.83C711.767 3403.79 547.824 3332.66 424.62 3240.62C308.029 3153.53 223.518 3023.18 259.299 2882.2C303.687 2707.32 423.43 2528.2 603.935 2534.14Z" fill="url(#paint11_linear_968_3397)"/>
</g>
<g filter="url(#filter12_f_968_3397)">
<path fill-rule="evenodd" clip-rule="evenodd" d="M429.145 2231.6C482.031 2224.29 532.673 2196.47 584.483 2209.36C645.535 2224.55 723.497 2248.35 740.267 2308.98C757.737 2372.15 658.548 2418.83 660.535 2484.34C663.26 2574.17 809.433 2661.74 753.091 2731.77C697.86 2800.41 586.113 2680.75 498.17 2686.14C439.075 2689.76 391.903 2784.24 339.282 2757.11C282.129 2727.64 320.724 2629.47 284.816 2576.13C255.892 2533.16 189.715 2531.84 159.376 2489.85C116.635 2430.71 42.2202 2354.21 78.8189 2291.08C117.101 2225.05 223.889 2261.56 299.14 2248.78C343.126 2241.31 384.949 2237.7 429.145 2231.6Z" fill="url(#paint12_linear_968_3397)"/>
</g>
<g filter="url(#filter13_f_968_3397)">
<path fill-rule="evenodd" clip-rule="evenodd" d="M1375.08 2610.4C1440.29 2614.65 1516 2520.07 1562.05 2566.46C1613.5 2618.3 1539.14 2707.55 1543.89 2780.47C1546.42 2819.18 1569.26 2851.28 1582.99 2887.55C1612.13 2964.52 1699.73 3036.6 1669.89 3113.3C1643.84 3180.25 1537.22 3155.58 1469.46 3179.33C1396.96 3204.74 1332.96 3273.18 1257.69 3257.76C1182.23 3242.31 1128.92 3170.45 1093.05 3102.22C1061.07 3041.4 1043.08 2964.56 1070.35 2901.48C1096.4 2841.25 1210.14 2853.54 1227.91 2790.36C1251.47 2706.66 1116.76 2608.31 1171.79 2541.02C1218.07 2484.42 1302.16 2605.65 1375.08 2610.4Z" fill="url(#paint13_linear_968_3397)"/>
</g>
<g filter="url(#filter14_f_968_3397)">
<path fill-rule="evenodd" clip-rule="evenodd" d="M1524.08 2610.4C1589.29 2614.65 1665 2520.07 1711.05 2566.46C1762.5 2618.3 1688.14 2707.55 1692.89 2780.47C1695.42 2819.18 1718.26 2851.28 1731.99 2887.55C1761.13 2964.52 1848.73 3036.6 1818.89 3113.3C1792.84 3180.25 1686.22 3155.58 1618.46 3179.33C1545.96 3204.74 1481.96 3273.18 1406.69 3257.76C1331.23 3242.31 1277.92 3170.45 1242.05 3102.22C1210.07 3041.4 1192.08 2964.56 1219.35 2901.48C1245.4 2841.25 1359.14 2853.54 1376.91 2790.36C1400.47 2706.66 1265.76 2608.31 1320.79 2541.02C1367.07 2484.42 1451.16 2605.65 1524.08 2610.4Z" fill="url(#paint14_linear_968_3397)"/>
</g>
<g filter="url(#filter15_f_968_3397)">
<path fill-rule="evenodd" clip-rule="evenodd" d="M1502.08 2828.4C1567.29 2832.65 1643 2738.07 1689.05 2784.46C1740.5 2836.3 1666.14 2925.55 1670.89 2998.47C1673.42 3037.18 1696.26 3069.28 1709.99 3105.55C1739.13 3182.52 1826.73 3254.6 1796.89 3331.3C1770.84 3398.25 1664.22 3373.58 1596.46 3397.33C1523.96 3422.74 1459.96 3491.18 1384.69 3475.76C1309.23 3460.31 1255.92 3388.45 1220.05 3320.22C1188.07 3259.4 1170.08 3182.56 1197.35 3119.48C1223.4 3059.25 1337.14 3071.54 1354.91 3008.36C1378.47 2924.66 1243.76 2826.31 1298.79 2759.02C1345.07 2702.42 1429.16 2823.65 1502.08 2828.4Z" fill="url(#paint15_linear_968_3397)"/>
</g>
<g filter="url(#filter16_f_968_3397)">
<path fill-rule="evenodd" clip-rule="evenodd" d="M882.33 2109.4C946.896 2093.72 1008.21 2158.09 1049.72 2209.95C1085.78 2255.02 1083.34 2316.99 1093.87 2373.73C1101.85 2416.82 1101.35 2458.39 1103.9 2502.13C1107.19 2558.65 1124.28 2613.33 1111.04 2668.37C1090.93 2751.95 1078.71 2849.83 1008.34 2899.24C936.022 2950.03 829.543 2959.81 749.579 2922.18C670.604 2885.02 655.748 2781.35 605.78 2709.81C562.265 2647.51 482.353 2604.46 474.842 2528.85C467.361 2453.53 510.641 2376.42 567.722 2326.68C618.489 2282.45 704.742 2318.53 760.149 2280.26C818.963 2239.64 812.862 2126.27 882.33 2109.4Z" fill="url(#paint16_linear_968_3397)" fill-opacity="0.9"/>
</g>
<g filter="url(#filter17_f_968_3397)">
<path fill-rule="evenodd" clip-rule="evenodd" d="M92.8251 2179.66C184.2 2238.62 93.1895 2423.76 181.824 2486.77C263.586 2544.89 389.354 2397.83 474.444 2450.96C541.825 2493.02 543.776 2619.34 496.841 2683.45C444.53 2754.9 324.99 2716.01 248.169 2760.01C206.809 2783.7 198.669 2838.9 165.568 2873.21C102.915 2938.14 42.5259 3101.3 -31.8797 3050.27C-120.063 2989.79 -22.5717 2842.15 -34.6721 2735.87C-38.3709 2703.38 -68.5368 2681.28 -77.4702 2649.83C-87.5676 2614.28 -85.2014 2578.57 -89.7651 2541.9C-100.41 2456.36 -160.967 2367.58 -122.17 2290.61C-85.1085 2217.08 23.6593 2135.03 92.8251 2179.66Z" fill="url(#paint17_linear_968_3397)"/>
</g>
<g filter="url(#filter18_f_968_3397)">
<path fill-rule="evenodd" clip-rule="evenodd" d="M237.005 2811.16C317.843 2799.85 397.911 2873.46 435.542 2945.94C470.707 3013.68 395.337 3098.95 423.281 3169.98C448.63 3234.41 555.961 3237.79 576.387 3303.95C597.336 3371.81 590.375 3474.32 527.279 3506.83C454.62 3544.27 374.88 3461.3 294.02 3449.44C254.966 3443.72 217.058 3448.88 178.17 3455.64C97.0251 3469.76 4.76555 3564.43 -57.6002 3510.59C-115.303 3460.78 0.711459 3366.12 -12.5346 3291.02C-26.5593 3211.5 -154.546 3163.92 -132.441 3086.26C-111.716 3013.45 10.4964 3042.09 71.1871 2996.9C139.12 2946.31 153.144 2822.88 237.005 2811.16Z" fill="url(#paint18_linear_968_3397)" fill-opacity="0.9"/>
</g>
<g filter="url(#filter19_f_968_3397)">
<path fill-rule="evenodd" clip-rule="evenodd" d="M790.005 2902.16C870.843 2890.85 950.911 2964.46 988.542 3036.94C1023.71 3104.68 948.337 3189.95 976.281 3260.98C1001.63 3325.41 1108.96 3328.79 1129.39 3394.95C1150.34 3462.81 1143.37 3565.32 1080.28 3597.83C1007.62 3635.27 927.88 3552.3 847.02 3540.44C807.966 3534.72 770.059 3539.88 731.17 3546.64C650.025 3560.76 557.766 3655.43 495.4 3601.59C437.697 3551.78 553.711 3457.12 540.465 3382.02C526.441 3302.51 398.454 3254.92 420.559 3177.26C441.284 3104.45 563.496 3133.09 624.187 3087.9C692.12 3037.31 706.144 2913.88 790.005 2902.16Z" fill="url(#paint19_linear_968_3397)" fill-opacity="0.9"/>
</g>
<g filter="url(#filter20_f_968_3397)">
<path fill-rule="evenodd" clip-rule="evenodd" d="M1056.82 2843.91C1119.57 2863.6 1095.97 2975.91 1150.14 3013.18C1201.29 3048.37 1293.38 2983.97 1331.55 3032.93C1365.93 3077.04 1297.65 3136.51 1289.42 3191.83C1281.25 3246.74 1327.22 3320.53 1283.62 3354.91C1236.53 3392.05 1163.76 3311.11 1108.53 3334.49C1040.33 3363.37 1031.55 3478.91 958.731 3492.46C891.753 3504.93 826.55 3448.01 783.845 3394.93C741.763 3342.62 702.709 3267.85 728.004 3205.67C755.383 3138.36 865.746 3149.6 907.75 3090.31C937.399 3048.45 889.793 2983.68 916.344 2939.8C946.298 2890.28 1001.61 2826.58 1056.82 2843.91Z" fill="url(#paint20_linear_968_3397)"/>
</g>
<g filter="url(#filter21_f_968_3397)">
<path fill-rule="evenodd" clip-rule="evenodd" d="M1082.82 2600.91C1145.57 2620.6 1121.97 2732.91 1176.14 2770.18C1227.29 2805.37 1319.38 2740.97 1357.55 2789.93C1391.93 2834.04 1323.65 2893.51 1315.42 2948.83C1307.25 3003.74 1353.22 3077.53 1309.62 3111.91C1262.53 3149.05 1189.76 3068.11 1134.53 3091.49C1066.33 3120.37 1057.55 3235.91 984.731 3249.46C917.753 3261.93 852.55 3205.01 809.845 3151.93C767.763 3099.62 728.709 3024.85 754.004 2962.67C781.383 2895.36 891.746 2906.6 933.75 2847.31C963.399 2805.45 915.793 2740.68 942.344 2696.8C972.298 2647.28 1027.61 2583.58 1082.82 2600.91Z" fill="url(#paint21_linear_968_3397)"/>
</g>
<g filter="url(#filter22_f_968_3397)">
<path fill-rule="evenodd" clip-rule="evenodd" d="M1556 2894.16C1636.84 2882.85 1716.91 2956.46 1754.54 3028.94C1789.71 3096.68 1714.34 3181.95 1742.28 3252.98C1767.63 3317.41 1874.96 3320.79 1895.39 3386.95C1916.34 3454.81 1909.37 3557.32 1846.28 3589.83C1773.62 3627.27 1693.88 3544.3 1613.02 3532.44C1573.97 3526.72 1536.06 3531.88 1497.17 3538.64C1416.03 3552.76 1323.77 3647.43 1261.4 3593.59C1203.7 3543.78 1319.71 3449.12 1306.47 3374.02C1292.44 3294.51 1164.45 3246.92 1186.56 3169.26C1207.28 3096.45 1329.5 3125.09 1390.19 3079.9C1458.12 3029.31 1472.14 2905.88 1556 2894.16Z" fill="url(#paint22_linear_968_3397)" fill-opacity="0.9"/>
</g>
<g filter="url(#filter23_f_968_3397)">
<path fill-rule="evenodd" clip-rule="evenodd" d="M187.825 2284.66C279.2 2343.62 188.19 2528.76 276.824 2591.77C358.586 2649.89 484.354 2502.83 569.444 2555.96C636.825 2598.02 638.776 2724.34 591.841 2788.45C539.53 2859.9 419.99 2821.01 343.169 2865.01C301.809 2888.7 293.669 2943.9 260.568 2978.21C197.915 3043.14 137.526 3206.3 63.1203 3155.27C-25.0626 3094.79 72.4283 2947.15 60.3279 2840.87C56.6291 2808.38 26.4632 2786.28 17.5298 2754.83C7.43243 2719.28 9.7986 2683.57 5.23492 2646.9C-5.40971 2561.36 -65.9672 2472.58 -27.17 2395.61C9.89152 2322.08 118.659 2240.03 187.825 2284.66Z" fill="url(#paint23_linear_968_3397)"/>
</g>
</g>
<g clip-path="url(#clip2_968_3397)">
<g filter="url(#filter24_f_968_3397)">
<path fill-rule="evenodd" clip-rule="evenodd" d="M1197.1 3285.56C1280.48 3292.95 1309.98 3395.92 1370.82 3453.43C1435.21 3514.29 1545.66 3539.47 1558.45 3627.15C1571.76 3718.37 1505.77 3807.47 1430.15 3860.21C1363.7 3906.56 1275.55 3899.46 1197.1 3879.19C1137.06 3863.68 1101.25 3810.57 1059.73 3764.51C1021.65 3722.27 981.238 3682.88 969.9 3627.15C955.501 3556.36 949.569 3479.77 989.572 3419.63C1036.98 3348.34 1111.82 3278 1197.1 3285.56Z" fill="url(#paint24_linear_968_3397)"/>
</g>
<g filter="url(#filter25_f_968_3397)">
<path fill-rule="evenodd" clip-rule="evenodd" d="M1396.1 3224.56C1479.48 3231.95 1508.98 3334.92 1569.82 3392.43C1634.21 3453.29 1744.66 3478.47 1757.45 3566.15C1770.76 3657.37 1704.77 3746.47 1629.15 3799.21C1562.7 3845.56 1474.55 3838.46 1396.1 3818.19C1336.06 3802.68 1300.25 3749.57 1258.73 3703.51C1220.65 3661.27 1180.24 3621.88 1168.9 3566.15C1154.5 3495.36 1148.57 3418.77 1188.57 3358.63C1235.98 3287.34 1310.82 3217 1396.1 3224.56Z" fill="url(#paint25_linear_968_3397)"/>
</g>
<g filter="url(#filter26_f_968_3397)">
<path fill-rule="evenodd" clip-rule="evenodd" d="M603.935 3667.14C774.822 3672.77 836.391 3872.08 885.132 4035.8C928.564 4181.68 958.563 4355.74 835.765 4445.83C711.767 4536.79 547.824 4465.66 424.62 4373.62C308.029 4286.53 223.518 4156.18 259.299 4015.2C303.687 3840.32 423.43 3661.2 603.935 3667.14Z" fill="url(#paint26_linear_968_3397)"/>
</g>
<g filter="url(#filter27_f_968_3397)">
<path fill-rule="evenodd" clip-rule="evenodd" d="M429.145 3364.6C482.031 3357.29 532.673 3329.47 584.483 3342.36C645.535 3357.55 723.497 3381.35 740.267 3441.98C757.737 3505.15 658.548 3551.83 660.535 3617.34C663.26 3707.17 809.433 3794.74 753.091 3864.77C697.86 3933.41 586.113 3813.75 498.17 3819.14C439.075 3822.76 391.903 3917.24 339.282 3890.11C282.129 3860.64 320.724 3762.47 284.816 3709.13C255.892 3666.16 189.715 3664.84 159.376 3622.85C116.635 3563.71 42.2202 3487.21 78.8189 3424.08C117.101 3358.05 223.889 3394.56 299.14 3381.78C343.126 3374.31 384.949 3370.7 429.145 3364.6Z" fill="url(#paint27_linear_968_3397)"/>
</g>
<g filter="url(#filter28_f_968_3397)">
<path fill-rule="evenodd" clip-rule="evenodd" d="M1375.08 3743.4C1440.29 3747.65 1516 3653.07 1562.05 3699.46C1613.5 3751.3 1539.14 3840.55 1543.89 3913.47C1546.42 3952.18 1569.26 3984.28 1582.99 4020.55C1612.13 4097.52 1699.73 4169.6 1669.89 4246.3C1643.84 4313.25 1537.22 4288.58 1469.46 4312.33C1396.96 4337.74 1332.96 4406.18 1257.69 4390.76C1182.23 4375.31 1128.92 4303.45 1093.05 4235.22C1061.07 4174.4 1043.08 4097.56 1070.35 4034.48C1096.4 3974.25 1210.14 3986.54 1227.91 3923.36C1251.47 3839.66 1116.76 3741.31 1171.79 3674.02C1218.07 3617.42 1302.16 3738.65 1375.08 3743.4Z" fill="url(#paint28_linear_968_3397)"/>
</g>
<g filter="url(#filter29_f_968_3397)">
<path fill-rule="evenodd" clip-rule="evenodd" d="M1524.08 3743.4C1589.29 3747.65 1665 3653.07 1711.05 3699.46C1762.5 3751.3 1688.14 3840.55 1692.89 3913.47C1695.42 3952.18 1718.26 3984.28 1731.99 4020.55C1761.13 4097.52 1848.73 4169.6 1818.89 4246.3C1792.84 4313.25 1686.22 4288.58 1618.46 4312.33C1545.96 4337.74 1481.96 4406.18 1406.69 4390.76C1331.23 4375.31 1277.92 4303.45 1242.05 4235.22C1210.07 4174.4 1192.08 4097.56 1219.35 4034.48C1245.4 3974.25 1359.14 3986.54 1376.91 3923.36C1400.47 3839.66 1265.76 3741.31 1320.79 3674.02C1367.07 3617.42 1451.16 3738.65 1524.08 3743.4Z" fill="url(#paint29_linear_968_3397)"/>
</g>
<g filter="url(#filter30_f_968_3397)">
<path fill-rule="evenodd" clip-rule="evenodd" d="M1502.08 3961.4C1567.29 3965.65 1643 3871.07 1689.05 3917.46C1740.5 3969.3 1666.14 4058.55 1670.89 4131.47C1673.42 4170.18 1696.26 4202.28 1709.99 4238.55C1739.13 4315.52 1826.73 4387.6 1796.89 4464.3C1770.84 4531.25 1664.22 4506.58 1596.46 4530.33C1523.96 4555.74 1459.96 4624.18 1384.69 4608.76C1309.23 4593.31 1255.92 4521.45 1220.05 4453.22C1188.07 4392.4 1170.08 4315.56 1197.35 4252.48C1223.4 4192.25 1337.14 4204.54 1354.91 4141.36C1378.47 4057.66 1243.76 3959.31 1298.79 3892.02C1345.07 3835.42 1429.16 3956.65 1502.08 3961.4Z" fill="url(#paint30_linear_968_3397)"/>
</g>
<g filter="url(#filter31_f_968_3397)">
<path fill-rule="evenodd" clip-rule="evenodd" d="M882.33 3242.4C946.896 3226.72 1008.21 3291.09 1049.72 3342.95C1085.78 3388.02 1083.34 3449.99 1093.87 3506.73C1101.85 3549.82 1101.35 3591.39 1103.9 3635.13C1107.19 3691.65 1124.28 3746.33 1111.04 3801.37C1090.93 3884.95 1078.71 3982.83 1008.34 4032.24C936.022 4083.03 829.543 4092.81 749.579 4055.18C670.604 4018.02 655.748 3914.35 605.78 3842.81C562.265 3780.51 482.353 3737.46 474.842 3661.85C467.361 3586.53 510.641 3509.42 567.722 3459.68C618.489 3415.45 704.742 3451.53 760.149 3413.26C818.963 3372.64 812.862 3259.27 882.33 3242.4Z" fill="url(#paint31_linear_968_3397)" fill-opacity="0.9"/>
</g>
<g filter="url(#filter32_f_968_3397)">
<path fill-rule="evenodd" clip-rule="evenodd" d="M92.8251 3312.66C184.2 3371.62 93.1895 3556.76 181.824 3619.77C263.586 3677.89 389.354 3530.83 474.444 3583.96C541.825 3626.02 543.776 3752.34 496.841 3816.45C444.53 3887.9 324.99 3849.01 248.169 3893.01C206.809 3916.7 198.669 3971.9 165.568 4006.21C102.915 4071.14 42.5259 4234.3 -31.8797 4183.27C-120.063 4122.79 -22.5717 3975.15 -34.6721 3868.87C-38.3709 3836.38 -68.5368 3814.28 -77.4702 3782.83C-87.5676 3747.28 -85.2014 3711.57 -89.7651 3674.9C-100.41 3589.36 -160.967 3500.58 -122.17 3423.61C-85.1085 3350.08 23.6593 3268.03 92.8251 3312.66Z" fill="url(#paint32_linear_968_3397)"/>
</g>
<g filter="url(#filter33_f_968_3397)">
<path fill-rule="evenodd" clip-rule="evenodd" d="M237.005 3944.16C317.843 3932.85 397.911 4006.46 435.542 4078.94C470.707 4146.68 395.337 4231.95 423.281 4302.98C448.63 4367.41 555.961 4370.79 576.387 4436.95C597.336 4504.81 590.375 4607.32 527.279 4639.83C454.62 4677.27 374.88 4594.3 294.02 4582.44C254.966 4576.72 217.058 4581.88 178.17 4588.64C97.0251 4602.76 4.76555 4697.43 -57.6002 4643.59C-115.303 4593.78 0.711459 4499.12 -12.5346 4424.02C-26.5593 4344.5 -154.546 4296.92 -132.441 4219.26C-111.716 4146.45 10.4964 4175.09 71.1871 4129.9C139.12 4079.31 153.144 3955.88 237.005 3944.16Z" fill="url(#paint33_linear_968_3397)" fill-opacity="0.9"/>
</g>
<g filter="url(#filter34_f_968_3397)">
<path fill-rule="evenodd" clip-rule="evenodd" d="M790.005 4035.16C870.843 4023.85 950.911 4097.46 988.542 4169.94C1023.71 4237.68 948.337 4322.95 976.281 4393.98C1001.63 4458.41 1108.96 4461.79 1129.39 4527.95C1150.34 4595.81 1143.37 4698.32 1080.28 4730.83C1007.62 4768.27 927.88 4685.3 847.02 4673.44C807.966 4667.72 770.059 4672.88 731.17 4679.64C650.025 4693.76 557.766 4788.43 495.4 4734.59C437.697 4684.78 553.711 4590.12 540.465 4515.02C526.441 4435.51 398.454 4387.92 420.559 4310.26C441.284 4237.45 563.496 4266.09 624.187 4220.9C692.12 4170.31 706.144 4046.88 790.005 4035.16Z" fill="url(#paint34_linear_968_3397)" fill-opacity="0.9"/>
</g>
<g filter="url(#filter35_f_968_3397)">
<path fill-rule="evenodd" clip-rule="evenodd" d="M1056.82 3976.91C1119.57 3996.6 1095.97 4108.91 1150.14 4146.18C1201.29 4181.37 1293.38 4116.97 1331.55 4165.93C1365.93 4210.04 1297.65 4269.51 1289.42 4324.83C1281.25 4379.74 1327.22 4453.53 1283.62 4487.91C1236.53 4525.05 1163.76 4444.11 1108.53 4467.49C1040.33 4496.37 1031.55 4611.91 958.731 4625.46C891.753 4637.93 826.55 4581.01 783.845 4527.93C741.763 4475.62 702.709 4400.85 728.004 4338.67C755.383 4271.36 865.746 4282.6 907.75 4223.31C937.399 4181.45 889.793 4116.68 916.344 4072.8C946.298 4023.28 1001.61 3959.58 1056.82 3976.91Z" fill="url(#paint35_linear_968_3397)"/>
</g>
<g filter="url(#filter36_f_968_3397)">
<path fill-rule="evenodd" clip-rule="evenodd" d="M1082.82 3733.91C1145.57 3753.6 1121.97 3865.91 1176.14 3903.18C1227.29 3938.37 1319.38 3873.97 1357.55 3922.93C1391.93 3967.04 1323.65 4026.51 1315.42 4081.83C1307.25 4136.74 1353.22 4210.53 1309.62 4244.91C1262.53 4282.05 1189.76 4201.11 1134.53 4224.49C1066.33 4253.37 1057.55 4368.91 984.731 4382.46C917.753 4394.93 852.55 4338.01 809.845 4284.93C767.763 4232.62 728.709 4157.85 754.004 4095.67C781.383 4028.36 891.746 4039.6 933.75 3980.31C963.399 3938.45 915.793 3873.68 942.344 3829.8C972.298 3780.28 1027.61 3716.58 1082.82 3733.91Z" fill="url(#paint36_linear_968_3397)"/>
</g>
<g filter="url(#filter37_f_968_3397)">
<path fill-rule="evenodd" clip-rule="evenodd" d="M1556 4027.16C1636.84 4015.85 1716.91 4089.46 1754.54 4161.94C1789.71 4229.68 1714.34 4314.95 1742.28 4385.98C1767.63 4450.41 1874.96 4453.79 1895.39 4519.95C1916.34 4587.81 1909.37 4690.32 1846.28 4722.83C1773.62 4760.27 1693.88 4677.3 1613.02 4665.44C1573.97 4659.72 1536.06 4664.88 1497.17 4671.64C1416.03 4685.76 1323.77 4780.43 1261.4 4726.59C1203.7 4676.78 1319.71 4582.12 1306.47 4507.02C1292.44 4427.51 1164.45 4379.92 1186.56 4302.26C1207.28 4229.45 1329.5 4258.09 1390.19 4212.9C1458.12 4162.31 1472.14 4038.88 1556 4027.16Z" fill="url(#paint37_linear_968_3397)" fill-opacity="0.9"/>
</g>
<g filter="url(#filter38_f_968_3397)">
<path fill-rule="evenodd" clip-rule="evenodd" d="M187.825 3417.66C279.2 3476.62 188.19 3661.76 276.824 3724.77C358.586 3782.89 484.354 3635.83 569.444 3688.96C636.825 3731.02 638.776 3857.34 591.841 3921.45C539.53 3992.9 419.99 3954.01 343.169 3998.01C301.809 4021.7 293.669 4076.9 260.568 4111.21C197.915 4176.14 137.526 4339.3 63.1203 4288.27C-25.0626 4227.79 72.4283 4080.15 60.3279 3973.87C56.6291 3941.38 26.4632 3919.28 17.5298 3887.83C7.43243 3852.28 9.7986 3816.57 5.23492 3779.9C-5.40971 3694.36 -65.9672 3605.58 -27.17 3528.61C9.89152 3455.08 118.659 3373.03 187.825 3417.66Z" fill="url(#paint38_linear_968_3397)"/>
</g>
</g>
<g clip-path="url(#clip3_968_3397)">
<g filter="url(#filter39_f_968_3397)">
<path fill-rule="evenodd" clip-rule="evenodd" d="M1197.1 2388.44C1280.48 2381.05 1309.98 2278.08 1370.82 2220.57C1435.21 2159.71 1545.66 2134.53 1558.45 2046.85C1571.76 1955.63 1505.77 1866.53 1430.15 1813.79C1363.7 1767.44 1275.55 1774.54 1197.1 1794.81C1137.06 1810.32 1101.25 1863.43 1059.73 1909.49C1021.65 1951.73 981.238 1991.12 969.9 2046.85C955.501 2117.64 949.569 2194.23 989.572 2254.37C1036.98 2325.66 1111.82 2396 1197.1 2388.44Z" fill="url(#paint39_linear_968_3397)"/>
</g>
<g filter="url(#filter40_f_968_3397)">
<path fill-rule="evenodd" clip-rule="evenodd" d="M1396.1 2449.44C1479.48 2442.05 1508.98 2339.08 1569.82 2281.57C1634.21 2220.71 1744.66 2195.53 1757.45 2107.85C1770.76 2016.63 1704.77 1927.53 1629.15 1874.79C1562.7 1828.44 1474.55 1835.54 1396.1 1855.81C1336.06 1871.32 1300.25 1924.43 1258.73 1970.49C1220.65 2012.73 1180.24 2052.12 1168.9 2107.85C1154.5 2178.64 1148.57 2255.23 1188.57 2315.37C1235.98 2386.66 1310.82 2457 1396.1 2449.44Z" fill="url(#paint40_linear_968_3397)"/>
</g>
<g filter="url(#filter41_f_968_3397)">
<path fill-rule="evenodd" clip-rule="evenodd" d="M603.935 2006.86C774.822 2001.23 836.391 1801.92 885.132 1638.2C928.564 1492.32 958.563 1318.26 835.765 1228.17C711.767 1137.21 547.824 1208.34 424.62 1300.38C308.029 1387.47 223.518 1517.82 259.299 1658.8C303.687 1833.68 423.43 2012.8 603.935 2006.86Z" fill="url(#paint41_linear_968_3397)"/>
</g>
<g filter="url(#filter42_f_968_3397)">
<path fill-rule="evenodd" clip-rule="evenodd" d="M429.145 2309.4C482.031 2316.71 532.673 2344.53 584.483 2331.64C645.535 2316.45 723.497 2292.65 740.267 2232.02C757.737 2168.85 658.548 2122.17 660.535 2056.66C663.26 1966.83 809.433 1879.26 753.091 1809.23C697.86 1740.59 586.113 1860.25 498.17 1854.86C439.075 1851.24 391.903 1756.76 339.282 1783.89C282.129 1813.36 320.724 1911.53 284.816 1964.87C255.892 2007.84 189.715 2009.16 159.376 2051.15C116.635 2110.29 42.2202 2186.79 78.8189 2249.92C117.101 2315.95 223.889 2279.44 299.14 2292.22C343.126 2299.69 384.949 2303.3 429.145 2309.4Z" fill="url(#paint42_linear_968_3397)"/>
</g>
<g filter="url(#filter43_f_968_3397)">
<path fill-rule="evenodd" clip-rule="evenodd" d="M647.145 2309.4C700.031 2316.71 750.673 2344.53 802.483 2331.64C863.535 2316.45 941.497 2292.65 958.267 2232.02C975.737 2168.85 876.548 2122.17 878.535 2056.66C881.26 1966.83 1027.43 1879.26 971.091 1809.23C915.86 1740.59 804.113 1860.25 716.17 1854.86C657.075 1851.24 609.903 1756.76 557.282 1783.89C500.129 1813.36 538.724 1911.53 502.816 1964.87C473.892 2007.84 407.715 2009.16 377.376 2051.15C334.635 2110.29 260.22 2186.79 296.819 2249.92C335.101 2315.95 441.889 2279.44 517.14 2292.22C561.126 2299.69 602.949 2303.3 647.145 2309.4Z" fill="url(#paint43_linear_968_3397)"/>
</g>
<g filter="url(#filter44_f_968_3397)">
<path fill-rule="evenodd" clip-rule="evenodd" d="M1375.08 1930.6C1440.29 1926.35 1516 2020.93 1562.05 1974.54C1613.5 1922.7 1539.14 1833.45 1543.89 1760.53C1546.42 1721.82 1569.26 1689.72 1582.99 1653.45C1612.13 1576.48 1699.73 1504.4 1669.89 1427.7C1643.84 1360.75 1537.22 1385.42 1469.46 1361.67C1396.96 1336.26 1332.96 1267.82 1257.69 1283.24C1182.23 1298.69 1128.92 1370.55 1093.05 1438.78C1061.07 1499.6 1043.08 1576.44 1070.35 1639.52C1096.4 1699.75 1210.14 1687.46 1227.91 1750.64C1251.47 1834.34 1116.76 1932.69 1171.79 1999.98C1218.07 2056.58 1302.16 1935.35 1375.08 1930.6Z" fill="url(#paint44_linear_968_3397)"/>
</g>
<g filter="url(#filter45_f_968_3397)">
<path fill-rule="evenodd" clip-rule="evenodd" d="M1524.08 1930.6C1589.29 1926.35 1665 2020.93 1711.05 1974.54C1762.5 1922.7 1688.14 1833.45 1692.89 1760.53C1695.42 1721.82 1718.26 1689.72 1731.99 1653.45C1761.13 1576.48 1848.73 1504.4 1818.89 1427.7C1792.84 1360.75 1686.22 1385.42 1618.46 1361.67C1545.96 1336.26 1481.96 1267.82 1406.69 1283.24C1331.23 1298.69 1277.92 1370.55 1242.05 1438.78C1210.07 1499.6 1192.08 1576.44 1219.35 1639.52C1245.4 1699.75 1359.14 1687.46 1376.91 1750.64C1400.47 1834.34 1265.76 1932.69 1320.79 1999.98C1367.07 2056.58 1451.16 1935.35 1524.08 1930.6Z" fill="url(#paint45_linear_968_3397)"/>
</g>
<g filter="url(#filter46_f_968_3397)">
<path fill-rule="evenodd" clip-rule="evenodd" d="M1502.08 1712.6C1567.29 1708.35 1643 1802.93 1689.05 1756.54C1740.5 1704.7 1666.14 1615.45 1670.89 1542.53C1673.42 1503.82 1696.26 1471.72 1709.99 1435.45C1739.13 1358.48 1826.73 1286.4 1796.89 1209.7C1770.84 1142.75 1664.22 1167.42 1596.46 1143.67C1523.96 1118.26 1459.96 1049.82 1384.69 1065.24C1309.23 1080.69 1255.92 1152.55 1220.05 1220.78C1188.07 1281.6 1170.08 1358.44 1197.35 1421.52C1223.4 1481.75 1337.14 1469.46 1354.91 1532.64C1378.47 1616.34 1243.76 1714.69 1298.79 1781.98C1345.07 1838.58 1429.16 1717.35 1502.08 1712.6Z" fill="url(#paint46_linear_968_3397)"/>
</g>
<g filter="url(#filter47_f_968_3397)">
<path fill-rule="evenodd" clip-rule="evenodd" d="M882.33 2431.6C946.896 2447.28 1008.21 2382.91 1049.72 2331.05C1085.78 2285.98 1083.34 2224.01 1093.87 2167.27C1101.85 2124.18 1101.35 2082.61 1103.9 2038.87C1107.19 1982.35 1124.28 1927.67 1111.04 1872.63C1090.93 1789.05 1078.71 1691.17 1008.34 1641.76C936.022 1590.97 829.543 1581.19 749.579 1618.82C670.604 1655.98 655.748 1759.65 605.78 1831.19C562.265 1893.49 482.353 1936.54 474.842 2012.15C467.361 2087.47 510.641 2164.58 567.722 2214.32C618.489 2258.55 704.742 2222.47 760.149 2260.74C818.963 2301.36 812.862 2414.73 882.33 2431.6Z" fill="url(#paint47_linear_968_3397)" fill-opacity="0.9"/>
</g>
<g filter="url(#filter48_f_968_3397)">
<path fill-rule="evenodd" clip-rule="evenodd" d="M92.8251 2361.34C184.2 2302.38 93.1895 2117.24 181.824 2054.23C263.586 1996.11 389.354 2143.17 474.444 2090.04C541.825 2047.98 543.776 1921.66 496.841 1857.55C444.53 1786.1 324.99 1824.99 248.169 1780.99C206.809 1757.3 198.669 1702.1 165.568 1667.79C102.915 1602.86 42.5259 1439.7 -31.8797 1490.73C-120.063 1551.21 -22.5717 1698.85 -34.6721 1805.13C-38.3709 1837.62 -68.5368 1859.72 -77.4702 1891.17C-87.5676 1926.72 -85.2014 1962.43 -89.7651 1999.1C-100.41 2084.64 -160.967 2173.42 -122.17 2250.39C-85.1085 2323.92 23.6593 2405.97 92.8251 2361.34Z" fill="url(#paint48_linear_968_3397)"/>
</g>
<g filter="url(#filter49_f_968_3397)">
<path fill-rule="evenodd" clip-rule="evenodd" d="M237.005 1729.84C317.843 1741.15 397.911 1667.54 435.542 1595.06C470.707 1527.32 395.337 1442.05 423.281 1371.02C448.63 1306.59 555.961 1303.21 576.387 1237.05C597.336 1169.19 590.375 1066.68 527.279 1034.17C454.62 996.727 374.88 1079.7 294.02 1091.56C254.966 1097.28 217.058 1092.12 178.17 1085.36C97.0251 1071.24 4.76555 976.573 -57.6002 1030.41C-115.303 1080.22 0.711459 1174.88 -12.5346 1249.98C-26.5593 1329.5 -154.546 1377.08 -132.441 1454.74C-111.716 1527.55 10.4964 1498.91 71.1871 1544.1C139.12 1594.69 153.144 1718.12 237.005 1729.84Z" fill="url(#paint49_linear_968_3397)" fill-opacity="0.9"/>
</g>
<g filter="url(#filter50_f_968_3397)">
<path fill-rule="evenodd" clip-rule="evenodd" d="M790.005 1638.84C870.843 1650.15 950.911 1576.54 988.542 1504.06C1023.71 1436.32 948.337 1351.05 976.281 1280.02C1001.63 1215.59 1108.96 1212.21 1129.39 1146.05C1150.34 1078.19 1143.37 975.676 1080.28 943.165C1007.62 905.727 927.88 988.701 847.02 1000.56C807.966 1006.28 770.059 1001.12 731.17 994.356C650.025 980.244 557.766 885.573 495.4 939.409C437.697 989.22 553.711 1083.88 540.465 1158.98C526.441 1238.49 398.454 1286.08 420.559 1363.74C441.284 1436.55 563.496 1407.91 624.187 1453.1C692.12 1503.69 706.144 1627.12 790.005 1638.84Z" fill="url(#paint50_linear_968_3397)" fill-opacity="0.9"/>
</g>
<g filter="url(#filter51_f_968_3397)">
<path fill-rule="evenodd" clip-rule="evenodd" d="M1056.82 1697.09C1119.57 1677.4 1095.97 1565.09 1150.14 1527.82C1201.29 1492.63 1293.38 1557.03 1331.55 1508.07C1365.93 1463.96 1297.65 1404.49 1289.42 1349.17C1281.25 1294.26 1327.22 1220.47 1283.62 1186.09C1236.53 1148.95 1163.76 1229.89 1108.53 1206.51C1040.33 1177.63 1031.55 1062.09 958.731 1048.54C891.753 1036.07 826.55 1092.99 783.845 1146.07C741.763 1198.38 702.709 1273.15 728.004 1335.33C755.383 1402.64 865.746 1391.4 907.75 1450.69C937.399 1492.55 889.793 1557.32 916.344 1601.2C946.298 1650.72 1001.61 1714.42 1056.82 1697.09Z" fill="url(#paint51_linear_968_3397)"/>
</g>
<g filter="url(#filter52_f_968_3397)">
<path fill-rule="evenodd" clip-rule="evenodd" d="M1183.82 1637.29C1246.57 1617.6 1222.97 1505.3 1277.14 1468.02C1328.29 1432.83 1420.38 1497.24 1458.55 1448.27C1492.93 1404.17 1424.65 1344.69 1416.42 1289.37C1408.25 1234.46 1454.22 1160.67 1410.62 1126.29C1363.53 1089.15 1290.76 1170.09 1235.53 1146.71C1167.33 1117.83 1158.55 1002.29 1085.73 988.737C1018.75 976.27 953.55 1033.19 910.845 1086.28C868.763 1138.58 829.709 1213.35 855.004 1275.54C882.383 1342.85 992.746 1331.6 1034.75 1390.89C1064.4 1432.75 1016.79 1497.52 1043.34 1541.41C1073.3 1590.92 1128.61 1654.62 1183.82 1637.29Z" fill="url(#paint52_linear_968_3397)"/>
</g>
<g filter="url(#filter53_f_968_3397)">
<path fill-rule="evenodd" clip-rule="evenodd" d="M1556 1646.84C1636.84 1658.15 1716.91 1584.54 1754.54 1512.06C1789.71 1444.32 1714.34 1359.05 1742.28 1288.02C1767.63 1223.59 1874.96 1220.21 1895.39 1154.05C1916.34 1086.19 1909.37 983.676 1846.28 951.165C1773.62 913.727 1693.88 996.701 1613.02 1008.56C1573.97 1014.28 1536.06 1009.12 1497.17 1002.36C1416.03 988.244 1323.77 893.573 1261.4 947.409C1203.7 997.22 1319.71 1091.88 1306.47 1166.98C1292.44 1246.49 1164.45 1294.08 1186.56 1371.74C1207.28 1444.55 1329.5 1415.91 1390.19 1461.1C1458.12 1511.69 1472.14 1635.12 1556 1646.84Z" fill="url(#paint53_linear_968_3397)" fill-opacity="0.9"/>
</g>
<g filter="url(#filter54_f_968_3397)">
<path fill-rule="evenodd" clip-rule="evenodd" d="M143.825 2259.34C235.2 2200.38 144.19 2015.24 232.824 1952.23C314.586 1894.11 440.354 2041.17 525.444 1988.04C592.825 1945.98 594.776 1819.66 547.841 1755.55C495.53 1684.1 375.99 1722.99 299.169 1678.99C257.809 1655.3 249.669 1600.1 216.568 1565.79C153.915 1500.86 93.5259 1337.7 19.1203 1388.73C-69.0626 1449.21 28.4283 1596.85 16.3279 1703.13C12.6291 1735.62 -17.5368 1757.72 -26.4702 1789.17C-36.5676 1824.72 -34.2014 1860.43 -38.7651 1897.1C-49.4097 1982.64 -109.967 2071.42 -71.17 2148.39C-34.1085 2221.92 74.6593 2303.97 143.825 2259.34Z" fill="url(#paint54_linear_968_3397)"/>
</g>
<g filter="url(#filter55_f_968_3397)">
<path fill-rule="evenodd" clip-rule="evenodd" d="M1026.33 2331.6C1090.9 2347.28 1152.21 2282.91 1193.72 2231.05C1229.78 2185.98 1227.34 2124.01 1237.87 2067.27C1245.85 2024.18 1245.35 1982.61 1247.9 1938.87C1251.19 1882.35 1268.28 1827.67 1255.04 1772.63C1234.93 1689.05 1222.71 1591.17 1152.34 1541.76C1080.02 1490.97 973.543 1481.19 893.579 1518.82C814.604 1555.98 799.748 1659.65 749.78 1731.19C706.265 1793.49 626.353 1836.54 618.842 1912.15C611.361 1987.47 654.641 2064.58 711.722 2114.32C762.489 2158.55 848.742 2122.47 904.149 2160.74C962.963 2201.36 956.862 2314.73 1026.33 2331.6Z" fill="url(#paint55_linear_968_3397)" fill-opacity="0.9"/>
</g>
</g>
<defs>
<filter id="filter0_f_968_3397" x="182" y="737" width="809" height="668" filterUnits="userSpaceOnUse" color-interpolation-filters="sRGB">
<feFlood flood-opacity="0" result="BackgroundImageFix"/>
<feBlend mode="normal" in="SourceGraphic" in2="BackgroundImageFix" result="shape"/>
<feGaussianBlur stdDeviation="28" result="effect1_foregroundBlur_968_3397"/>
</filter>
<filter id="filter1_f_968_3397" x="960" y="436" width="883" height="998" filterUnits="userSpaceOnUse" color-interpolation-filters="sRGB">
<feFlood flood-opacity="0" result="BackgroundImageFix"/>
<feBlend mode="normal" in="SourceGraphic" in2="BackgroundImageFix" result="shape"/>
<feGaussianBlur stdDeviation="66" result="effect1_foregroundBlur_968_3397"/>
</filter>
<filter id="filter2_f_968_3397" x="1269" y="475" width="883" height="998" filterUnits="userSpaceOnUse" color-interpolation-filters="sRGB">
<feFlood flood-opacity="0" result="BackgroundImageFix"/>
<feBlend mode="normal" in="SourceGraphic" in2="BackgroundImageFix" result="shape"/>
<feGaussianBlur stdDeviation="66" result="effect1_foregroundBlur_968_3397"/>
</filter>
<filter id="filter3_f_968_3397" x="1087" y="524" width="883" height="998" filterUnits="userSpaceOnUse" color-interpolation-filters="sRGB">
<feFlood flood-opacity="0" result="BackgroundImageFix"/>
<feBlend mode="normal" in="SourceGraphic" in2="BackgroundImageFix" result="shape"/>
<feGaussianBlur stdDeviation="66" result="effect1_foregroundBlur_968_3397"/>
</filter>
<filter id="filter4_f_968_3397" x="-356" y="277" width="949" height="1157" filterUnits="userSpaceOnUse" color-interpolation-filters="sRGB">
<feFlood flood-opacity="0" result="BackgroundImageFix"/>
<feBlend mode="normal" in="SourceGraphic" in2="BackgroundImageFix" result="shape"/>
<feGaussianBlur stdDeviation="66" result="effect1_foregroundBlur_968_3397"/>
</filter>
<filter id="filter5_f_968_3397" x="-327" y="349" width="1106" height="1101" filterUnits="userSpaceOnUse" color-interpolation-filters="sRGB">
<feFlood flood-opacity="0" result="BackgroundImageFix"/>
<feBlend mode="normal" in="SourceGraphic" in2="BackgroundImageFix" result="shape"/>
<feGaussianBlur stdDeviation="96" result="effect1_foregroundBlur_968_3397"/>
</filter>
<filter id="filter6_f_968_3397" x="226" y="440" width="1106" height="1101" filterUnits="userSpaceOnUse" color-interpolation-filters="sRGB">
<feFlood flood-opacity="0" result="BackgroundImageFix"/>
<feBlend mode="normal" in="SourceGraphic" in2="BackgroundImageFix" result="shape"/>
<feGaussianBlur stdDeviation="96" result="effect1_foregroundBlur_968_3397"/>
</filter>
<filter id="filter7_f_968_3397" x="496" y="348" width="1069.16" height="1101.2" filterUnits="userSpaceOnUse" color-interpolation-filters="sRGB">
<feFlood flood-opacity="0" result="BackgroundImageFix"/>
<feBlend mode="normal" in="SourceGraphic" in2="BackgroundImageFix" result="shape"/>
<feGaussianBlur stdDeviation="112" result="effect1_foregroundBlur_968_3397"/>
</filter>
<filter id="filter8_f_968_3397" x="992" y="432" width="1106" height="1101" filterUnits="userSpaceOnUse" color-interpolation-filters="sRGB">
<feFlood flood-opacity="0" result="BackgroundImageFix"/>
<feBlend mode="normal" in="SourceGraphic" in2="BackgroundImageFix" result="shape"/>
<feGaussianBlur stdDeviation="96" result="effect1_foregroundBlur_968_3397"/>
</filter>
<filter id="filter9_f_968_3397" x="751" y="1944" width="1017.17" height="1025.88" filterUnits="userSpaceOnUse" color-interpolation-filters="sRGB">
<feFlood flood-opacity="0" result="BackgroundImageFix"/>
<feBlend mode="normal" in="SourceGraphic" in2="BackgroundImageFix" result="shape"/>
<feGaussianBlur stdDeviation="104" result="effect1_foregroundBlur_968_3397"/>
</filter>
<filter id="filter10_f_968_3397" x="950" y="1883" width="1017.17" height="1025.88" filterUnits="userSpaceOnUse" color-interpolation-filters="sRGB">
<feFlood flood-opacity="0" result="BackgroundImageFix"/>
<feBlend mode="normal" in="SourceGraphic" in2="BackgroundImageFix" result="shape"/>
<feGaussianBlur stdDeviation="104" result="effect1_foregroundBlur_968_3397"/>
</filter>
<filter id="filter11_f_968_3397" x="195" y="2478" width="784" height="933" filterUnits="userSpaceOnUse" color-interpolation-filters="sRGB">
<feFlood flood-opacity="0" result="BackgroundImageFix"/>
<feBlend mode="normal" in="SourceGraphic" in2="BackgroundImageFix" result="shape"/>
<feGaussianBlur stdDeviation="28" result="effect1_foregroundBlur_968_3397"/>
</filter>
<filter id="filter12_f_968_3397" x="13" y="2150" width="809" height="668" filterUnits="userSpaceOnUse" color-interpolation-filters="sRGB">
<feFlood flood-opacity="0" result="BackgroundImageFix"/>
<feBlend mode="normal" in="SourceGraphic" in2="BackgroundImageFix" result="shape"/>
<feGaussianBlur stdDeviation="28" result="effect1_foregroundBlur_968_3397"/>
</filter>
<filter id="filter13_f_968_3397" x="925" y="2394" width="883" height="998" filterUnits="userSpaceOnUse" color-interpolation-filters="sRGB">
<feFlood flood-opacity="0" result="BackgroundImageFix"/>
<feBlend mode="normal" in="SourceGraphic" in2="BackgroundImageFix" result="shape"/>
<feGaussianBlur stdDeviation="66" result="effect1_foregroundBlur_968_3397"/>
</filter>
<filter id="filter14_f_968_3397" x="1074" y="2394" width="883" height="998" filterUnits="userSpaceOnUse" color-interpolation-filters="sRGB">
<feFlood flood-opacity="0" result="BackgroundImageFix"/>
<feBlend mode="normal" in="SourceGraphic" in2="BackgroundImageFix" result="shape"/>
<feGaussianBlur stdDeviation="66" result="effect1_foregroundBlur_968_3397"/>
</filter>
<filter id="filter15_f_968_3397" x="1052" y="2612" width="883" height="998" filterUnits="userSpaceOnUse" color-interpolation-filters="sRGB">
<feFlood flood-opacity="0" result="BackgroundImageFix"/>
<feBlend mode="normal" in="SourceGraphic" in2="BackgroundImageFix" result="shape"/>
<feGaussianBlur stdDeviation="66" result="effect1_foregroundBlur_968_3397"/>
</filter>
<filter id="filter16_f_968_3397" x="302" y="1935" width="986" height="1182" filterUnits="userSpaceOnUse" color-interpolation-filters="sRGB">
<feFlood flood-opacity="0" result="BackgroundImageFix"/>
<feBlend mode="normal" in="SourceGraphic" in2="BackgroundImageFix" result="shape"/>
<feGaussianBlur stdDeviation="86" result="effect1_foregroundBlur_968_3397"/>
</filter>
<filter id="filter17_f_968_3397" x="-267" y="2035" width="928" height="1157" filterUnits="userSpaceOnUse" color-interpolation-filters="sRGB">
<feFlood flood-opacity="0" result="BackgroundImageFix"/>
<feBlend mode="normal" in="SourceGraphic" in2="BackgroundImageFix" result="shape"/>
<feGaussianBlur stdDeviation="66" result="effect1_foregroundBlur_968_3397"/>
</filter>
<filter id="filter18_f_968_3397" x="-327" y="2618" width="1106" height="1101" filterUnits="userSpaceOnUse" color-interpolation-filters="sRGB">
<feFlood flood-opacity="0" result="BackgroundImageFix"/>
<feBlend mode="normal" in="SourceGraphic" in2="BackgroundImageFix" result="shape"/>
<feGaussianBlur stdDeviation="96" result="effect1_foregroundBlur_968_3397"/>
</filter>
<filter id="filter19_f_968_3397" x="226" y="2709" width="1106" height="1101" filterUnits="userSpaceOnUse" color-interpolation-filters="sRGB">
<feFlood flood-opacity="0" result="BackgroundImageFix"/>
<feBlend mode="normal" in="SourceGraphic" in2="BackgroundImageFix" result="shape"/>
<feGaussianBlur stdDeviation="96" result="effect1_foregroundBlur_968_3397"/>
</filter>
<filter id="filter20_f_968_3397" x="496" y="2617" width="1069.16" height="1101.2" filterUnits="userSpaceOnUse" color-interpolation-filters="sRGB">
<feFlood flood-opacity="0" result="BackgroundImageFix"/>
<feBlend mode="normal" in="SourceGraphic" in2="BackgroundImageFix" result="shape"/>
<feGaussianBlur stdDeviation="112" result="effect1_foregroundBlur_968_3397"/>
</filter>
<filter id="filter21_f_968_3397" x="522" y="2374" width="1069.16" height="1101.2" filterUnits="userSpaceOnUse" color-interpolation-filters="sRGB">
<feFlood flood-opacity="0" result="BackgroundImageFix"/>
<feBlend mode="normal" in="SourceGraphic" in2="BackgroundImageFix" result="shape"/>
<feGaussianBlur stdDeviation="112" result="effect1_foregroundBlur_968_3397"/>
</filter>
<filter id="filter22_f_968_3397" x="992" y="2701" width="1106" height="1101" filterUnits="userSpaceOnUse" color-interpolation-filters="sRGB">
<feFlood flood-opacity="0" result="BackgroundImageFix"/>
<feBlend mode="normal" in="SourceGraphic" in2="BackgroundImageFix" result="shape"/>
<feGaussianBlur stdDeviation="96" result="effect1_foregroundBlur_968_3397"/>
</filter>
<filter id="filter23_f_968_3397" x="-172" y="2140" width="928" height="1157" filterUnits="userSpaceOnUse" color-interpolation-filters="sRGB">
<feFlood flood-opacity="0" result="BackgroundImageFix"/>
<feBlend mode="normal" in="SourceGraphic" in2="BackgroundImageFix" result="shape"/>
<feGaussianBlur stdDeviation="66" result="effect1_foregroundBlur_968_3397"/>
</filter>
<filter id="filter24_f_968_3397" x="751" y="3077" width="1017.17" height="1025.88" filterUnits="userSpaceOnUse" color-interpolation-filters="sRGB">
<feFlood flood-opacity="0" result="BackgroundImageFix"/>
<feBlend mode="normal" in="SourceGraphic" in2="BackgroundImageFix" result="shape"/>
<feGaussianBlur stdDeviation="104" result="effect1_foregroundBlur_968_3397"/>
</filter>
<filter id="filter25_f_968_3397" x="950" y="3016" width="1017.17" height="1025.88" filterUnits="userSpaceOnUse" color-interpolation-filters="sRGB">
<feFlood flood-opacity="0" result="BackgroundImageFix"/>
<feBlend mode="normal" in="SourceGraphic" in2="BackgroundImageFix" result="shape"/>
<feGaussianBlur stdDeviation="104" result="effect1_foregroundBlur_968_3397"/>
</filter>
<filter id="filter26_f_968_3397" x="195" y="3611" width="784" height="933" filterUnits="userSpaceOnUse" color-interpolation-filters="sRGB">
<feFlood flood-opacity="0" result="BackgroundImageFix"/>
<feBlend mode="normal" in="SourceGraphic" in2="BackgroundImageFix" result="shape"/>
<feGaussianBlur stdDeviation="28" result="effect1_foregroundBlur_968_3397"/>
</filter>
<filter id="filter27_f_968_3397" x="13" y="3283" width="809" height="668" filterUnits="userSpaceOnUse" color-interpolation-filters="sRGB">
<feFlood flood-opacity="0" result="BackgroundImageFix"/>
<feBlend mode="normal" in="SourceGraphic" in2="BackgroundImageFix" result="shape"/>
<feGaussianBlur stdDeviation="28" result="effect1_foregroundBlur_968_3397"/>
</filter>
<filter id="filter28_f_968_3397" x="925" y="3527" width="883" height="998" filterUnits="userSpaceOnUse" color-interpolation-filters="sRGB">
<feFlood flood-opacity="0" result="BackgroundImageFix"/>
<feBlend mode="normal" in="SourceGraphic" in2="BackgroundImageFix" result="shape"/>
<feGaussianBlur stdDeviation="66" result="effect1_foregroundBlur_968_3397"/>
</filter>
<filter id="filter29_f_968_3397" x="1074" y="3527" width="883" height="998" filterUnits="userSpaceOnUse" color-interpolation-filters="sRGB">
<feFlood flood-opacity="0" result="BackgroundImageFix"/>
<feBlend mode="normal" in="SourceGraphic" in2="BackgroundImageFix" result="shape"/>
<feGaussianBlur stdDeviation="66" result="effect1_foregroundBlur_968_3397"/>
</filter>
<filter id="filter30_f_968_3397" x="1052" y="3745" width="883" height="998" filterUnits="userSpaceOnUse" color-interpolation-filters="sRGB">
<feFlood flood-opacity="0" result="BackgroundImageFix"/>
<feBlend mode="normal" in="SourceGraphic" in2="BackgroundImageFix" result="shape"/>
<feGaussianBlur stdDeviation="66" result="effect1_foregroundBlur_968_3397"/>
</filter>
<filter id="filter31_f_968_3397" x="302" y="3068" width="986" height="1182" filterUnits="userSpaceOnUse" color-interpolation-filters="sRGB">
<feFlood flood-opacity="0" result="BackgroundImageFix"/>
<feBlend mode="normal" in="SourceGraphic" in2="BackgroundImageFix" result="shape"/>
<feGaussianBlur stdDeviation="86" result="effect1_foregroundBlur_968_3397"/>
</filter>
<filter id="filter32_f_968_3397" x="-267" y="3168" width="928" height="1157" filterUnits="userSpaceOnUse" color-interpolation-filters="sRGB">
<feFlood flood-opacity="0" result="BackgroundImageFix"/>
<feBlend mode="normal" in="SourceGraphic" in2="BackgroundImageFix" result="shape"/>
<feGaussianBlur stdDeviation="66" result="effect1_foregroundBlur_968_3397"/>
</filter>
<filter id="filter33_f_968_3397" x="-327" y="3751" width="1106" height="1101" filterUnits="userSpaceOnUse" color-interpolation-filters="sRGB">
<feFlood flood-opacity="0" result="BackgroundImageFix"/>
<feBlend mode="normal" in="SourceGraphic" in2="BackgroundImageFix" result="shape"/>
<feGaussianBlur stdDeviation="96" result="effect1_foregroundBlur_968_3397"/>
</filter>
<filter id="filter34_f_968_3397" x="226" y="3842" width="1106" height="1101" filterUnits="userSpaceOnUse" color-interpolation-filters="sRGB">
<feFlood flood-opacity="0" result="BackgroundImageFix"/>
<feBlend mode="normal" in="SourceGraphic" in2="BackgroundImageFix" result="shape"/>
<feGaussianBlur stdDeviation="96" result="effect1_foregroundBlur_968_3397"/>
</filter>
<filter id="filter35_f_968_3397" x="496" y="3750" width="1069.16" height="1101.2" filterUnits="userSpaceOnUse" color-interpolation-filters="sRGB">
<feFlood flood-opacity="0" result="BackgroundImageFix"/>
<feBlend mode="normal" in="SourceGraphic" in2="BackgroundImageFix" result="shape"/>
<feGaussianBlur stdDeviation="112" result="effect1_foregroundBlur_968_3397"/>
</filter>
<filter id="filter36_f_968_3397" x="522" y="3507" width="1069.16" height="1101.2" filterUnits="userSpaceOnUse" color-interpolation-filters="sRGB">
<feFlood flood-opacity="0" result="BackgroundImageFix"/>
<feBlend mode="normal" in="SourceGraphic" in2="BackgroundImageFix" result="shape"/>
<feGaussianBlur stdDeviation="112" result="effect1_foregroundBlur_968_3397"/>
</filter>
<filter id="filter37_f_968_3397" x="992" y="3834" width="1106" height="1101" filterUnits="userSpaceOnUse" color-interpolation-filters="sRGB">
<feFlood flood-opacity="0" result="BackgroundImageFix"/>
<feBlend mode="normal" in="SourceGraphic" in2="BackgroundImageFix" result="shape"/>
<feGaussianBlur stdDeviation="96" result="effect1_foregroundBlur_968_3397"/>
</filter>
<filter id="filter38_f_968_3397" x="-172" y="3273" width="928" height="1157" filterUnits="userSpaceOnUse" color-interpolation-filters="sRGB">
<feFlood flood-opacity="0" result="BackgroundImageFix"/>
<feBlend mode="normal" in="SourceGraphic" in2="BackgroundImageFix" result="shape"/>
<feGaussianBlur stdDeviation="66" result="effect1_foregroundBlur_968_3397"/>
</filter>
<filter id="filter39_f_968_3397" x="751" y="1571.12" width="1017.17" height="1025.88" filterUnits="userSpaceOnUse" color-interpolation-filters="sRGB">
<feFlood flood-opacity="0" result="BackgroundImageFix"/>
<feBlend mode="normal" in="SourceGraphic" in2="BackgroundImageFix" result="shape"/>
<feGaussianBlur stdDeviation="104" result="effect1_foregroundBlur_968_3397"/>
</filter>
<filter id="filter40_f_968_3397" x="950" y="1632.12" width="1017.17" height="1025.88" filterUnits="userSpaceOnUse" color-interpolation-filters="sRGB">
<feFlood flood-opacity="0" result="BackgroundImageFix"/>
<feBlend mode="normal" in="SourceGraphic" in2="BackgroundImageFix" result="shape"/>
<feGaussianBlur stdDeviation="104" result="effect1_foregroundBlur_968_3397"/>
</filter>
<filter id="filter41_f_968_3397" x="195" y="1130" width="784" height="933" filterUnits="userSpaceOnUse" color-interpolation-filters="sRGB">
<feFlood flood-opacity="0" result="BackgroundImageFix"/>
<feBlend mode="normal" in="SourceGraphic" in2="BackgroundImageFix" result="shape"/>
<feGaussianBlur stdDeviation="28" result="effect1_foregroundBlur_968_3397"/>
</filter>
<filter id="filter42_f_968_3397" x="13" y="1723" width="809" height="668" filterUnits="userSpaceOnUse" color-interpolation-filters="sRGB">
<feFlood flood-opacity="0" result="BackgroundImageFix"/>
<feBlend mode="normal" in="SourceGraphic" in2="BackgroundImageFix" result="shape"/>
<feGaussianBlur stdDeviation="28" result="effect1_foregroundBlur_968_3397"/>
</filter>
<filter id="filter43_f_968_3397" x="231" y="1723" width="809" height="668" filterUnits="userSpaceOnUse" color-interpolation-filters="sRGB">
<feFlood flood-opacity="0" result="BackgroundImageFix"/>
<feBlend mode="normal" in="SourceGraphic" in2="BackgroundImageFix" result="shape"/>
<feGaussianBlur stdDeviation="28" result="effect1_foregroundBlur_968_3397"/>
</filter>
<filter id="filter44_f_968_3397" x="925" y="1149" width="883" height="998" filterUnits="userSpaceOnUse" color-interpolation-filters="sRGB">
<feFlood flood-opacity="0" result="BackgroundImageFix"/>
<feBlend mode="normal" in="SourceGraphic" in2="BackgroundImageFix" result="shape"/>
<feGaussianBlur stdDeviation="66" result="effect1_foregroundBlur_968_3397"/>
</filter>
<filter id="filter45_f_968_3397" x="1074" y="1149" width="883" height="998" filterUnits="userSpaceOnUse" color-interpolation-filters="sRGB">
<feFlood flood-opacity="0" result="BackgroundImageFix"/>
<feBlend mode="normal" in="SourceGraphic" in2="BackgroundImageFix" result="shape"/>
<feGaussianBlur stdDeviation="66" result="effect1_foregroundBlur_968_3397"/>
</filter>
<filter id="filter46_f_968_3397" x="1052" y="931" width="883" height="998" filterUnits="userSpaceOnUse" color-interpolation-filters="sRGB">
<feFlood flood-opacity="0" result="BackgroundImageFix"/>
<feBlend mode="normal" in="SourceGraphic" in2="BackgroundImageFix" result="shape"/>
<feGaussianBlur stdDeviation="66" result="effect1_foregroundBlur_968_3397"/>
</filter>
<filter id="filter47_f_968_3397" x="302" y="1424" width="986" height="1182" filterUnits="userSpaceOnUse" color-interpolation-filters="sRGB">
<feFlood flood-opacity="0" result="BackgroundImageFix"/>
<feBlend mode="normal" in="SourceGraphic" in2="BackgroundImageFix" result="shape"/>
<feGaussianBlur stdDeviation="86" result="effect1_foregroundBlur_968_3397"/>
</filter>
<filter id="filter48_f_968_3397" x="-267" y="1349" width="928" height="1157" filterUnits="userSpaceOnUse" color-interpolation-filters="sRGB">
<feFlood flood-opacity="0" result="BackgroundImageFix"/>
<feBlend mode="normal" in="SourceGraphic" in2="BackgroundImageFix" result="shape"/>
<feGaussianBlur stdDeviation="66" result="effect1_foregroundBlur_968_3397"/>
</filter>
<filter id="filter49_f_968_3397" x="-327" y="822" width="1106" height="1101" filterUnits="userSpaceOnUse" color-interpolation-filters="sRGB">
<feFlood flood-opacity="0" result="BackgroundImageFix"/>
<feBlend mode="normal" in="SourceGraphic" in2="BackgroundImageFix" result="shape"/>
<feGaussianBlur stdDeviation="96" result="effect1_foregroundBlur_968_3397"/>
</filter>
<filter id="filter50_f_968_3397" x="226" y="731" width="1106" height="1101" filterUnits="userSpaceOnUse" color-interpolation-filters="sRGB">
<feFlood flood-opacity="0" result="BackgroundImageFix"/>
<feBlend mode="normal" in="SourceGraphic" in2="BackgroundImageFix" result="shape"/>
<feGaussianBlur stdDeviation="96" result="effect1_foregroundBlur_968_3397"/>
</filter>
<filter id="filter51_f_968_3397" x="496" y="822.798" width="1069.16" height="1101.2" filterUnits="userSpaceOnUse" color-interpolation-filters="sRGB">
<feFlood flood-opacity="0" result="BackgroundImageFix"/>
<feBlend mode="normal" in="SourceGraphic" in2="BackgroundImageFix" result="shape"/>
<feGaussianBlur stdDeviation="112" result="effect1_foregroundBlur_968_3397"/>
</filter>
<filter id="filter52_f_968_3397" x="623" y="763" width="1069.16" height="1101.2" filterUnits="userSpaceOnUse" color-interpolation-filters="sRGB">
<feFlood flood-opacity="0" result="BackgroundImageFix"/>
<feBlend mode="normal" in="SourceGraphic" in2="BackgroundImageFix" result="shape"/>
<feGaussianBlur stdDeviation="112" result="effect1_foregroundBlur_968_3397"/>
</filter>
<filter id="filter53_f_968_3397" x="992" y="739" width="1106" height="1101" filterUnits="userSpaceOnUse" color-interpolation-filters="sRGB">
<feFlood flood-opacity="0" result="BackgroundImageFix"/>
<feBlend mode="normal" in="SourceGraphic" in2="BackgroundImageFix" result="shape"/>
<feGaussianBlur stdDeviation="96" result="effect1_foregroundBlur_968_3397"/>
</filter>
<filter id="filter54_f_968_3397" x="-216" y="1247" width="928" height="1157" filterUnits="userSpaceOnUse" color-interpolation-filters="sRGB">
<feFlood flood-opacity="0" result="BackgroundImageFix"/>
<feBlend mode="normal" in="SourceGraphic" in2="BackgroundImageFix" result="shape"/>
<feGaussianBlur stdDeviation="66" result="effect1_foregroundBlur_968_3397"/>
</filter>
<filter id="filter55_f_968_3397" x="446" y="1324" width="986" height="1182" filterUnits="userSpaceOnUse" color-interpolation-filters="sRGB">
<feFlood flood-opacity="0" result="BackgroundImageFix"/>
<feBlend mode="normal" in="SourceGraphic" in2="BackgroundImageFix" result="shape"/>
<feGaussianBlur stdDeviation="86" result="effect1_foregroundBlur_968_3397"/>
</filter>
<linearGradient id="paint0_linear_968_3397" x1="238" y1="793" x2="780.095" y2="1472.57" gradientUnits="userSpaceOnUse">
<stop stop-color="#0C0066"/>
<stop offset="1" stop-color="#034C80"/>
</linearGradient>
<linearGradient id="paint1_linear_968_3397" x1="1092" y1="568" x2="1815.47" y2="1178.12" gradientUnits="userSpaceOnUse">
<stop stop-color="#2A22A0"/>
<stop offset="1" stop-color="#0B3271"/>
</linearGradient>
<linearGradient id="paint2_linear_968_3397" x1="1401" y1="607" x2="2124.47" y2="1217.12" gradientUnits="userSpaceOnUse">
<stop stop-color="#490778"/>
<stop offset="1" stop-color="#044D72"/>
</linearGradient>
<linearGradient id="paint3_linear_968_3397" x1="1219" y1="656" x2="1942.47" y2="1266.12" gradientUnits="userSpaceOnUse">
<stop stop-color="#4A478C"/>
<stop offset="1" stop-color="#006AFF"/>
</linearGradient>
<linearGradient id="paint4_linear_968_3397" x1="-224" y1="409" x2="638.499" y2="1070.6" gradientUnits="userSpaceOnUse">
<stop stop-color="#003B7E"/>
<stop offset="1" stop-color="#570387"/>
</linearGradient>
<linearGradient id="paint5_linear_968_3397" x1="-135" y1="541" x2="581.983" y2="1262.98" gradientUnits="userSpaceOnUse">
<stop stop-color="#070F56"/>
<stop offset="1" stop-color="#26044B"/>
</linearGradient>
<linearGradient id="paint6_linear_968_3397" x1="418" y1="632" x2="1134.98" y2="1353.98" gradientUnits="userSpaceOnUse">
<stop stop-color="#245A96"/>
<stop offset="1" stop-color="#110858"/>
</linearGradient>
<linearGradient id="paint7_linear_968_3397" x1="720" y1="572" x2="1372.38" y2="1192.38" gradientUnits="userSpaceOnUse">
<stop stop-color="#270157"/>
<stop offset="1" stop-color="#070982"/>
</linearGradient>
<linearGradient id="paint8_linear_968_3397" x1="1184" y1="624" x2="1900.98" y2="1345.98" gradientUnits="userSpaceOnUse">
<stop stop-color="#490778"/>
<stop offset="1" stop-color="#490778"/>
</linearGradient>
<linearGradient id="paint9_linear_968_3397" x1="843.841" y1="2152" x2="1617.67" y2="2857.52" gradientUnits="userSpaceOnUse">
<stop stop-color="#490778"/>
<stop offset="1" stop-color="#000559"/>
</linearGradient>
<linearGradient id="paint10_linear_968_3397" x1="1042.84" y1="2091" x2="1816.67" y2="2796.52" gradientUnits="userSpaceOnUse">
<stop stop-color="#2338C4"/>
<stop offset="1" stop-color="#0B1973"/>
</linearGradient>
<linearGradient id="paint11_linear_968_3397" x1="251" y1="2534" x2="1055.81" y2="3192.75" gradientUnits="userSpaceOnUse">
<stop stop-color="#1F0A63"/>
<stop offset="1" stop-color="#272F99"/>
</linearGradient>
<linearGradient id="paint12_linear_968_3397" x1="69" y1="2206" x2="611.095" y2="2885.57" gradientUnits="userSpaceOnUse">
<stop stop-color="#0C0066"/>
<stop offset="1" stop-color="#034C80"/>
</linearGradient>
<linearGradient id="paint13_linear_968_3397" x1="1057" y1="2526" x2="1780.47" y2="3136.12" gradientUnits="userSpaceOnUse">
<stop stop-color="#2A22A0"/>
<stop offset="1" stop-color="#0B3271"/>
</linearGradient>
<linearGradient id="paint14_linear_968_3397" x1="1206" y1="2526" x2="1929.47" y2="3136.12" gradientUnits="userSpaceOnUse">
<stop stop-color="#490778"/>
<stop offset="1" stop-color="#044D72"/>
</linearGradient>
<linearGradient id="paint15_linear_968_3397" x1="1184" y1="2744" x2="1907.47" y2="3354.12" gradientUnits="userSpaceOnUse">
<stop stop-color="#4A478C"/>
<stop offset="1" stop-color="#006AFF"/>
</linearGradient>
<linearGradient id="paint16_linear_968_3397" x1="474" y1="2107" x2="1283.11" y2="2726.87" gradientUnits="userSpaceOnUse">
<stop stop-color="#000559"/>
<stop offset="1" stop-color="#490778"/>
</linearGradient>
<linearGradient id="paint17_linear_968_3397" x1="-135" y1="2167" x2="720.184" y2="2802.88" gradientUnits="userSpaceOnUse">
<stop stop-color="#003B7E"/>
<stop offset="1" stop-color="#570387"/>
</linearGradient>
<linearGradient id="paint18_linear_968_3397" x1="-135" y1="2810" x2="581.983" y2="3531.98" gradientUnits="userSpaceOnUse">
<stop stop-color="#070F56"/>
<stop offset="1" stop-color="#26044B"/>
</linearGradient>
<linearGradient id="paint19_linear_968_3397" x1="418" y1="2901" x2="1134.98" y2="3622.98" gradientUnits="userSpaceOnUse">
<stop stop-color="#245A96"/>
<stop offset="1" stop-color="#110858"/>
</linearGradient>
<linearGradient id="paint20_linear_968_3397" x1="720" y1="2841" x2="1372.38" y2="3461.38" gradientUnits="userSpaceOnUse">
<stop stop-color="#270157"/>
<stop offset="1" stop-color="#070982"/>
</linearGradient>
<linearGradient id="paint21_linear_968_3397" x1="746" y1="2598" x2="1398.38" y2="3218.38" gradientUnits="userSpaceOnUse">
<stop stop-color="#270157"/>
<stop offset="1" stop-color="#070982"/>
</linearGradient>
<linearGradient id="paint22_linear_968_3397" x1="1184" y1="2893" x2="1900.98" y2="3614.98" gradientUnits="userSpaceOnUse">
<stop stop-color="#490778"/>
<stop offset="1" stop-color="#490778"/>
</linearGradient>
<linearGradient id="paint23_linear_968_3397" x1="-40" y1="2272" x2="815.184" y2="2907.88" gradientUnits="userSpaceOnUse">
<stop stop-color="#003B7E"/>
<stop offset="1" stop-color="#570387"/>
</linearGradient>
<linearGradient id="paint24_linear_968_3397" x1="843.841" y1="3285" x2="1617.67" y2="3990.52" gradientUnits="userSpaceOnUse">
<stop stop-color="#490778"/>
<stop offset="1" stop-color="#000559"/>
</linearGradient>
<linearGradient id="paint25_linear_968_3397" x1="1042.84" y1="3224" x2="1816.67" y2="3929.52" gradientUnits="userSpaceOnUse">
<stop stop-color="#2338C4"/>
<stop offset="1" stop-color="#0B1973"/>
</linearGradient>
<linearGradient id="paint26_linear_968_3397" x1="251" y1="3667" x2="1055.81" y2="4325.75" gradientUnits="userSpaceOnUse">
<stop stop-color="#1F0A63"/>
<stop offset="1" stop-color="#272F99"/>
</linearGradient>
<linearGradient id="paint27_linear_968_3397" x1="69" y1="3339" x2="611.095" y2="4018.57" gradientUnits="userSpaceOnUse">
<stop stop-color="#0C0066"/>
<stop offset="1" stop-color="#034C80"/>
</linearGradient>
<linearGradient id="paint28_linear_968_3397" x1="1057" y1="3659" x2="1780.47" y2="4269.12" gradientUnits="userSpaceOnUse">
<stop stop-color="#2A22A0"/>
<stop offset="1" stop-color="#0B3271"/>
</linearGradient>
<linearGradient id="paint29_linear_968_3397" x1="1206" y1="3659" x2="1929.47" y2="4269.12" gradientUnits="userSpaceOnUse">
<stop stop-color="#490778"/>
<stop offset="1" stop-color="#044D72"/>
</linearGradient>
<linearGradient id="paint30_linear_968_3397" x1="1184" y1="3877" x2="1907.47" y2="4487.12" gradientUnits="userSpaceOnUse">
<stop stop-color="#4A478C"/>
<stop offset="1" stop-color="#006AFF"/>
</linearGradient>
<linearGradient id="paint31_linear_968_3397" x1="474" y1="3240" x2="1283.11" y2="3859.87" gradientUnits="userSpaceOnUse">
<stop stop-color="#000559"/>
<stop offset="1" stop-color="#490778"/>
</linearGradient>
<linearGradient id="paint32_linear_968_3397" x1="-135" y1="3300" x2="720.184" y2="3935.88" gradientUnits="userSpaceOnUse">
<stop stop-color="#003B7E"/>
<stop offset="1" stop-color="#570387"/>
</linearGradient>
<linearGradient id="paint33_linear_968_3397" x1="-135" y1="3943" x2="581.983" y2="4664.98" gradientUnits="userSpaceOnUse">
<stop stop-color="#070F56"/>
<stop offset="1" stop-color="#26044B"/>
</linearGradient>
<linearGradient id="paint34_linear_968_3397" x1="418" y1="4034" x2="1134.98" y2="4755.98" gradientUnits="userSpaceOnUse">
<stop stop-color="#245A96"/>
<stop offset="1" stop-color="#110858"/>
</linearGradient>
<linearGradient id="paint35_linear_968_3397" x1="720" y1="3974" x2="1372.38" y2="4594.38" gradientUnits="userSpaceOnUse">
<stop stop-color="#270157"/>
<stop offset="1" stop-color="#070982"/>
</linearGradient>
<linearGradient id="paint36_linear_968_3397" x1="746" y1="3731" x2="1398.38" y2="4351.38" gradientUnits="userSpaceOnUse">
<stop stop-color="#270157"/>
<stop offset="1" stop-color="#070982"/>
</linearGradient>
<linearGradient id="paint37_linear_968_3397" x1="1184" y1="4026" x2="1900.98" y2="4747.98" gradientUnits="userSpaceOnUse">
<stop stop-color="#490778"/>
<stop offset="1" stop-color="#490778"/>
</linearGradient>
<linearGradient id="paint38_linear_968_3397" x1="-40" y1="3405" x2="815.184" y2="4040.88" gradientUnits="userSpaceOnUse">
<stop stop-color="#003B7E"/>
<stop offset="1" stop-color="#570387"/>
</linearGradient>
<linearGradient id="paint39_linear_968_3397" x1="843.841" y1="2389" x2="1617.67" y2="1683.48" gradientUnits="userSpaceOnUse">
<stop stop-color="#490778"/>
<stop offset="1" stop-color="#000559"/>
</linearGradient>
<linearGradient id="paint40_linear_968_3397" x1="1042.84" y1="2450" x2="1816.67" y2="1744.48" gradientUnits="userSpaceOnUse">
<stop stop-color="#2338C4"/>
<stop offset="1" stop-color="#0B1973"/>
</linearGradient>
<linearGradient id="paint41_linear_968_3397" x1="251" y1="2007" x2="1055.81" y2="1348.25" gradientUnits="userSpaceOnUse">
<stop stop-color="#1F0A63"/>
<stop offset="1" stop-color="#272F99"/>
</linearGradient>
<linearGradient id="paint42_linear_968_3397" x1="69" y1="2335" x2="611.095" y2="1655.43" gradientUnits="userSpaceOnUse">
<stop stop-color="#0C0066"/>
<stop offset="1" stop-color="#034C80"/>
</linearGradient>
<linearGradient id="paint43_linear_968_3397" x1="287" y1="2335" x2="829.095" y2="1655.43" gradientUnits="userSpaceOnUse">
<stop stop-color="#0C0066"/>
<stop offset="1" stop-color="#034C80"/>
</linearGradient>
<linearGradient id="paint44_linear_968_3397" x1="1057" y1="2015" x2="1780.47" y2="1404.88" gradientUnits="userSpaceOnUse">
<stop stop-color="#2A22A0"/>
<stop offset="1" stop-color="#0B3271"/>
</linearGradient>
<linearGradient id="paint45_linear_968_3397" x1="1206" y1="2015" x2="1929.47" y2="1404.88" gradientUnits="userSpaceOnUse">
<stop stop-color="#490778"/>
<stop offset="1" stop-color="#044D72"/>
</linearGradient>
<linearGradient id="paint46_linear_968_3397" x1="1184" y1="1797" x2="1907.47" y2="1186.88" gradientUnits="userSpaceOnUse">
<stop stop-color="#4A478C"/>
<stop offset="1" stop-color="#006AFF"/>
</linearGradient>
<linearGradient id="paint47_linear_968_3397" x1="474" y1="2434" x2="1283.11" y2="1814.13" gradientUnits="userSpaceOnUse">
<stop stop-color="#000559"/>
<stop offset="1" stop-color="#490778"/>
</linearGradient>
<linearGradient id="paint48_linear_968_3397" x1="-135" y1="2374" x2="720.184" y2="1738.12" gradientUnits="userSpaceOnUse">
<stop stop-color="#003B7E"/>
<stop offset="1" stop-color="#570387"/>
</linearGradient>
<linearGradient id="paint49_linear_968_3397" x1="-135" y1="1731" x2="581.983" y2="1009.02" gradientUnits="userSpaceOnUse">
<stop stop-color="#070F56"/>
<stop offset="1" stop-color="#26044B"/>
</linearGradient>
<linearGradient id="paint50_linear_968_3397" x1="418" y1="1640" x2="1134.98" y2="918.017" gradientUnits="userSpaceOnUse">
<stop stop-color="#245A96"/>
<stop offset="1" stop-color="#110858"/>
</linearGradient>
<linearGradient id="paint51_linear_968_3397" x1="720" y1="1700" x2="1372.38" y2="1079.62" gradientUnits="userSpaceOnUse">
<stop stop-color="#270157"/>
<stop offset="1" stop-color="#070982"/>
</linearGradient>
<linearGradient id="paint52_linear_968_3397" x1="847" y1="1640.2" x2="1499.38" y2="1019.83" gradientUnits="userSpaceOnUse">
<stop stop-color="#270157"/>
<stop offset="1" stop-color="#070982"/>
</linearGradient>
<linearGradient id="paint53_linear_968_3397" x1="1184" y1="1648" x2="1900.98" y2="926.017" gradientUnits="userSpaceOnUse">
<stop stop-color="#490778"/>
<stop offset="1" stop-color="#490778"/>
</linearGradient>
<linearGradient id="paint54_linear_968_3397" x1="-84" y1="2272" x2="771.184" y2="1636.12" gradientUnits="userSpaceOnUse">
<stop stop-color="#003B7E"/>
<stop offset="1" stop-color="#570387"/>
</linearGradient>
<linearGradient id="paint55_linear_968_3397" x1="618" y1="2334" x2="1427.11" y2="1714.13" gradientUnits="userSpaceOnUse">
<stop stop-color="#000559"/>
<stop offset="1" stop-color="#490778"/>
</linearGradient>
<clipPath id="clip0_968_3397">
<rect width="1728" height="1136" fill="white"/>
</clipPath>
<clipPath id="clip1_968_3397">
<rect width="1728" height="1136" fill="white" transform="translate(0 2269)"/>
</clipPath>
<clipPath id="clip2_968_3397">
<rect width="1728" height="1136" fill="white" transform="translate(0 3402)"/>
</clipPath>
<clipPath id="clip3_968_3397">
<rect width="1728" height="1136" fill="white" transform="matrix(1 0 0 -1 0 2272)"/>
</clipPath>
</defs>
</svg>
