<svg width="1728" height="1136" viewBox="0 0 1728 1136" fill="none" xmlns="http://www.w3.org/2000/svg">
<g clip-path="url(#clip0_980_3507)">
<g filter="url(#filter0_f_980_3507)">
<path fill-rule="evenodd" clip-rule="evenodd" d="M1197.1 1252.44C1280.48 1245.05 1309.98 1142.08 1370.82 1084.57C1435.21 1023.71 1545.66 998.532 1558.45 910.852C1571.76 819.629 1505.77 730.532 1430.15 677.793C1363.7 631.439 1275.55 638.542 1197.1 658.809C1137.06 674.318 1101.25 727.43 1059.73 773.487C1021.65 815.732 981.238 855.119 969.9 910.852C955.501 981.636 949.569 1058.23 989.572 1118.37C1036.98 1189.66 1111.82 1260 1197.1 1252.44Z" fill="url(#paint0_linear_980_3507)"/>
</g>
<g filter="url(#filter1_f_980_3507)">
<path fill-rule="evenodd" clip-rule="evenodd" d="M1396.1 1313.44C1479.48 1306.05 1508.98 1203.08 1569.82 1145.57C1634.21 1084.71 1744.66 1059.53 1757.45 971.852C1770.76 880.629 1704.77 791.532 1629.15 738.793C1562.7 692.439 1474.55 699.542 1396.1 719.809C1336.06 735.318 1300.25 788.43 1258.73 834.487C1220.65 876.732 1180.24 916.119 1168.9 971.852C1154.5 1042.64 1148.57 1119.23 1188.57 1179.37C1235.98 1250.66 1310.82 1321 1396.1 1313.44Z" fill="url(#paint1_linear_980_3507)"/>
</g>
<g filter="url(#filter2_f_980_3507)">
<path fill-rule="evenodd" clip-rule="evenodd" d="M1482.1 1394.32C1565.48 1386.93 1594.98 1283.96 1655.82 1226.46C1720.21 1165.59 1830.66 1140.42 1843.45 1052.74C1856.76 961.513 1790.77 872.417 1715.15 819.677C1648.7 773.323 1560.55 780.426 1482.1 800.693C1422.06 816.203 1386.25 869.314 1344.73 915.371C1306.65 957.616 1266.24 997.003 1254.9 1052.74C1240.5 1123.52 1234.57 1200.11 1274.57 1260.26C1321.98 1331.54 1396.82 1401.89 1482.1 1394.32Z" fill="url(#paint2_linear_980_3507)"/>
</g>
<g filter="url(#filter3_f_980_3507)">
<path fill-rule="evenodd" clip-rule="evenodd" d="M603.935 870.856C774.822 865.234 836.391 665.92 885.133 502.204C928.564 356.324 958.563 182.256 835.765 92.1733C711.767 1.21002 547.824 72.3444 424.62 164.378C308.029 251.472 223.518 381.823 259.299 522.795C303.687 697.679 423.43 876.795 603.935 870.856Z" fill="url(#paint3_linear_980_3507)"/>
</g>
<g filter="url(#filter4_f_980_3507)">
<path fill-rule="evenodd" clip-rule="evenodd" d="M578.935 660.856C749.822 655.234 811.391 455.92 860.133 292.204C903.564 146.324 933.563 -27.7436 810.765 -117.827C686.767 -208.79 522.824 -137.656 399.62 -45.6218C283.029 41.4718 198.518 171.823 234.299 312.795C278.687 487.679 398.43 666.795 578.935 660.856Z" fill="url(#paint4_linear_980_3507)"/>
</g>
<g filter="url(#filter5_f_980_3507)">
<path fill-rule="evenodd" clip-rule="evenodd" d="M429.145 1173.4C482.031 1180.71 532.673 1208.53 584.483 1195.64C645.535 1180.45 723.497 1156.65 740.267 1096.01C757.737 1032.85 658.548 986.17 660.535 920.663C663.26 830.827 809.433 743.261 753.091 673.234C697.86 604.587 586.113 724.245 498.17 718.859C439.075 715.24 391.903 620.756 339.282 647.889C282.129 677.359 320.724 775.529 284.816 828.872C255.892 871.84 189.715 873.164 159.376 915.146C116.635 974.288 42.2202 1050.79 78.8189 1113.92C117.101 1179.95 223.889 1143.44 299.14 1156.22C343.126 1163.69 384.949 1167.3 429.145 1173.4Z" fill="url(#paint5_linear_980_3507)"/>
</g>
<g filter="url(#filter6_f_980_3507)">
<path fill-rule="evenodd" clip-rule="evenodd" d="M637.145 1173.4C690.031 1180.71 740.673 1208.53 792.483 1195.64C853.535 1180.45 931.497 1156.65 948.267 1096.01C965.737 1032.85 866.548 986.17 868.535 920.663C871.26 830.827 1017.43 743.261 961.091 673.234C905.86 604.587 794.113 724.245 706.17 718.859C647.075 715.24 599.903 620.756 547.282 647.889C490.129 677.359 528.724 775.529 492.816 828.872C463.892 871.84 397.715 873.164 367.376 915.146C324.635 974.288 250.22 1050.79 286.819 1113.92C325.101 1179.95 431.889 1143.44 507.14 1156.22C551.126 1163.69 592.949 1167.3 637.145 1173.4Z" fill="url(#paint6_linear_980_3507)"/>
</g>
<g filter="url(#filter7_f_980_3507)">
<path fill-rule="evenodd" clip-rule="evenodd" d="M1375.08 794.597C1440.29 790.347 1516 884.932 1562.05 838.539C1613.5 786.698 1539.14 697.447 1543.89 624.528C1546.42 585.825 1569.26 553.723 1582.99 517.453C1612.13 440.484 1699.73 368.401 1669.89 291.703C1643.84 224.75 1537.22 249.42 1469.46 225.673C1396.96 200.261 1332.96 131.819 1257.69 147.236C1182.23 162.694 1128.92 234.554 1093.05 302.777C1061.07 363.602 1043.08 440.441 1070.35 503.52C1096.4 563.753 1210.14 551.464 1227.91 614.639C1251.47 698.34 1116.76 796.687 1171.79 863.978C1218.07 920.576 1302.16 799.351 1375.08 794.597Z" fill="url(#paint7_linear_980_3507)"/>
</g>
<g filter="url(#filter8_f_980_3507)">
<path fill-rule="evenodd" clip-rule="evenodd" d="M1524.08 794.597C1589.29 790.347 1665 884.932 1711.05 838.539C1762.5 786.698 1688.14 697.447 1692.89 624.528C1695.42 585.825 1718.26 553.723 1731.99 517.453C1761.13 440.484 1848.73 368.401 1818.89 291.703C1792.84 224.75 1686.22 249.42 1618.46 225.673C1545.96 200.261 1481.96 131.819 1406.69 147.236C1331.23 162.694 1277.92 234.554 1242.05 302.777C1210.07 363.602 1192.08 440.441 1219.35 503.52C1245.4 563.753 1359.14 551.464 1376.91 614.639C1400.47 698.34 1265.76 796.687 1320.79 863.978C1367.07 920.576 1451.16 799.351 1524.08 794.597Z" fill="url(#paint8_linear_980_3507)"/>
</g>
<g filter="url(#filter9_f_980_3507)">
<path fill-rule="evenodd" clip-rule="evenodd" d="M1605.08 815.597C1670.29 811.347 1746 905.932 1792.05 859.539C1843.5 807.698 1769.14 718.447 1773.89 645.528C1776.42 606.825 1799.26 574.723 1812.99 538.453C1842.13 461.484 1929.73 389.401 1899.89 312.703C1873.84 245.75 1767.22 270.42 1699.46 246.673C1626.96 221.261 1562.96 152.819 1487.69 168.236C1412.23 183.694 1358.92 255.554 1323.05 323.777C1291.07 384.602 1273.08 461.441 1300.35 524.52C1326.4 584.753 1440.14 572.464 1457.91 635.639C1481.47 719.34 1346.76 817.687 1401.79 884.978C1448.07 941.576 1532.16 820.351 1605.08 815.597Z" fill="url(#paint9_linear_980_3507)"/>
</g>
<g filter="url(#filter10_f_980_3507)">
<path fill-rule="evenodd" clip-rule="evenodd" d="M1502.08 576.597C1567.29 572.347 1643 666.932 1689.05 620.539C1740.5 568.698 1666.14 479.447 1670.89 406.528C1673.42 367.825 1696.26 335.723 1709.99 299.453C1739.13 222.484 1826.73 150.401 1796.89 73.7026C1770.84 6.74951 1664.22 31.4202 1596.46 7.6734C1523.96 -17.7389 1459.96 -86.1807 1384.69 -70.7637C1309.23 -55.3056 1255.92 16.5537 1220.05 84.7775C1188.07 145.602 1170.08 222.441 1197.35 285.52C1223.4 345.753 1337.14 333.464 1354.91 396.639C1378.47 480.34 1243.76 578.687 1298.79 645.978C1345.07 702.576 1429.16 581.351 1502.08 576.597Z" fill="url(#paint10_linear_980_3507)"/>
</g>
<g filter="url(#filter11_f_980_3507)">
<path fill-rule="evenodd" clip-rule="evenodd" d="M882.33 1295.6C946.896 1311.28 1008.21 1246.91 1049.72 1195.05C1085.78 1149.98 1083.34 1088.01 1093.87 1031.27C1101.85 988.185 1101.35 946.612 1103.9 902.868C1107.19 846.353 1124.28 791.669 1111.04 736.628C1090.93 653.049 1078.71 555.17 1008.34 505.755C936.022 454.973 829.543 445.186 749.579 482.815C670.604 519.979 655.748 623.654 605.78 695.192C562.265 757.492 482.353 800.541 474.842 876.15C467.361 951.467 510.641 1028.58 567.722 1078.32C618.489 1122.55 704.742 1086.47 760.149 1124.74C818.963 1165.36 812.862 1278.73 882.33 1295.6Z" fill="url(#paint11_linear_980_3507)" fill-opacity="0.9"/>
</g>
<g filter="url(#filter12_f_980_3507)">
<path fill-rule="evenodd" clip-rule="evenodd" d="M92.8251 1225.34C184.2 1166.38 93.1895 981.241 181.824 918.231C263.586 860.106 389.354 1007.17 474.444 954.045C541.825 911.975 543.776 785.656 496.841 721.549C444.53 650.101 324.99 688.993 248.169 644.989C206.809 621.298 198.669 566.1 165.568 531.793C102.915 466.856 42.5259 303.699 -31.8797 354.731C-120.063 415.213 -22.5717 562.849 -34.6721 669.132C-38.3709 701.62 -68.5368 723.719 -77.4702 755.171C-87.5676 790.722 -85.2014 826.426 -89.7651 863.101C-100.41 948.645 -160.967 1037.42 -122.17 1114.39C-85.1085 1187.92 23.6593 1269.97 92.8251 1225.34Z" fill="url(#paint12_linear_980_3507)"/>
</g>
<g filter="url(#filter13_f_980_3507)">
<path fill-rule="evenodd" clip-rule="evenodd" d="M237.005 593.844C317.843 605.149 397.911 531.543 435.542 459.055C470.707 391.315 395.337 306.05 423.281 235.021C448.63 170.588 555.961 167.212 576.387 101.051C597.336 33.1932 590.375 -69.324 527.279 -101.835C454.62 -139.273 374.88 -56.2986 294.02 -44.4418C254.966 -38.7152 217.059 -43.8813 178.17 -50.6443C97.0251 -64.7559 4.76558 -159.427 -57.6002 -105.591C-115.303 -55.7798 0.711472 38.8771 -12.5346 113.979C-26.5593 193.495 -154.546 241.081 -132.441 318.737C-111.716 391.547 10.4964 362.91 71.1871 408.103C139.12 458.69 153.144 582.117 237.005 593.844Z" fill="url(#paint13_linear_980_3507)" fill-opacity="0.9"/>
</g>
<g filter="url(#filter14_f_980_3507)">
<path fill-rule="evenodd" clip-rule="evenodd" d="M212.005 502.844C292.843 514.149 372.911 440.543 410.542 368.055C445.707 300.315 370.337 215.05 398.281 144.021C423.63 79.5879 530.961 76.212 551.387 10.0511C572.336 -57.8068 565.375 -160.324 502.279 -192.835C429.62 -230.273 349.88 -147.299 269.02 -135.442C229.966 -129.715 192.059 -134.881 153.17 -141.644C72.0251 -155.756 -20.2344 -250.427 -82.6002 -196.591C-140.303 -146.78 -24.2885 -52.1229 -37.5346 22.9785C-51.5593 102.495 -179.546 150.081 -157.441 227.737C-136.716 300.547 -14.5036 271.91 46.1871 317.103C114.12 367.69 128.144 491.117 212.005 502.844Z" fill="url(#paint14_linear_980_3507)" fill-opacity="0.9"/>
</g>
<g filter="url(#filter15_f_980_3507)">
<path fill-rule="evenodd" clip-rule="evenodd" d="M790.005 502.844C870.843 514.149 950.911 440.543 988.542 368.055C1023.71 300.315 948.337 215.05 976.281 144.021C1001.63 79.5879 1108.96 76.212 1129.39 10.0511C1150.34 -57.8068 1143.37 -160.324 1080.28 -192.835C1007.62 -230.273 927.88 -147.299 847.02 -135.442C807.966 -129.715 770.059 -134.881 731.17 -141.644C650.025 -155.756 557.766 -250.427 495.4 -196.591C437.697 -146.78 553.711 -52.1229 540.465 22.9785C526.441 102.495 398.454 150.081 420.559 227.737C441.284 300.547 563.496 271.91 624.187 317.103C692.12 367.69 706.144 491.117 790.005 502.844Z" fill="url(#paint15_linear_980_3507)" fill-opacity="0.9"/>
</g>
<g filter="url(#filter16_f_980_3507)">
<path fill-rule="evenodd" clip-rule="evenodd" d="M1056.82 561.091C1119.57 541.396 1095.97 429.093 1150.14 391.817C1201.29 356.627 1293.38 421.034 1331.55 372.073C1365.93 327.963 1297.65 268.49 1289.42 213.169C1281.25 158.255 1327.22 84.4693 1283.62 50.0889C1236.53 12.9497 1163.76 93.892 1108.53 70.5096C1040.33 41.6317 1031.55 -73.9103 958.731 -87.4644C891.753 -99.9315 826.55 -43.0095 783.845 10.0736C741.763 62.3827 702.709 137.147 728.004 199.334C755.383 266.644 865.746 255.397 907.75 314.692C937.399 356.546 889.793 421.32 916.344 465.205C946.298 514.716 1001.61 578.422 1056.82 561.091Z" fill="url(#paint16_linear_980_3507)"/>
</g>
<g filter="url(#filter17_f_980_3507)">
<path fill-rule="evenodd" clip-rule="evenodd" d="M1183.82 490.293C1246.57 470.598 1222.97 358.295 1277.14 321.019C1328.29 285.829 1420.38 350.235 1458.55 301.274C1492.93 257.165 1424.65 197.692 1416.42 142.371C1408.25 87.457 1454.22 13.6709 1410.62 -20.7095C1363.53 -57.8486 1290.76 23.0937 1235.53 -0.288788C1167.33 -29.1667 1158.55 -144.709 1085.73 -158.263C1018.75 -170.73 953.55 -113.808 910.845 -60.7247C868.763 -8.41565 829.709 66.3483 855.004 128.536C882.383 195.846 992.746 184.599 1034.75 243.894C1064.4 285.748 1016.79 350.522 1043.34 394.406C1073.3 443.917 1128.61 507.623 1183.82 490.293Z" fill="url(#paint17_linear_980_3507)"/>
</g>
<g filter="url(#filter18_f_980_3507)">
<path fill-rule="evenodd" clip-rule="evenodd" d="M1556 510.844C1636.84 522.149 1716.91 448.543 1754.54 376.055C1789.71 308.315 1714.34 223.05 1742.28 152.021C1767.63 87.5879 1874.96 84.212 1895.39 18.0511C1916.34 -49.8068 1909.37 -152.324 1846.28 -184.835C1773.62 -222.273 1693.88 -139.299 1613.02 -127.442C1573.97 -121.715 1536.06 -126.881 1497.17 -133.644C1416.03 -147.756 1323.77 -242.427 1261.4 -188.591C1203.7 -138.78 1319.71 -44.1229 1306.47 30.9785C1292.44 110.495 1164.45 158.081 1186.56 235.737C1207.28 308.547 1329.5 279.91 1390.19 325.103C1458.12 375.69 1472.14 499.117 1556 510.844Z" fill="url(#paint18_linear_980_3507)" fill-opacity="0.9"/>
</g>
<g filter="url(#filter19_f_980_3507)">
<path fill-rule="evenodd" clip-rule="evenodd" d="M1391 491.844C1471.84 503.149 1551.91 429.543 1589.54 357.055C1624.71 289.315 1549.34 204.05 1577.28 133.021C1602.63 68.5879 1709.96 65.212 1730.39 -0.948883C1751.34 -68.8068 1744.37 -171.324 1681.28 -203.835C1608.62 -241.273 1528.88 -158.299 1448.02 -146.442C1408.97 -140.715 1371.06 -145.881 1332.17 -152.644C1251.03 -166.756 1158.77 -261.427 1096.4 -207.591C1038.7 -157.78 1154.71 -63.1229 1141.47 11.9785C1127.44 91.495 999.454 139.081 1021.56 216.737C1042.28 289.547 1164.5 260.91 1225.19 306.103C1293.12 356.69 1307.14 480.117 1391 491.844Z" fill="url(#paint19_linear_980_3507)" fill-opacity="0.9"/>
</g>
<g filter="url(#filter20_f_980_3507)">
<path fill-rule="evenodd" clip-rule="evenodd" d="M189.825 1074.34C281.2 1015.38 190.189 830.241 278.824 767.231C360.586 709.106 486.354 856.171 571.444 803.045C638.825 760.975 640.776 634.656 593.841 570.549C541.53 499.101 421.99 537.993 345.169 493.989C303.809 470.298 295.669 415.1 262.568 380.793C199.915 315.856 139.526 152.699 65.1203 203.731C-23.0626 264.213 74.4283 411.849 62.3279 518.132C58.6291 550.62 28.4632 572.719 19.5298 604.171C9.43243 639.722 11.7986 675.426 7.23492 712.101C-3.40971 797.645 -63.9672 886.423 -25.17 963.392C11.8915 1036.92 120.659 1118.97 189.825 1074.34Z" fill="url(#paint20_linear_980_3507)"/>
</g>
<g filter="url(#filter21_f_980_3507)">
<path fill-rule="evenodd" clip-rule="evenodd" d="M1102.08 889.597C1167.29 885.347 1243 979.932 1289.05 933.539C1340.5 881.698 1266.14 792.447 1270.89 719.528C1273.42 680.825 1296.26 648.723 1309.99 612.453C1339.13 535.484 1426.73 463.401 1396.89 386.703C1370.84 319.75 1264.22 344.42 1196.46 320.673C1123.96 295.261 1059.96 226.819 984.694 242.236C909.23 257.694 855.923 329.554 820.05 397.777C788.067 458.602 770.076 535.441 797.354 598.52C823.401 658.753 937.135 646.464 954.913 709.639C978.466 793.34 843.756 891.687 898.786 958.978C945.073 1015.58 1029.16 894.351 1102.08 889.597Z" fill="url(#paint21_linear_980_3507)"/>
</g>
<g clip-path="url(#clip1_980_3507)">
<g filter="url(#filter22_f_980_3507)">
<path fill-rule="evenodd" clip-rule="evenodd" d="M603.935 503.856C774.822 498.234 836.391 298.92 885.132 135.204C928.564 -10.6762 958.563 -184.744 835.765 -274.827C711.767 -365.79 547.824 -294.656 424.62 -202.622C308.029 -115.528 223.518 14.8234 259.299 155.795C303.687 330.679 423.43 509.795 603.935 503.856Z" fill="url(#paint22_linear_980_3507)"/>
</g>
<g filter="url(#filter23_f_980_3507)">
<path fill-rule="evenodd" clip-rule="evenodd" d="M1458.08 375.597C1523.29 371.347 1599 465.932 1645.05 419.539C1696.5 367.698 1622.14 278.447 1626.89 205.528C1629.42 166.825 1652.26 134.723 1665.99 98.453C1695.13 21.4837 1782.73 -50.5987 1752.89 -127.297C1726.84 -194.251 1620.22 -169.58 1552.46 -193.327C1479.96 -218.739 1415.96 -287.181 1340.69 -271.764C1265.23 -256.306 1211.92 -184.446 1176.05 -116.223C1144.07 -55.3982 1126.08 21.4411 1153.35 84.5196C1179.4 144.753 1293.14 132.464 1310.91 195.639C1334.47 279.34 1199.76 377.687 1254.79 444.978C1301.07 501.576 1385.16 380.351 1458.08 375.597Z" fill="url(#paint23_linear_980_3507)"/>
</g>
<g filter="url(#filter24_f_980_3507)">
<path fill-rule="evenodd" clip-rule="evenodd" d="M1737.08 576.597C1802.29 572.347 1878 666.932 1924.05 620.539C1975.5 568.698 1901.14 479.447 1905.89 406.528C1908.42 367.825 1931.26 335.723 1944.99 299.453C1974.13 222.484 2061.73 150.401 2031.89 73.7026C2005.84 6.74948 1899.22 31.4202 1831.46 7.67339C1758.96 -17.7389 1694.96 -86.1807 1619.69 -70.7637C1544.23 -55.3056 1490.92 16.5537 1455.05 84.7774C1423.07 145.602 1405.08 222.441 1432.35 285.52C1458.4 345.753 1572.14 333.464 1589.91 396.639C1613.47 480.34 1478.76 578.687 1533.79 645.978C1580.07 702.576 1664.16 581.351 1737.08 576.597Z" fill="url(#paint24_linear_980_3507)"/>
</g>
<g filter="url(#filter25_f_980_3507)">
<path fill-rule="evenodd" clip-rule="evenodd" d="M1519.08 461.597C1584.29 457.347 1660 551.932 1706.05 505.539C1757.5 453.698 1683.14 364.447 1687.89 291.528C1690.42 252.825 1713.26 220.723 1726.99 184.453C1756.13 107.484 1843.73 35.4013 1813.89 -41.2974C1787.84 -108.251 1681.22 -83.5798 1613.46 -107.327C1540.96 -132.739 1476.96 -201.181 1401.69 -185.764C1326.23 -170.306 1272.92 -98.4463 1237.05 -30.2226C1205.07 30.6018 1187.08 107.441 1214.35 170.52C1240.4 230.753 1354.14 218.464 1371.91 281.639C1395.47 365.34 1260.76 463.687 1315.79 530.978C1362.07 587.576 1446.16 466.351 1519.08 461.597Z" fill="url(#paint25_linear_980_3507)"/>
</g>
<g filter="url(#filter26_f_980_3507)">
<path fill-rule="evenodd" clip-rule="evenodd" d="M237.005 593.844C317.843 605.149 397.911 531.543 435.542 459.055C470.707 391.316 395.337 306.05 423.281 235.021C448.63 170.588 555.961 167.212 576.387 101.051C597.336 33.1933 590.375 -69.3239 527.279 -101.835C454.62 -139.273 374.88 -56.2985 294.02 -44.4418C254.966 -38.7151 217.058 -43.8813 178.17 -50.6443C97.0251 -64.7559 4.76555 -159.427 -57.6002 -105.591C-115.303 -55.7797 0.711459 38.8772 -12.5346 113.979C-26.5593 193.495 -154.546 241.081 -132.441 318.737C-111.716 391.547 10.4964 362.91 71.1871 408.103C139.12 458.69 153.144 582.117 237.005 593.844Z" fill="url(#paint26_linear_980_3507)" fill-opacity="0.9"/>
</g>
<g filter="url(#filter27_f_980_3507)">
<path fill-rule="evenodd" clip-rule="evenodd" d="M790.005 502.844C870.843 514.149 950.911 440.543 988.542 368.055C1023.71 300.315 948.337 215.05 976.281 144.021C1001.63 79.5879 1108.96 76.212 1129.39 10.0511C1150.34 -57.8067 1143.37 -160.324 1080.28 -192.835C1007.62 -230.273 927.88 -147.299 847.02 -135.442C807.966 -129.715 770.059 -134.881 731.17 -141.644C650.025 -155.756 557.766 -250.427 495.4 -196.591C437.697 -146.78 553.711 -52.1229 540.465 22.9785C526.441 102.495 398.454 150.081 420.559 227.737C441.284 300.547 563.496 271.91 624.187 317.103C692.12 367.69 706.144 491.117 790.005 502.844Z" fill="url(#paint27_linear_980_3507)" fill-opacity="0.9"/>
</g>
<g filter="url(#filter28_f_980_3507)">
<path fill-rule="evenodd" clip-rule="evenodd" d="M1056.82 561.091C1119.57 541.396 1095.97 429.093 1150.14 391.817C1201.29 356.627 1293.38 421.034 1331.55 372.073C1365.93 327.963 1297.65 268.49 1289.42 213.169C1281.25 158.255 1327.22 84.4693 1283.62 50.0889C1236.53 12.9497 1163.76 93.892 1108.53 70.5096C1040.33 41.6317 1031.55 -73.9103 958.731 -87.4644C891.753 -99.9315 826.55 -43.0095 783.845 10.0736C741.763 62.3827 702.709 137.147 728.004 199.334C755.383 266.644 865.746 255.397 907.75 314.692C937.399 356.546 889.793 421.32 916.344 465.205C946.298 514.716 1001.61 578.422 1056.82 561.091Z" fill="url(#paint28_linear_980_3507)"/>
</g>
<g filter="url(#filter29_f_980_3507)">
<path fill-rule="evenodd" clip-rule="evenodd" d="M1556 510.844C1636.84 522.149 1716.91 448.543 1754.54 376.055C1789.71 308.315 1714.34 223.05 1742.28 152.021C1767.63 87.5879 1874.96 84.212 1895.39 18.0511C1916.34 -49.8067 1909.37 -152.324 1846.28 -184.835C1773.62 -222.273 1693.88 -139.299 1613.02 -127.442C1573.97 -121.715 1536.06 -126.881 1497.17 -133.644C1416.03 -147.756 1323.77 -242.427 1261.4 -188.591C1203.7 -138.78 1319.71 -44.1229 1306.47 30.9785C1292.44 110.495 1164.45 158.081 1186.56 235.737C1207.28 308.547 1329.5 279.91 1390.19 325.103C1458.12 375.69 1472.14 499.117 1556 510.844Z" fill="url(#paint29_linear_980_3507)" fill-opacity="0.9"/>
</g>
</g>
<g clip-path="url(#clip2_980_3507)">
<g filter="url(#filter30_f_980_3507)">
<path fill-rule="evenodd" clip-rule="evenodd" d="M598.145 317.403C651.031 324.709 701.673 352.526 753.483 339.639C814.535 324.453 892.497 300.651 909.267 240.015C926.737 176.85 827.548 130.17 829.535 64.6635C832.26 -25.1734 978.433 -112.739 922.091 -182.766C866.86 -251.413 755.113 -131.755 667.17 -137.141C608.075 -140.76 560.903 -235.244 508.282 -208.111C451.129 -178.641 489.724 -80.4708 453.816 -27.1281C424.892 15.8405 358.715 17.1638 328.376 59.1455C285.635 118.288 211.22 194.79 247.819 257.919C286.101 323.951 392.889 287.444 468.14 300.222C512.126 307.69 553.949 311.298 598.145 317.403Z" fill="url(#paint30_linear_980_3507)"/>
</g>
<g filter="url(#filter31_f_980_3507)">
<path fill-rule="evenodd" clip-rule="evenodd" d="M1410.08 483.597C1475.29 479.347 1551 573.932 1597.05 527.539C1648.5 475.698 1574.14 386.447 1578.89 313.528C1581.42 274.825 1604.26 242.723 1617.99 206.453C1647.13 129.484 1734.73 57.4013 1704.89 -19.2974C1678.84 -86.2505 1572.22 -61.5798 1504.46 -85.3266C1431.96 -110.739 1367.96 -179.181 1292.69 -163.764C1217.23 -148.306 1163.92 -76.4463 1128.05 -8.22253C1096.07 52.6019 1078.08 129.441 1105.35 192.52C1131.4 252.753 1245.14 240.464 1262.91 303.639C1286.47 387.34 1151.76 485.687 1206.79 552.978C1253.07 609.576 1337.16 488.351 1410.08 483.597Z" fill="url(#paint31_linear_980_3507)"/>
</g>
<g filter="url(#filter32_f_980_3507)">
<path fill-rule="evenodd" clip-rule="evenodd" d="M1719.08 444.597C1784.29 440.347 1860 534.932 1906.05 488.539C1957.5 436.698 1883.14 347.447 1887.89 274.528C1890.42 235.825 1913.26 203.723 1926.99 167.453C1956.13 90.4837 2043.73 18.4013 2013.89 -58.2974C1987.84 -125.251 1881.22 -100.58 1813.46 -124.327C1740.96 -149.739 1676.96 -218.181 1601.69 -202.764C1526.23 -187.306 1472.92 -115.446 1437.05 -47.2226C1405.07 13.6018 1387.08 90.4411 1414.35 153.52C1440.4 213.753 1554.14 201.464 1571.91 264.639C1595.47 348.34 1460.76 446.687 1515.79 513.978C1562.07 570.576 1646.16 449.351 1719.08 444.597Z" fill="url(#paint32_linear_980_3507)"/>
</g>
<g filter="url(#filter33_f_980_3507)">
<path fill-rule="evenodd" clip-rule="evenodd" d="M1537.08 395.597C1602.29 391.347 1678 485.932 1724.05 439.539C1775.5 387.698 1701.14 298.447 1705.89 225.528C1708.42 186.825 1731.26 154.723 1744.99 118.453C1774.13 41.4837 1861.73 -30.5987 1831.89 -107.297C1805.84 -174.251 1699.22 -149.58 1631.46 -173.327C1558.96 -198.739 1494.96 -267.181 1419.69 -251.764C1344.23 -236.306 1290.92 -164.446 1255.05 -96.2226C1223.07 -35.3982 1205.08 41.4411 1232.35 104.52C1258.4 164.753 1372.14 152.464 1389.91 215.639C1413.47 299.34 1278.76 397.687 1333.79 464.978C1380.07 521.576 1464.16 400.351 1537.08 395.597Z" fill="url(#paint33_linear_980_3507)"/>
</g>
<g filter="url(#filter34_f_980_3507)">
<path fill-rule="evenodd" clip-rule="evenodd" d="M11.0304 714.339C105.295 655.376 11.4063 470.241 102.844 407.231C187.192 349.106 316.937 496.171 404.719 443.045C474.231 400.975 476.244 274.656 427.824 210.549C373.859 139.101 250.538 177.993 171.288 133.989C128.62 110.298 120.221 55.1004 86.0742 20.7934C21.4394 -44.1439 -40.8595 -207.301 -117.618 -156.269C-208.59 -95.7868 -108.016 51.8485 -120.499 158.132C-124.315 190.62 -155.435 212.719 -164.651 244.171C-175.067 279.722 -172.626 315.426 -177.334 352.101C-188.316 437.645 -250.788 526.423 -210.764 603.392C-172.531 676.917 -60.3229 758.97 11.0304 714.339Z" fill="url(#paint34_linear_980_3507)"/>
</g>
<g filter="url(#filter35_f_980_3507)">
<path fill-rule="evenodd" clip-rule="evenodd" d="M237.005 593.844C317.843 605.149 397.911 531.543 435.542 459.055C470.707 391.316 395.337 306.05 423.281 235.021C448.63 170.588 555.961 167.212 576.387 101.051C597.336 33.1933 590.375 -69.3239 527.279 -101.835C454.62 -139.273 374.88 -56.2985 294.02 -44.4418C254.966 -38.7151 217.058 -43.8813 178.17 -50.6443C97.0251 -64.7559 4.76555 -159.427 -57.6002 -105.591C-115.303 -55.7797 0.711459 38.8772 -12.5346 113.979C-26.5593 193.495 -154.546 241.081 -132.441 318.737C-111.716 391.547 10.4964 362.91 71.1871 408.103C139.12 458.69 153.144 582.117 237.005 593.844Z" fill="url(#paint35_linear_980_3507)" fill-opacity="0.9"/>
</g>
<g filter="url(#filter36_f_980_3507)">
<path fill-rule="evenodd" clip-rule="evenodd" d="M790.005 502.844C870.843 514.149 950.911 440.543 988.542 368.055C1023.71 300.315 948.337 215.05 976.281 144.021C1001.63 79.5879 1108.96 76.212 1129.39 10.0511C1150.34 -57.8067 1143.37 -160.324 1080.28 -192.835C1007.62 -230.273 927.88 -147.299 847.02 -135.442C807.966 -129.715 770.059 -134.881 731.17 -141.644C650.025 -155.756 557.766 -250.427 495.4 -196.591C437.697 -146.78 553.711 -52.1229 540.465 22.9785C526.441 102.495 398.454 150.081 420.559 227.737C441.284 300.547 563.496 271.91 624.187 317.103C692.12 367.69 706.144 491.117 790.005 502.844Z" fill="url(#paint36_linear_980_3507)" fill-opacity="0.9"/>
</g>
<g filter="url(#filter37_f_980_3507)">
<path fill-rule="evenodd" clip-rule="evenodd" d="M1056.82 561.091C1119.57 541.396 1095.97 429.093 1150.14 391.817C1201.29 356.627 1293.38 421.034 1331.55 372.073C1365.93 327.963 1297.65 268.49 1289.42 213.169C1281.25 158.255 1327.22 84.4693 1283.62 50.0889C1236.53 12.9497 1163.76 93.892 1108.53 70.5096C1040.33 41.6317 1031.55 -73.9103 958.731 -87.4644C891.753 -99.9315 826.55 -43.0095 783.845 10.0736C741.763 62.3827 702.709 137.147 728.004 199.334C755.383 266.644 865.746 255.397 907.75 314.692C937.399 356.546 889.793 421.32 916.344 465.205C946.298 514.716 1001.61 578.422 1056.82 561.091Z" fill="url(#paint37_linear_980_3507)"/>
</g>
<g filter="url(#filter38_f_980_3507)">
<path fill-rule="evenodd" clip-rule="evenodd" d="M1556 510.844C1636.84 522.149 1716.91 448.543 1754.54 376.055C1789.71 308.315 1714.34 223.05 1742.28 152.021C1767.63 87.5879 1874.96 84.212 1895.39 18.0511C1916.34 -49.8067 1909.37 -152.324 1846.28 -184.835C1773.62 -222.273 1693.88 -139.299 1613.02 -127.442C1573.97 -121.715 1536.06 -126.881 1497.17 -133.644C1416.03 -147.756 1323.77 -242.427 1261.4 -188.591C1203.7 -138.78 1319.71 -44.1229 1306.47 30.9785C1292.44 110.495 1164.45 158.081 1186.56 235.737C1207.28 308.547 1329.5 279.91 1390.19 325.103C1458.12 375.69 1472.14 499.117 1556 510.844Z" fill="url(#paint38_linear_980_3507)" fill-opacity="0.9"/>
</g>
</g>
</g>
<defs>
<filter id="filter0_f_980_3507" x="751" y="435.116" width="1017.17" height="1025.88" filterUnits="userSpaceOnUse" color-interpolation-filters="sRGB">
<feFlood flood-opacity="0" result="BackgroundImageFix"/>
<feBlend mode="normal" in="SourceGraphic" in2="BackgroundImageFix" result="shape"/>
<feGaussianBlur stdDeviation="104" result="effect1_foregroundBlur_980_3507"/>
</filter>
<filter id="filter1_f_980_3507" x="950" y="496.116" width="1017.17" height="1025.88" filterUnits="userSpaceOnUse" color-interpolation-filters="sRGB">
<feFlood flood-opacity="0" result="BackgroundImageFix"/>
<feBlend mode="normal" in="SourceGraphic" in2="BackgroundImageFix" result="shape"/>
<feGaussianBlur stdDeviation="104" result="effect1_foregroundBlur_980_3507"/>
</filter>
<filter id="filter2_f_980_3507" x="1036" y="577" width="1017.17" height="1025.88" filterUnits="userSpaceOnUse" color-interpolation-filters="sRGB">
<feFlood flood-opacity="0" result="BackgroundImageFix"/>
<feBlend mode="normal" in="SourceGraphic" in2="BackgroundImageFix" result="shape"/>
<feGaussianBlur stdDeviation="104" result="effect1_foregroundBlur_980_3507"/>
</filter>
<filter id="filter3_f_980_3507" x="195" y="-6" width="784" height="933" filterUnits="userSpaceOnUse" color-interpolation-filters="sRGB">
<feFlood flood-opacity="0" result="BackgroundImageFix"/>
<feBlend mode="normal" in="SourceGraphic" in2="BackgroundImageFix" result="shape"/>
<feGaussianBlur stdDeviation="28" result="effect1_foregroundBlur_980_3507"/>
</filter>
<filter id="filter4_f_980_3507" x="170" y="-216" width="784" height="933" filterUnits="userSpaceOnUse" color-interpolation-filters="sRGB">
<feFlood flood-opacity="0" result="BackgroundImageFix"/>
<feBlend mode="normal" in="SourceGraphic" in2="BackgroundImageFix" result="shape"/>
<feGaussianBlur stdDeviation="28" result="effect1_foregroundBlur_980_3507"/>
</filter>
<filter id="filter5_f_980_3507" x="13" y="587" width="809" height="668" filterUnits="userSpaceOnUse" color-interpolation-filters="sRGB">
<feFlood flood-opacity="0" result="BackgroundImageFix"/>
<feBlend mode="normal" in="SourceGraphic" in2="BackgroundImageFix" result="shape"/>
<feGaussianBlur stdDeviation="28" result="effect1_foregroundBlur_980_3507"/>
</filter>
<filter id="filter6_f_980_3507" x="221" y="587" width="809" height="668" filterUnits="userSpaceOnUse" color-interpolation-filters="sRGB">
<feFlood flood-opacity="0" result="BackgroundImageFix"/>
<feBlend mode="normal" in="SourceGraphic" in2="BackgroundImageFix" result="shape"/>
<feGaussianBlur stdDeviation="28" result="effect1_foregroundBlur_980_3507"/>
</filter>
<filter id="filter7_f_980_3507" x="925" y="13" width="883" height="998" filterUnits="userSpaceOnUse" color-interpolation-filters="sRGB">
<feFlood flood-opacity="0" result="BackgroundImageFix"/>
<feBlend mode="normal" in="SourceGraphic" in2="BackgroundImageFix" result="shape"/>
<feGaussianBlur stdDeviation="66" result="effect1_foregroundBlur_980_3507"/>
</filter>
<filter id="filter8_f_980_3507" x="1074" y="13" width="883" height="998" filterUnits="userSpaceOnUse" color-interpolation-filters="sRGB">
<feFlood flood-opacity="0" result="BackgroundImageFix"/>
<feBlend mode="normal" in="SourceGraphic" in2="BackgroundImageFix" result="shape"/>
<feGaussianBlur stdDeviation="66" result="effect1_foregroundBlur_980_3507"/>
</filter>
<filter id="filter9_f_980_3507" x="1155" y="34" width="883" height="998" filterUnits="userSpaceOnUse" color-interpolation-filters="sRGB">
<feFlood flood-opacity="0" result="BackgroundImageFix"/>
<feBlend mode="normal" in="SourceGraphic" in2="BackgroundImageFix" result="shape"/>
<feGaussianBlur stdDeviation="66" result="effect1_foregroundBlur_980_3507"/>
</filter>
<filter id="filter10_f_980_3507" x="1052" y="-205" width="883" height="998" filterUnits="userSpaceOnUse" color-interpolation-filters="sRGB">
<feFlood flood-opacity="0" result="BackgroundImageFix"/>
<feBlend mode="normal" in="SourceGraphic" in2="BackgroundImageFix" result="shape"/>
<feGaussianBlur stdDeviation="66" result="effect1_foregroundBlur_980_3507"/>
</filter>
<filter id="filter11_f_980_3507" x="302" y="288" width="986" height="1182" filterUnits="userSpaceOnUse" color-interpolation-filters="sRGB">
<feFlood flood-opacity="0" result="BackgroundImageFix"/>
<feBlend mode="normal" in="SourceGraphic" in2="BackgroundImageFix" result="shape"/>
<feGaussianBlur stdDeviation="86" result="effect1_foregroundBlur_980_3507"/>
</filter>
<filter id="filter12_f_980_3507" x="-267" y="213" width="928" height="1157" filterUnits="userSpaceOnUse" color-interpolation-filters="sRGB">
<feFlood flood-opacity="0" result="BackgroundImageFix"/>
<feBlend mode="normal" in="SourceGraphic" in2="BackgroundImageFix" result="shape"/>
<feGaussianBlur stdDeviation="66" result="effect1_foregroundBlur_980_3507"/>
</filter>
<filter id="filter13_f_980_3507" x="-327" y="-314" width="1106" height="1101" filterUnits="userSpaceOnUse" color-interpolation-filters="sRGB">
<feFlood flood-opacity="0" result="BackgroundImageFix"/>
<feBlend mode="normal" in="SourceGraphic" in2="BackgroundImageFix" result="shape"/>
<feGaussianBlur stdDeviation="96" result="effect1_foregroundBlur_980_3507"/>
</filter>
<filter id="filter14_f_980_3507" x="-352" y="-405" width="1106" height="1101" filterUnits="userSpaceOnUse" color-interpolation-filters="sRGB">
<feFlood flood-opacity="0" result="BackgroundImageFix"/>
<feBlend mode="normal" in="SourceGraphic" in2="BackgroundImageFix" result="shape"/>
<feGaussianBlur stdDeviation="96" result="effect1_foregroundBlur_980_3507"/>
</filter>
<filter id="filter15_f_980_3507" x="226" y="-405" width="1106" height="1101" filterUnits="userSpaceOnUse" color-interpolation-filters="sRGB">
<feFlood flood-opacity="0" result="BackgroundImageFix"/>
<feBlend mode="normal" in="SourceGraphic" in2="BackgroundImageFix" result="shape"/>
<feGaussianBlur stdDeviation="96" result="effect1_foregroundBlur_980_3507"/>
</filter>
<filter id="filter16_f_980_3507" x="496" y="-313.202" width="1069.16" height="1101.2" filterUnits="userSpaceOnUse" color-interpolation-filters="sRGB">
<feFlood flood-opacity="0" result="BackgroundImageFix"/>
<feBlend mode="normal" in="SourceGraphic" in2="BackgroundImageFix" result="shape"/>
<feGaussianBlur stdDeviation="112" result="effect1_foregroundBlur_980_3507"/>
</filter>
<filter id="filter17_f_980_3507" x="623" y="-384" width="1069.16" height="1101.2" filterUnits="userSpaceOnUse" color-interpolation-filters="sRGB">
<feFlood flood-opacity="0" result="BackgroundImageFix"/>
<feBlend mode="normal" in="SourceGraphic" in2="BackgroundImageFix" result="shape"/>
<feGaussianBlur stdDeviation="112" result="effect1_foregroundBlur_980_3507"/>
</filter>
<filter id="filter18_f_980_3507" x="992" y="-397" width="1106" height="1101" filterUnits="userSpaceOnUse" color-interpolation-filters="sRGB">
<feFlood flood-opacity="0" result="BackgroundImageFix"/>
<feBlend mode="normal" in="SourceGraphic" in2="BackgroundImageFix" result="shape"/>
<feGaussianBlur stdDeviation="96" result="effect1_foregroundBlur_980_3507"/>
</filter>
<filter id="filter19_f_980_3507" x="827" y="-416" width="1106" height="1101" filterUnits="userSpaceOnUse" color-interpolation-filters="sRGB">
<feFlood flood-opacity="0" result="BackgroundImageFix"/>
<feBlend mode="normal" in="SourceGraphic" in2="BackgroundImageFix" result="shape"/>
<feGaussianBlur stdDeviation="96" result="effect1_foregroundBlur_980_3507"/>
</filter>
<filter id="filter20_f_980_3507" x="-170" y="62" width="928" height="1157" filterUnits="userSpaceOnUse" color-interpolation-filters="sRGB">
<feFlood flood-opacity="0" result="BackgroundImageFix"/>
<feBlend mode="normal" in="SourceGraphic" in2="BackgroundImageFix" result="shape"/>
<feGaussianBlur stdDeviation="66" result="effect1_foregroundBlur_980_3507"/>
</filter>
<filter id="filter21_f_980_3507" x="652" y="108" width="883" height="998" filterUnits="userSpaceOnUse" color-interpolation-filters="sRGB">
<feFlood flood-opacity="0" result="BackgroundImageFix"/>
<feBlend mode="normal" in="SourceGraphic" in2="BackgroundImageFix" result="shape"/>
<feGaussianBlur stdDeviation="66" result="effect1_foregroundBlur_980_3507"/>
</filter>
<filter id="filter22_f_980_3507" x="195" y="-373" width="784" height="933" filterUnits="userSpaceOnUse" color-interpolation-filters="sRGB">
<feFlood flood-opacity="0" result="BackgroundImageFix"/>
<feBlend mode="normal" in="SourceGraphic" in2="BackgroundImageFix" result="shape"/>
<feGaussianBlur stdDeviation="28" result="effect1_foregroundBlur_980_3507"/>
</filter>
<filter id="filter23_f_980_3507" x="1008" y="-406" width="883" height="998" filterUnits="userSpaceOnUse" color-interpolation-filters="sRGB">
<feFlood flood-opacity="0" result="BackgroundImageFix"/>
<feBlend mode="normal" in="SourceGraphic" in2="BackgroundImageFix" result="shape"/>
<feGaussianBlur stdDeviation="66" result="effect1_foregroundBlur_980_3507"/>
</filter>
<filter id="filter24_f_980_3507" x="1287" y="-205" width="883" height="998" filterUnits="userSpaceOnUse" color-interpolation-filters="sRGB">
<feFlood flood-opacity="0" result="BackgroundImageFix"/>
<feBlend mode="normal" in="SourceGraphic" in2="BackgroundImageFix" result="shape"/>
<feGaussianBlur stdDeviation="66" result="effect1_foregroundBlur_980_3507"/>
</filter>
<filter id="filter25_f_980_3507" x="1069" y="-320" width="883" height="998" filterUnits="userSpaceOnUse" color-interpolation-filters="sRGB">
<feFlood flood-opacity="0" result="BackgroundImageFix"/>
<feBlend mode="normal" in="SourceGraphic" in2="BackgroundImageFix" result="shape"/>
<feGaussianBlur stdDeviation="66" result="effect1_foregroundBlur_980_3507"/>
</filter>
<filter id="filter26_f_980_3507" x="-327" y="-314" width="1106" height="1101" filterUnits="userSpaceOnUse" color-interpolation-filters="sRGB">
<feFlood flood-opacity="0" result="BackgroundImageFix"/>
<feBlend mode="normal" in="SourceGraphic" in2="BackgroundImageFix" result="shape"/>
<feGaussianBlur stdDeviation="96" result="effect1_foregroundBlur_980_3507"/>
</filter>
<filter id="filter27_f_980_3507" x="226" y="-405" width="1106" height="1101" filterUnits="userSpaceOnUse" color-interpolation-filters="sRGB">
<feFlood flood-opacity="0" result="BackgroundImageFix"/>
<feBlend mode="normal" in="SourceGraphic" in2="BackgroundImageFix" result="shape"/>
<feGaussianBlur stdDeviation="96" result="effect1_foregroundBlur_980_3507"/>
</filter>
<filter id="filter28_f_980_3507" x="496" y="-313.202" width="1069.16" height="1101.2" filterUnits="userSpaceOnUse" color-interpolation-filters="sRGB">
<feFlood flood-opacity="0" result="BackgroundImageFix"/>
<feBlend mode="normal" in="SourceGraphic" in2="BackgroundImageFix" result="shape"/>
<feGaussianBlur stdDeviation="112" result="effect1_foregroundBlur_980_3507"/>
</filter>
<filter id="filter29_f_980_3507" x="992" y="-397" width="1106" height="1101" filterUnits="userSpaceOnUse" color-interpolation-filters="sRGB">
<feFlood flood-opacity="0" result="BackgroundImageFix"/>
<feBlend mode="normal" in="SourceGraphic" in2="BackgroundImageFix" result="shape"/>
<feGaussianBlur stdDeviation="96" result="effect1_foregroundBlur_980_3507"/>
</filter>
<filter id="filter30_f_980_3507" x="182" y="-269" width="809" height="668" filterUnits="userSpaceOnUse" color-interpolation-filters="sRGB">
<feFlood flood-opacity="0" result="BackgroundImageFix"/>
<feBlend mode="normal" in="SourceGraphic" in2="BackgroundImageFix" result="shape"/>
<feGaussianBlur stdDeviation="28" result="effect1_foregroundBlur_980_3507"/>
</filter>
<filter id="filter31_f_980_3507" x="960" y="-298" width="883" height="998" filterUnits="userSpaceOnUse" color-interpolation-filters="sRGB">
<feFlood flood-opacity="0" result="BackgroundImageFix"/>
<feBlend mode="normal" in="SourceGraphic" in2="BackgroundImageFix" result="shape"/>
<feGaussianBlur stdDeviation="66" result="effect1_foregroundBlur_980_3507"/>
</filter>
<filter id="filter32_f_980_3507" x="1269" y="-337" width="883" height="998" filterUnits="userSpaceOnUse" color-interpolation-filters="sRGB">
<feFlood flood-opacity="0" result="BackgroundImageFix"/>
<feBlend mode="normal" in="SourceGraphic" in2="BackgroundImageFix" result="shape"/>
<feGaussianBlur stdDeviation="66" result="effect1_foregroundBlur_980_3507"/>
</filter>
<filter id="filter33_f_980_3507" x="1087" y="-386" width="883" height="998" filterUnits="userSpaceOnUse" color-interpolation-filters="sRGB">
<feFlood flood-opacity="0" result="BackgroundImageFix"/>
<feBlend mode="normal" in="SourceGraphic" in2="BackgroundImageFix" result="shape"/>
<feGaussianBlur stdDeviation="66" result="effect1_foregroundBlur_980_3507"/>
</filter>
<filter id="filter34_f_980_3507" x="-356" y="-298" width="949" height="1157" filterUnits="userSpaceOnUse" color-interpolation-filters="sRGB">
<feFlood flood-opacity="0" result="BackgroundImageFix"/>
<feBlend mode="normal" in="SourceGraphic" in2="BackgroundImageFix" result="shape"/>
<feGaussianBlur stdDeviation="66" result="effect1_foregroundBlur_980_3507"/>
</filter>
<filter id="filter35_f_980_3507" x="-327" y="-314" width="1106" height="1101" filterUnits="userSpaceOnUse" color-interpolation-filters="sRGB">
<feFlood flood-opacity="0" result="BackgroundImageFix"/>
<feBlend mode="normal" in="SourceGraphic" in2="BackgroundImageFix" result="shape"/>
<feGaussianBlur stdDeviation="96" result="effect1_foregroundBlur_980_3507"/>
</filter>
<filter id="filter36_f_980_3507" x="226" y="-405" width="1106" height="1101" filterUnits="userSpaceOnUse" color-interpolation-filters="sRGB">
<feFlood flood-opacity="0" result="BackgroundImageFix"/>
<feBlend mode="normal" in="SourceGraphic" in2="BackgroundImageFix" result="shape"/>
<feGaussianBlur stdDeviation="96" result="effect1_foregroundBlur_980_3507"/>
</filter>
<filter id="filter37_f_980_3507" x="496" y="-313.202" width="1069.16" height="1101.2" filterUnits="userSpaceOnUse" color-interpolation-filters="sRGB">
<feFlood flood-opacity="0" result="BackgroundImageFix"/>
<feBlend mode="normal" in="SourceGraphic" in2="BackgroundImageFix" result="shape"/>
<feGaussianBlur stdDeviation="112" result="effect1_foregroundBlur_980_3507"/>
</filter>
<filter id="filter38_f_980_3507" x="992" y="-397" width="1106" height="1101" filterUnits="userSpaceOnUse" color-interpolation-filters="sRGB">
<feFlood flood-opacity="0" result="BackgroundImageFix"/>
<feBlend mode="normal" in="SourceGraphic" in2="BackgroundImageFix" result="shape"/>
<feGaussianBlur stdDeviation="96" result="effect1_foregroundBlur_980_3507"/>
</filter>
<linearGradient id="paint0_linear_980_3507" x1="843.841" y1="1253" x2="1617.67" y2="547.483" gradientUnits="userSpaceOnUse">
<stop stop-color="#490778"/>
<stop offset="1" stop-color="#000559"/>
</linearGradient>
<linearGradient id="paint1_linear_980_3507" x1="1042.84" y1="1314" x2="1816.67" y2="608.483" gradientUnits="userSpaceOnUse">
<stop stop-color="#2338C4"/>
<stop offset="1" stop-color="#0B1973"/>
</linearGradient>
<linearGradient id="paint2_linear_980_3507" x1="1128.84" y1="1394.88" x2="1902.67" y2="689.367" gradientUnits="userSpaceOnUse">
<stop stop-color="#2338C4"/>
<stop offset="1" stop-color="#0B1973"/>
</linearGradient>
<linearGradient id="paint3_linear_980_3507" x1="251" y1="871" x2="1055.81" y2="212.254" gradientUnits="userSpaceOnUse">
<stop stop-color="#1F0A63"/>
<stop offset="1" stop-color="#272F99"/>
</linearGradient>
<linearGradient id="paint4_linear_980_3507" x1="226" y1="661" x2="1030.81" y2="2.25403" gradientUnits="userSpaceOnUse">
<stop stop-color="#1F0A63"/>
<stop offset="1" stop-color="#272F99"/>
</linearGradient>
<linearGradient id="paint5_linear_980_3507" x1="69" y1="1199" x2="611.095" y2="519.431" gradientUnits="userSpaceOnUse">
<stop stop-color="#0C0066"/>
<stop offset="1" stop-color="#034C80"/>
</linearGradient>
<linearGradient id="paint6_linear_980_3507" x1="277" y1="1199" x2="819.095" y2="519.431" gradientUnits="userSpaceOnUse">
<stop stop-color="#0C0066"/>
<stop offset="1" stop-color="#034C80"/>
</linearGradient>
<linearGradient id="paint7_linear_980_3507" x1="1057" y1="879" x2="1780.47" y2="268.88" gradientUnits="userSpaceOnUse">
<stop stop-color="#2A22A0"/>
<stop offset="1" stop-color="#0B3271"/>
</linearGradient>
<linearGradient id="paint8_linear_980_3507" x1="1206" y1="879" x2="1929.47" y2="268.88" gradientUnits="userSpaceOnUse">
<stop stop-color="#490778"/>
<stop offset="1" stop-color="#044D72"/>
</linearGradient>
<linearGradient id="paint9_linear_980_3507" x1="1287" y1="900" x2="2010.47" y2="289.88" gradientUnits="userSpaceOnUse">
<stop stop-color="#490778"/>
<stop offset="1" stop-color="#044D72"/>
</linearGradient>
<linearGradient id="paint10_linear_980_3507" x1="1184" y1="661" x2="1907.47" y2="50.8796" gradientUnits="userSpaceOnUse">
<stop stop-color="#4A478C"/>
<stop offset="1" stop-color="#006AFF"/>
</linearGradient>
<linearGradient id="paint11_linear_980_3507" x1="474" y1="1298" x2="1283.11" y2="678.131" gradientUnits="userSpaceOnUse">
<stop stop-color="#000559"/>
<stop offset="1" stop-color="#490778"/>
</linearGradient>
<linearGradient id="paint12_linear_980_3507" x1="-135" y1="1238" x2="720.184" y2="602.119" gradientUnits="userSpaceOnUse">
<stop stop-color="#003B7E"/>
<stop offset="1" stop-color="#570387"/>
</linearGradient>
<linearGradient id="paint13_linear_980_3507" x1="-135" y1="595" x2="581.983" y2="-126.983" gradientUnits="userSpaceOnUse">
<stop stop-color="#070F56"/>
<stop offset="1" stop-color="#26044B"/>
</linearGradient>
<linearGradient id="paint14_linear_980_3507" x1="-160" y1="504" x2="556.983" y2="-217.983" gradientUnits="userSpaceOnUse">
<stop stop-color="#070F56"/>
<stop offset="1" stop-color="#26044B"/>
</linearGradient>
<linearGradient id="paint15_linear_980_3507" x1="418" y1="504" x2="1134.98" y2="-217.983" gradientUnits="userSpaceOnUse">
<stop stop-color="#245A96"/>
<stop offset="1" stop-color="#110858"/>
</linearGradient>
<linearGradient id="paint16_linear_980_3507" x1="720" y1="564" x2="1372.38" y2="-56.3762" gradientUnits="userSpaceOnUse">
<stop stop-color="#270157"/>
<stop offset="1" stop-color="#070982"/>
</linearGradient>
<linearGradient id="paint17_linear_980_3507" x1="847" y1="493.202" x2="1499.38" y2="-127.175" gradientUnits="userSpaceOnUse">
<stop stop-color="#270157"/>
<stop offset="1" stop-color="#070982"/>
</linearGradient>
<linearGradient id="paint18_linear_980_3507" x1="1184" y1="512" x2="1900.98" y2="-209.983" gradientUnits="userSpaceOnUse">
<stop stop-color="#490778"/>
<stop offset="1" stop-color="#490778"/>
</linearGradient>
<linearGradient id="paint19_linear_980_3507" x1="1019" y1="493" x2="1735.98" y2="-228.983" gradientUnits="userSpaceOnUse">
<stop stop-color="#490778"/>
<stop offset="1" stop-color="#490778"/>
</linearGradient>
<linearGradient id="paint20_linear_980_3507" x1="-38" y1="1087" x2="817.184" y2="451.119" gradientUnits="userSpaceOnUse">
<stop stop-color="#003B7E"/>
<stop offset="1" stop-color="#570387"/>
</linearGradient>
<linearGradient id="paint21_linear_980_3507" x1="784" y1="974" x2="1507.47" y2="363.88" gradientUnits="userSpaceOnUse">
<stop stop-color="#490778"/>
<stop offset="1" stop-color="#044D72"/>
</linearGradient>
<linearGradient id="paint22_linear_980_3507" x1="251" y1="504" x2="1055.81" y2="-154.746" gradientUnits="userSpaceOnUse">
<stop stop-color="#1F0A63"/>
<stop offset="1" stop-color="#272F99"/>
</linearGradient>
<linearGradient id="paint23_linear_980_3507" x1="1140" y1="460" x2="1863.47" y2="-150.12" gradientUnits="userSpaceOnUse">
<stop stop-color="#2A22A0"/>
<stop offset="1" stop-color="#0B3271"/>
</linearGradient>
<linearGradient id="paint24_linear_980_3507" x1="1419" y1="661" x2="2142.47" y2="50.8796" gradientUnits="userSpaceOnUse">
<stop stop-color="#01017F"/>
<stop offset="1" stop-color="#044D72"/>
</linearGradient>
<linearGradient id="paint25_linear_980_3507" x1="1201" y1="546" x2="1924.47" y2="-64.1204" gradientUnits="userSpaceOnUse">
<stop stop-color="#4A478C"/>
<stop offset="1" stop-color="#006AFF"/>
</linearGradient>
<linearGradient id="paint26_linear_980_3507" x1="-135" y1="595" x2="581.983" y2="-126.983" gradientUnits="userSpaceOnUse">
<stop stop-color="#070F56"/>
<stop offset="1" stop-color="#0C6B7E"/>
</linearGradient>
<linearGradient id="paint27_linear_980_3507" x1="418" y1="504" x2="1134.98" y2="-217.983" gradientUnits="userSpaceOnUse">
<stop stop-color="#004D67"/>
<stop offset="1" stop-color="#110858"/>
</linearGradient>
<linearGradient id="paint28_linear_980_3507" x1="720" y1="564" x2="1372.38" y2="-56.3762" gradientUnits="userSpaceOnUse">
<stop stop-color="#075652"/>
<stop offset="1" stop-color="#070982"/>
</linearGradient>
<linearGradient id="paint29_linear_980_3507" x1="1184" y1="512" x2="1900.98" y2="-209.983" gradientUnits="userSpaceOnUse">
<stop stop-color="#293F81"/>
<stop offset="1" stop-color="#00276F"/>
</linearGradient>
<linearGradient id="paint30_linear_980_3507" x1="238" y1="343" x2="780.095" y2="-336.569" gradientUnits="userSpaceOnUse">
<stop stop-color="#0C0066"/>
<stop offset="1" stop-color="#034C80"/>
</linearGradient>
<linearGradient id="paint31_linear_980_3507" x1="1092" y1="568" x2="1815.47" y2="-42.1204" gradientUnits="userSpaceOnUse">
<stop stop-color="#2A22A0"/>
<stop offset="1" stop-color="#0B3271"/>
</linearGradient>
<linearGradient id="paint32_linear_980_3507" x1="1401" y1="529" x2="2124.47" y2="-81.1204" gradientUnits="userSpaceOnUse">
<stop stop-color="#490778"/>
<stop offset="1" stop-color="#044D72"/>
</linearGradient>
<linearGradient id="paint33_linear_980_3507" x1="1219" y1="480" x2="1942.47" y2="-130.12" gradientUnits="userSpaceOnUse">
<stop stop-color="#4A478C"/>
<stop offset="1" stop-color="#006AFF"/>
</linearGradient>
<linearGradient id="paint34_linear_980_3507" x1="-224" y1="727" x2="638.499" y2="65.3966" gradientUnits="userSpaceOnUse">
<stop stop-color="#003B7E"/>
<stop offset="1" stop-color="#570387"/>
</linearGradient>
<linearGradient id="paint35_linear_980_3507" x1="-135" y1="595" x2="581.983" y2="-126.983" gradientUnits="userSpaceOnUse">
<stop stop-color="#070F56"/>
<stop offset="1" stop-color="#26044B"/>
</linearGradient>
<linearGradient id="paint36_linear_980_3507" x1="418" y1="504" x2="1134.98" y2="-217.983" gradientUnits="userSpaceOnUse">
<stop stop-color="#245A96"/>
<stop offset="1" stop-color="#110858"/>
</linearGradient>
<linearGradient id="paint37_linear_980_3507" x1="720" y1="564" x2="1372.38" y2="-56.3762" gradientUnits="userSpaceOnUse">
<stop stop-color="#270157"/>
<stop offset="1" stop-color="#070982"/>
</linearGradient>
<linearGradient id="paint38_linear_980_3507" x1="1184" y1="512" x2="1900.98" y2="-209.983" gradientUnits="userSpaceOnUse">
<stop stop-color="#490778"/>
<stop offset="1" stop-color="#490778"/>
</linearGradient>
<clipPath id="clip0_980_3507">
<rect width="1728" height="1136" fill="white" transform="matrix(1 0 0 -1 0 1136)"/>
</clipPath>
<clipPath id="clip1_980_3507">
<rect width="1728" height="1136" fill="white" transform="matrix(1 0 0 -1 0 1136)"/>
</clipPath>
<clipPath id="clip2_980_3507">
<rect width="1728" height="1136" fill="white" transform="matrix(1 0 0 -1 0 1136)"/>
</clipPath>
</defs>
</svg>
