<svg width="547" height="540" viewBox="0 0 547 540" fill="none" xmlns="http://www.w3.org/2000/svg">
<mask id="mask0_1056_3327" style="mask-type:alpha" maskUnits="userSpaceOnUse" x="0" y="0" width="547" height="540">
<rect x="2" y="2" width="542.233" height="536" fill="#D9D9D9"/>
<rect x="1" y="1" width="544.233" height="538" stroke="white" stroke-opacity="0.72" stroke-width="2"/>
</mask>
<g mask="url(#mask0_1056_3327)">
<g filter="url(#filter0_f_1056_3327)">
<path fill-rule="evenodd" clip-rule="evenodd" d="M517.113 487.106C537.971 484.256 557.945 473.405 578.379 478.432C602.458 484.356 633.206 493.641 639.821 517.295C646.711 541.935 607.59 560.145 608.374 585.699C609.449 620.744 667.1 654.902 644.878 682.22C623.095 708.999 579.022 662.321 544.336 664.422C521.029 665.834 502.424 702.691 481.67 692.107C459.129 680.611 474.351 642.315 460.189 621.506C448.781 604.744 422.681 604.228 410.715 587.851C393.858 564.78 364.508 534.937 378.943 510.311C394.042 484.552 436.159 498.793 465.838 493.809C483.186 490.895 499.682 489.488 517.113 487.106Z" fill="url(#paint0_linear_1056_3327)"/>
<path d="M547.671 478.843C557.87 476.391 568.163 474.889 578.617 477.461L580.896 478.027C592.38 480.911 605.2 484.629 616.112 490.328C627.749 496.405 637.369 504.817 640.783 517.025L640.944 517.63C642.512 523.861 641.276 529.677 638.604 535.219C635.86 540.911 631.566 546.381 627.162 551.786C622.73 557.226 618.185 562.602 614.78 568.214C611.384 573.812 609.185 579.547 609.373 585.668L609.408 586.466C609.867 594.704 613.495 602.964 618.51 611.203C623.692 619.716 630.254 628.056 636.174 636.272C642.056 644.436 647.307 652.484 649.657 660.253C651.956 667.851 651.492 675.238 646.183 682.181L645.654 682.85C639.966 689.843 632.784 692.035 624.782 691.438C616.856 690.847 608.08 687.519 599.038 683.488C589.929 679.427 580.578 674.667 571.251 671.014C562.234 667.482 553.418 665.063 545.191 665.381L544.396 665.42C538.821 665.758 533.461 668.221 528.177 671.669C522.883 675.124 517.788 679.48 512.668 683.546C507.59 687.578 502.487 691.325 497.308 693.375C492.244 695.378 487.053 695.78 481.731 693.252L481.216 692.998C469.374 686.958 467.567 673.888 466.789 660.356C466.395 653.495 466.269 646.479 465.359 639.835C464.48 633.414 462.882 627.471 459.678 622.543L459.362 622.069C453.843 613.959 444.745 609.739 435.249 605.445C426.008 601.267 416.38 597.016 410.199 588.834L409.907 588.441C401.558 577.014 389.901 563.644 382.226 550.159C374.541 536.658 370.579 522.603 378.08 509.806L378.453 509.185C386.387 496.336 401.004 493.548 416.905 493.269C424.998 493.128 433.578 493.638 441.891 493.868C450.239 494.099 458.355 494.051 465.673 492.822L467.298 492.554C484.067 489.818 500.165 488.412 516.978 486.115L517.948 485.977C527.974 484.489 537.716 481.235 547.671 478.843Z" stroke="white" stroke-opacity="0.72" stroke-width="2"/>
</g>
<g filter="url(#filter1_f_1056_3327)">
<path fill-rule="evenodd" clip-rule="evenodd" d="M517.634 163.53C555.19 158.342 592.388 192.125 609.871 225.394C626.208 256.484 591.192 295.619 604.174 328.219C615.951 357.791 665.815 359.34 675.304 389.706C685.037 420.851 681.803 467.903 652.49 482.824C618.734 500.007 581.688 461.924 544.122 456.482C525.978 453.854 508.367 456.225 490.301 459.329C452.602 465.806 409.74 509.257 380.766 484.548C353.958 461.686 407.857 418.242 401.703 383.773C395.187 347.277 335.727 325.437 345.996 289.796C355.625 256.378 412.403 269.522 440.598 248.779C472.159 225.562 478.674 168.913 517.634 163.53Z" fill="url(#paint1_linear_1056_3327)" fill-opacity="0.9"/>
<path d="M518.394 162.423C537.212 160.127 555.823 167.375 571.874 179.236C588.185 191.289 601.951 208.173 610.756 224.929L611.14 225.679C618.991 241.449 614.228 259.129 609.242 276.516C606.691 285.412 604.066 294.255 602.876 302.907C601.688 311.545 601.944 319.914 605.104 327.849L605.378 328.515C608.28 335.352 613.325 340.661 619.516 345.227C625.919 349.949 633.477 353.828 641.06 357.778C648.609 361.711 656.183 365.716 662.462 370.661C668.756 375.618 673.808 381.565 676.259 389.408L676.71 390.893C681.269 406.355 682.707 425.392 679.522 442.531C676.289 459.933 668.246 475.561 653.644 483.351L652.943 483.715C635.617 492.534 617.519 487.11 599.33 479.052C594.77 477.032 590.183 474.835 585.588 472.642C580.988 470.446 576.379 468.253 571.755 466.227C562.79 462.299 553.817 459.024 544.847 457.604L543.979 457.472C527.127 455.031 510.714 456.939 493.85 459.743L490.47 460.315C481.183 461.91 471.535 465.793 461.782 470.382C456.909 472.675 452.03 475.134 447.163 477.565C442.302 479.992 437.455 482.39 432.673 484.545C413.94 492.986 395.696 497.943 380.823 485.896L380.117 485.309C373.1 479.324 371.377 471.949 372.604 463.855C373.819 455.844 377.929 447.057 382.602 438.053C387.304 428.991 392.586 419.689 396.331 410.469C399.957 401.542 402.073 392.849 400.848 384.732L400.719 383.948C399.133 375.065 394.313 367.015 388.032 359.338C381.743 351.651 374.078 344.442 366.846 337.169C359.649 329.932 352.884 322.633 348.577 314.869C344.251 307.069 342.377 298.745 345.035 289.519L345.278 288.715C347.882 280.501 353.33 275.092 360.405 271.323C367.669 267.454 376.682 265.295 386.153 263.551C395.686 261.796 405.636 260.466 415.048 258.266C424.437 256.07 433.118 253.041 440.006 247.974L440.729 247.433C448.147 241.784 454.181 234.22 459.634 225.874C465.277 217.237 470.224 207.884 475.479 198.959C485.913 181.24 497.496 165.303 517.497 162.54L518.394 162.423Z" stroke="white" stroke-opacity="0.72" stroke-width="2"/>
</g>
<g filter="url(#filter2_f_1056_3327)">
<path fill-rule="evenodd" clip-rule="evenodd" d="M381.603 309.455C424.947 303.46 467.879 342.49 488.056 380.926C506.912 416.845 466.499 462.057 481.482 499.719C495.074 533.885 552.624 535.675 563.576 570.756C574.809 606.737 571.076 661.097 537.245 678.336C498.286 698.187 455.53 654.19 412.174 647.903C391.233 644.867 370.908 647.606 350.056 651.192C306.547 658.675 257.079 708.874 223.639 680.327C192.699 653.915 254.905 603.724 247.802 563.901C240.282 521.738 171.657 496.506 183.51 455.329C194.622 416.722 260.151 431.907 292.693 407.943C329.118 381.12 336.638 315.673 381.603 309.455Z" fill="url(#paint2_linear_1056_3327)" fill-opacity="0.9"/>
<path d="M382.498 308.329C404.166 305.683 425.606 314.036 444.112 327.725C462.917 341.635 478.789 361.122 488.941 380.461L489.383 381.324C498.413 399.48 492.941 419.845 487.183 439.944C484.239 450.218 481.205 460.446 479.83 470.456C478.457 480.451 478.751 490.149 482.411 499.35L482.729 500.123C486.092 508.056 491.939 514.21 499.097 519.494C506.499 524.959 515.233 529.444 523.981 534.007C532.696 538.552 541.425 543.174 548.658 548.876C555.907 554.591 561.714 561.436 564.53 570.458L565.05 572.172C570.305 590.014 571.964 611.982 568.293 631.757C564.565 651.837 555.299 669.838 538.504 678.807L537.698 679.227C517.77 689.381 496.943 683.144 475.953 673.835C470.693 671.502 465.4 668.966 460.097 666.432C454.788 663.895 449.467 661.36 444.127 659.018C433.776 654.478 423.406 650.689 413.034 649.045L412.03 648.893C392.557 646.069 373.594 648.276 354.126 651.517L350.226 652.178C339.486 654.025 328.336 658.517 317.076 663.82C311.45 666.47 305.817 669.313 300.201 672.12C294.59 674.925 288.999 677.694 283.482 680.182C261.859 689.935 240.887 695.619 223.8 681.762L222.989 681.088C214.939 674.216 212.962 665.753 214.372 656.443C215.77 647.218 220.5 637.087 225.894 626.683C231.317 616.221 237.42 605.464 241.746 594.803C245.935 584.48 248.388 574.406 246.968 564.986L246.818 564.077C244.981 553.777 239.401 544.451 232.144 535.572C224.878 526.684 216.023 518.347 207.682 509.95C199.375 501.589 191.582 493.17 186.623 484.221C181.644 475.236 179.495 465.663 182.549 455.053L182.828 454.129C185.819 444.685 192.073 438.464 200.211 434.125C208.572 429.667 218.954 427.176 229.884 425.161C240.874 423.136 252.372 421.597 263.239 419.054C274.083 416.516 284.125 413.01 292.1 407.138L292.936 406.512C301.518 399.97 308.493 391.216 314.791 381.567C321.306 371.585 327.023 360.767 333.083 350.465C345.126 329.991 358.461 311.645 381.466 308.464L382.498 308.329Z" stroke="white" stroke-opacity="0.72" stroke-width="2"/>
</g>
<g filter="url(#filter3_f_1056_3327)">
<path fill-rule="evenodd" clip-rule="evenodd" d="M303.692 224.708C348.191 218.557 392.268 258.61 412.983 298.054C432.341 334.915 390.85 381.312 406.233 419.963C420.187 455.024 479.271 456.861 490.515 492.863C502.047 529.788 498.215 585.573 463.482 603.264C423.485 623.637 379.589 578.486 335.077 572.034C313.579 568.917 292.712 571.729 271.304 575.409C226.636 583.088 175.848 634.603 141.517 605.308C109.753 578.203 173.617 526.695 166.325 485.829C158.605 442.559 88.1506 416.666 100.319 374.409C111.728 334.789 179.003 350.372 212.412 325.78C249.808 298.253 257.528 231.089 303.692 224.708Z" fill="url(#paint3_linear_1056_3327)" fill-opacity="0.9"/>
<path d="M304.614 223.579C326.85 220.864 348.855 229.433 367.851 243.479C387.153 257.751 403.447 277.745 413.868 297.589L414.32 298.474C423.586 317.095 417.972 337.984 412.06 358.613C409.038 369.156 405.923 379.654 404.511 389.929C403.101 400.188 403.402 410.146 407.162 419.594L407.488 420.388C410.944 428.535 416.951 434.854 424.302 440.278C431.903 445.888 440.872 450.492 449.853 455.174C458.8 459.838 467.76 464.58 475.184 470.43C482.623 476.292 488.58 483.313 491.47 492.565L492.003 494.323C497.397 512.63 499.099 535.17 495.331 555.459C491.505 576.061 481.995 594.526 464.763 603.725L463.936 604.155C443.489 614.57 422.117 608.175 400.567 598.622C395.168 596.228 389.734 593.625 384.289 591.024C378.839 588.421 373.376 585.819 367.894 583.416C357.266 578.757 346.617 574.867 335.965 573.18L334.934 573.023C314.937 570.125 295.466 572.39 275.479 575.716L271.474 576.395C260.444 578.291 248.994 582.902 237.435 588.345C231.658 591.064 225.874 593.981 220.108 596.862C214.348 599.741 208.608 602.582 202.945 605.136C180.746 615.145 159.229 620.97 141.7 606.761L140.868 606.068C132.612 599.023 130.582 590.349 132.029 580.802C133.464 571.339 138.319 560.946 143.856 550.269C149.424 539.533 155.69 528.492 160.132 517.55C164.433 506.955 166.953 496.611 165.494 486.938L165.341 486.004C163.454 475.427 157.721 465.853 150.27 456.74C142.81 447.617 133.717 439.061 125.154 430.444C116.626 421.863 108.627 413.225 103.538 404.045C98.4292 394.829 96.2244 385.012 99.3574 374.132L99.6445 373.185C102.712 363.501 109.128 357.122 117.478 352.672C126.057 348.099 136.713 345.543 147.935 343.476C159.216 341.397 171.022 339.817 182.18 337.207C193.314 334.602 203.628 331.004 211.819 324.975L212.678 324.331C221.493 317.615 228.656 308.628 235.122 298.725C241.811 288.48 247.682 277.378 253.902 266.807C266.267 245.795 279.951 226.981 303.555 223.718L304.614 223.579Z" stroke="white" stroke-opacity="0.72" stroke-width="2"/>
</g>
<g filter="url(#filter4_f_1056_3327)">
<path fill-rule="evenodd" clip-rule="evenodd" d="M476.066 193.583C523.223 187.059 569.93 229.543 591.882 271.382C612.396 310.48 568.429 359.694 584.73 400.691C599.517 437.881 662.128 439.829 674.043 478.016C686.264 517.183 682.203 576.354 645.396 595.119C603.011 616.728 556.495 568.836 509.326 561.993C486.544 558.687 464.431 561.669 441.745 565.573C394.41 573.718 340.59 628.361 304.209 597.287C270.549 568.537 338.225 513.902 330.498 470.555C322.317 424.659 247.657 397.193 260.551 352.371C272.641 310.346 343.933 326.875 379.337 300.79C418.966 271.593 427.147 200.352 476.066 193.583Z" fill="url(#paint4_linear_1056_3327)" fill-opacity="0.9"/>
<path d="M477.051 192.447C500.594 189.569 523.898 198.65 544.021 213.542C564.468 228.675 581.728 249.876 592.768 270.917L593.246 271.855C603.052 291.582 597.114 313.714 590.847 335.6C587.645 346.781 584.343 357.922 582.846 368.826C581.351 379.714 581.669 390.287 585.659 400.322L586.005 401.165C589.672 409.82 596.047 416.53 603.842 422.288C611.902 428.242 621.41 433.128 630.926 438.093C640.408 443.041 649.898 448.068 657.76 454.269C665.637 460.482 671.941 467.919 674.998 477.718L675.283 478.647C681.216 498.22 683.145 522.543 679.089 544.401C675.036 566.244 664.964 585.808 646.726 595.553L645.851 596.01C624.209 607.043 601.585 600.272 578.75 590.14C573.029 587.601 567.271 584.84 561.501 582.081C555.726 579.32 549.935 576.56 544.124 574.01C532.861 569.068 521.571 564.94 510.275 563.149L509.183 562.983C487.983 559.907 467.341 562.311 446.159 565.839L441.915 566.558C430.219 568.57 418.079 573.465 405.828 579.239C399.706 582.124 393.575 585.219 387.466 588.275C381.362 591.328 375.28 594.34 369.28 597.048C345.754 607.665 322.985 613.828 304.439 598.781L303.56 598.047C294.83 590.591 292.684 581.412 294.215 571.302C295.733 561.276 300.873 550.261 306.741 538.935C312.639 527.551 319.281 515.835 323.99 504.225C328.55 492.983 331.225 481.999 329.677 471.723L329.514 470.731C327.511 459.497 321.43 449.332 313.53 439.662C305.622 429.983 295.984 420.902 286.912 411.765C277.875 402.663 269.404 393.507 264.016 383.778C258.607 374.012 256.275 363.616 259.59 352.095L259.894 351.092C263.139 340.839 269.925 334.083 278.763 329.368C287.846 324.523 299.13 321.812 311.021 319.619C322.972 317.416 335.488 315.74 347.313 312.971C359.115 310.207 370.054 306.388 378.744 299.986L379.654 299.303C389.003 292.174 396.598 282.634 403.452 272.127C410.541 261.26 416.765 249.478 423.355 238.269C436.458 215.981 450.947 196.05 475.929 192.593L477.051 192.447Z" stroke="white" stroke-opacity="0.72" stroke-width="2"/>
</g>
<g filter="url(#filter5_f_1056_3327)">
<path fill-rule="evenodd" clip-rule="evenodd" d="M284.583 304.477C328.492 298.404 371.983 337.945 392.423 376.885C411.524 413.275 370.585 459.08 385.763 497.237C399.532 531.85 457.832 533.663 468.926 569.205C480.306 605.658 476.524 660.73 442.252 678.195C402.786 698.307 359.473 653.733 315.552 647.364C294.338 644.287 273.748 647.063 252.625 650.696C208.549 658.276 158.436 709.134 124.56 680.213C93.2175 653.454 156.234 602.605 149.039 562.26C141.421 519.544 71.9018 493.981 83.9084 452.264C95.1659 413.151 161.549 428.534 194.514 404.257C231.414 377.082 239.032 310.776 284.583 304.477Z" fill="url(#paint5_linear_1056_3327)" fill-opacity="0.9"/>
<path d="M285.491 303.35C307.437 300.669 329.153 309.13 347.898 322.997C366.946 337.089 383.025 356.829 393.309 376.42L393.755 377.294C402.9 395.683 397.359 416.31 391.525 436.674C388.544 447.082 385.47 457.445 384.077 467.587C382.686 477.714 382.983 487.542 386.692 496.867L387.015 497.651C390.423 505.691 396.347 511.927 403.6 517.282C411.099 522.819 419.947 527.364 428.81 531.986C437.638 536.59 446.48 541.272 453.807 547.048C461.149 552.837 467.028 559.769 469.881 568.907L470.407 570.643C475.73 588.717 477.411 610.971 473.692 631.003C469.916 651.344 460.531 669.577 443.522 678.661L442.706 679.086C422.524 689.371 401.43 683.055 380.167 673.624C374.839 671.261 369.477 668.691 364.104 666.123C358.727 663.554 353.336 660.985 347.927 658.613C337.441 654.014 326.934 650.174 316.425 648.508L315.408 648.353C295.679 645.492 276.468 647.729 256.746 651.012L252.794 651.681C241.913 653.553 230.616 658.105 219.21 663.478C213.511 666.163 207.803 669.042 202.114 671.886C196.43 674.728 190.767 677.533 185.179 680.054C163.274 689.935 142.035 695.69 124.731 681.657L123.911 680.973C115.761 674.015 113.757 665.446 115.186 656.018C116.601 646.674 121.393 636.413 126.856 625.871C132.35 615.273 138.532 604.373 142.915 593.572C147.159 583.113 149.645 572.904 148.206 563.358L148.055 562.436C146.193 551.997 140.538 542.548 133.186 533.552C125.825 524.546 116.855 516.099 108.405 507.592C99.9906 499.121 92.0966 490.592 87.0742 481.528C82.0318 472.427 79.8547 462.733 82.9473 451.988L83.2305 451.052C86.2587 441.489 92.5926 435.188 100.834 430.793C109.302 426.278 119.818 423.754 130.89 421.713C142.023 419.661 153.671 418.103 164.68 415.526C175.665 412.954 185.842 409.402 193.922 403.452L194.769 402.817C203.465 396.188 210.531 387.317 216.911 377.541C223.511 367.428 229.304 356.468 235.442 346.032C247.642 325.289 261.148 306.708 284.445 303.486L285.491 303.35Z" stroke="white" stroke-opacity="0.72" stroke-width="2"/>
</g>
<g filter="url(#filter6_f_1056_3327)">
<path fill-rule="evenodd" clip-rule="evenodd" d="M291.384 478.453C320.425 487.473 309.5 538.907 334.577 555.98C358.25 572.097 400.873 542.599 418.541 565.023C434.458 585.224 402.853 612.463 399.042 637.799C395.259 662.95 416.537 696.743 396.359 712.489C374.563 729.499 340.88 692.428 315.317 703.137C283.747 716.363 279.685 769.28 245.98 775.488C214.979 781.198 184.799 755.128 165.033 730.816C145.555 706.859 127.478 672.617 139.186 644.136C151.859 613.308 202.941 618.459 222.383 591.303C236.106 572.134 214.071 542.468 226.361 522.369C240.225 499.693 265.829 470.516 291.384 478.453Z" fill="url(#paint6_linear_1056_3327)"/>
<path d="M253.86 488.152C265.293 478.932 278.432 473.384 291.68 477.498L292.383 477.726C299.563 480.172 304.309 485.18 307.737 491.494C311.257 497.978 313.423 505.904 315.438 513.954C317.463 522.051 319.337 530.276 322.261 537.559C325.179 544.828 329.1 551.041 335.14 555.153L335.675 555.508C341.246 559.09 347.915 560.181 355.179 560.039C362.691 559.892 370.703 558.434 378.651 557.149C386.55 555.873 394.395 554.767 401.39 555.421C408.425 556.078 414.692 558.522 419.326 564.404L419.708 564.902C423.564 570.063 424.524 575.665 423.735 581.488C422.927 587.454 420.284 593.669 417.08 599.94C415.474 603.083 413.715 606.264 411.959 609.448C410.2 612.638 408.443 615.834 406.827 619.031C403.692 625.236 401.125 631.378 400.123 637.369L400.031 637.948C399.109 644.079 399.709 650.784 400.852 657.703C401.422 661.158 402.123 664.647 402.831 668.134C403.537 671.614 404.25 675.094 404.834 678.502C407.118 691.829 407.554 704.606 397.463 712.887L396.975 713.278C391.251 717.745 384.761 718.629 377.959 717.688C371.196 716.753 364.033 713.998 356.876 711.102C349.673 708.188 342.468 705.126 335.466 703.444C328.696 701.818 322.236 701.515 316.278 703.827L315.703 704.059C308.029 707.275 301.983 712.918 296.695 719.76C291.398 726.614 286.916 734.592 282.312 742.45C273.323 757.79 263.833 772.796 246.97 776.312L246.161 776.472C230.321 779.389 214.766 774.173 200.756 765.254C187.181 756.612 174.965 744.44 165.194 732.593L164.257 731.447C154.474 719.415 145.015 704.768 139.475 689.514C133.935 674.263 132.28 658.308 138.262 643.756L138.574 643.017C145.305 627.664 161.463 621.241 177.911 615.4C186.335 612.409 194.867 609.568 202.521 605.783C210.162 602.005 216.841 597.326 221.57 590.721L221.871 590.29C224.917 585.819 226.012 580.743 226.065 575.262C226.12 569.582 225.057 563.542 223.926 557.364C222.802 551.225 221.61 544.948 221.484 538.944C221.359 532.922 222.302 527.089 225.508 521.847L226.169 520.774C233.095 509.642 242.768 497.098 253.86 488.152Z" stroke="white" stroke-opacity="0.72" stroke-width="2"/>
</g>
<g filter="url(#filter7_f_1056_3327)">
<path fill-rule="evenodd" clip-rule="evenodd" d="M200.445 242.251C251.555 235.196 302.178 281.135 325.97 326.377C348.203 368.655 300.55 421.871 318.218 466.202C334.245 506.416 402.105 508.523 415.019 549.816C428.264 592.168 423.863 656.151 383.97 676.442C338.032 699.809 287.617 648.022 236.493 640.622C211.801 637.048 187.834 640.272 163.247 644.493C111.943 653.3 53.6118 712.387 14.1811 678.787C-22.3015 647.698 51.0486 588.62 42.6738 541.748C33.8067 492.12 -47.1127 462.42 -33.1371 413.953C-20.0336 368.51 57.2351 386.383 95.6068 358.177C138.557 326.605 147.424 249.571 200.445 242.251Z" fill="url(#paint7_linear_1056_3327)" fill-opacity="0.9"/>
<path d="M201.522 241.104C227.011 237.996 252.247 247.802 274.046 263.898C296.196 280.254 314.895 303.169 326.854 325.911L327.373 326.924C337.985 348.223 331.562 372.124 324.768 395.796C321.298 407.885 317.716 419.937 316.093 431.734C314.471 443.516 314.815 454.965 319.146 465.832L319.523 466.746C323.506 476.122 330.426 483.389 338.882 489.62C347.624 496.062 357.935 501.349 368.247 506.718C378.525 512.069 388.804 517.5 397.317 524.2C405.847 530.912 412.666 538.942 415.974 549.518L416.282 550.521C422.709 571.675 424.798 597.963 420.404 621.585C416.014 645.193 405.107 666.32 385.37 676.841L384.424 677.334C361.007 689.245 336.52 681.94 311.771 670.984C305.572 668.24 299.333 665.255 293.079 662.271C286.82 659.286 280.543 656.301 274.243 653.543C262.033 648.198 249.788 643.73 237.535 641.791L236.35 641.611C213.359 638.283 190.976 640.886 168.016 644.701L163.416 645.479C150.728 647.657 137.562 652.953 124.282 659.197C117.646 662.317 111 665.665 104.379 668.969C97.7631 672.27 91.173 675.528 84.6719 678.455C58.9695 690.028 34.1509 696.679 14.0078 679.947L13.5322 679.548C4.09626 671.507 1.77454 661.612 3.43066 650.7C5.07399 639.873 10.6395 627.974 17 615.726C23.3903 603.42 30.5927 590.745 35.6982 578.187C40.6421 566.026 43.5478 554.132 41.8662 542.999L41.6895 541.924C39.5157 529.758 32.9145 518.753 24.3486 508.292C15.7745 497.821 5.3229 487.998 -4.50684 478.12C-14.3014 468.278 -23.4747 458.384 -29.3086 447.874C-35.1626 437.328 -37.6828 426.109 -34.0977 413.676L-33.7705 412.594C-30.2609 401.53 -22.9217 394.24 -13.3584 389.15C-3.52606 383.917 8.69209 380.989 21.5781 378.618C34.525 376.236 48.0993 374.423 60.918 371.428C73.7133 368.438 85.5828 364.304 95.0146 357.371L96.002 356.633C106.146 348.915 114.383 338.592 121.814 327.227C129.499 315.473 136.248 302.728 143.388 290.611C157.59 266.509 173.277 244.992 200.309 241.261L201.522 241.104Z" stroke="white" stroke-opacity="0.72" stroke-width="2"/>
</g>
<g filter="url(#filter8_f_1056_3327)">
<path fill-rule="evenodd" clip-rule="evenodd" d="M61.1952 405.546C104.231 432.13 61.3668 515.601 103.112 544.01C141.62 570.217 200.854 503.91 240.929 527.863C272.664 546.831 273.583 603.784 251.478 632.687C226.841 664.901 170.54 647.366 134.359 667.206C114.879 677.887 111.045 702.774 95.4556 718.242C65.9473 747.52 37.5054 821.082 2.46192 798.073C-39.0703 770.804 6.84582 704.24 1.14675 656.32C-0.595274 641.673 -14.8028 631.709 -19.0102 617.528C-23.7658 601.5 -22.6514 585.402 -24.8008 568.866C-29.8142 530.298 -58.3354 490.271 -40.0628 455.568C-22.6077 422.418 28.6196 385.423 61.1952 405.546Z" fill="url(#paint8_linear_1056_3327)"/>
<path d="M4.40039 409.711C23.5744 398.769 44.9625 394.343 61.7207 404.695L62.2354 405.018C72.9525 411.855 78.3255 422.199 81.0059 434.183C83.7206 446.321 83.6968 460.253 83.6377 474.098C83.5784 487.998 83.4834 501.813 85.9824 513.926C88.4751 526.008 93.5257 536.277 103.675 543.184L104.113 543.477C113.34 549.558 123.81 550.287 135.073 548.192C146.544 546.058 158.709 541.021 171.047 535.859C183.337 530.716 195.797 525.449 207.701 522.987C219.627 520.52 231.129 520.84 241.442 527.004L242.198 527.467C257.953 537.325 265.968 556.396 267.392 576.479C268.816 596.571 263.668 617.931 252.794 632.601L252.272 633.295C239.662 649.784 218.991 653.461 197.345 655.581C186.454 656.648 175.325 657.316 164.609 658.96C154.246 660.55 144.375 663.041 135.678 667.631L134.84 668.082C125.367 673.277 119.655 681.943 114.32 691.419C109.191 700.532 104.391 710.45 96.8936 718.207L96.1602 718.951C88.8571 726.197 81.5943 736.213 74.2275 746.871C66.8819 757.5 59.4347 768.765 51.8184 778.386C44.2118 787.994 36.3387 796.093 28.082 800.314C23.9372 802.433 19.669 803.589 15.2773 803.45C11.1558 803.318 6.98349 802.047 2.75879 799.447L1.91309 798.909C-8.73886 791.915 -13.7909 782.373 -15.4521 771.307C-17.1051 760.296 -15.4037 747.773 -12.6113 734.731C-11.2133 728.201 -9.53461 721.513 -7.85352 714.797C-6.17082 708.075 -4.48436 701.324 -3.06152 694.642C-0.302446 681.684 1.447 669.065 0.276367 657.549L0.15332 656.439C-0.684477 649.394 -4.52285 643.428 -8.82422 637.326C-12.9452 631.479 -17.5121 625.485 -19.7588 618.492L-19.9688 617.813C-22.3777 609.694 -23.2938 601.576 -23.8799 593.459C-24.4315 585.82 -24.6899 578.236 -25.6016 570.536L-25.792 568.995C-27.0335 559.444 -29.7347 549.779 -32.8232 540.076C-35.9008 530.407 -39.3853 520.64 -42.126 511.042C-47.6137 491.825 -50.273 472.813 -40.9473 455.102L-40.5273 454.316C-31.5806 437.791 -14.5084 420.502 4.40039 409.711Z" stroke="white" stroke-opacity="0.72" stroke-width="2"/>
</g>
<g filter="url(#filter9_f_1056_3327)">
<path fill-rule="evenodd" clip-rule="evenodd" d="M138.505 366.827C166.266 368.617 198.501 328.781 218.108 348.32C240.016 370.154 208.353 407.743 210.378 438.454C211.452 454.754 221.178 468.274 227.024 483.55C239.43 515.967 276.729 546.325 264.023 578.628C252.932 606.826 207.536 596.436 178.688 606.437C147.817 617.14 120.569 645.965 88.5243 639.472C56.394 632.962 33.6976 602.697 18.4239 573.964C4.80678 548.347 -2.85326 515.985 8.76081 489.418C19.8511 464.05 68.2752 469.226 75.8443 442.619C85.8725 407.367 28.5173 365.946 51.9476 337.606C71.6547 313.769 107.457 364.825 138.505 366.827Z" fill="url(#paint9_linear_1056_3327)"/>
<path d="M59.7627 330.978C62.8928 330.035 66.2101 330.098 69.6367 330.857C76.4486 332.367 83.8801 336.676 91.5225 341.69C99.2302 346.747 107.154 352.521 115.158 357.201C123.152 361.875 131.046 365.344 138.569 365.829L139.198 365.862C145.711 366.13 152.539 364.083 159.495 361.027C166.687 357.867 173.855 353.707 180.901 350.031C187.891 346.385 194.757 343.219 201.149 342.232C207.61 341.235 213.643 342.459 218.813 347.612L219.338 348.148C230.146 359.472 227.49 374.673 222.654 390.352C221.419 394.359 220.027 398.435 218.658 402.514C217.287 406.598 215.937 410.691 214.773 414.76C212.443 422.906 210.881 430.882 211.376 438.388L211.431 439.134C212.067 446.818 214.646 453.914 217.823 460.975C221.075 468.203 225.025 475.53 227.958 483.192L228.249 483.943C231.31 491.693 235.792 499.352 240.669 507.002C245.681 514.863 251.149 522.768 255.801 530.622C264.963 546.09 271.291 561.874 265.251 578.216L264.954 578.994C259.183 593.667 244.494 598.169 228.146 600.348C219.966 601.438 211.152 601.967 202.734 602.833C194.529 603.677 186.624 604.846 179.685 607.155L179.016 607.382C171.38 610.029 163.949 613.804 156.568 617.901C149.223 621.979 141.855 626.42 134.513 630.288C120.023 637.922 105.176 643.592 89.0928 640.601L88.3262 640.452C56.2211 633.947 33.5431 604.14 18.2627 575.782L17.541 574.433C3.86455 548.705 -3.94889 515.995 7.84473 489.017L8.12305 488.403C11.0695 482.118 16.2417 477.719 22.3662 474.273C28.6726 470.725 36.0926 468.133 43.2842 465.542C50.5197 462.935 57.5245 460.328 63.1943 456.743C68.8399 453.174 73.079 448.686 74.8828 442.345L75.0977 441.546C77.2005 433.273 75.5681 424.59 72.1143 415.685C68.5451 406.484 63.0948 397.195 57.9961 388.006C52.9253 378.867 48.1941 369.813 46.2324 361.236C44.2579 352.602 45.0699 344.355 51.1768 336.969L51.6631 336.399C54.1096 333.62 56.8205 331.865 59.7627 330.978Z" stroke="white" stroke-opacity="0.72" stroke-width="2"/>
</g>
<g filter="url(#filter10_f_1056_3327)">
<path fill-rule="evenodd" clip-rule="evenodd" d="M-115.351 369.217C-76.9651 363.911 -38.944 398.461 -21.0749 432.487C-4.37634 464.283 -40.1665 504.307 -26.8972 537.648C-14.8601 567.892 36.1066 569.477 45.806 600.533C55.7542 632.385 52.4484 680.507 22.4869 695.767C-12.0156 713.341 -49.8805 674.392 -88.2774 668.827C-106.823 666.139 -124.823 668.564 -143.289 671.738C-181.822 678.362 -225.632 722.801 -255.246 697.53C-282.647 674.149 -227.557 629.717 -233.847 594.465C-240.506 557.14 -301.281 534.803 -290.785 498.352C-280.943 464.175 -222.91 477.617 -194.091 456.403C-161.832 432.658 -155.173 374.722 -115.351 369.217Z" fill="url(#paint10_linear_1056_3327)" fill-opacity="0.9"/>
<path d="M-114.572 368.107C-95.3446 365.759 -76.3283 373.17 -59.9248 385.298C-43.2559 397.623 -29.1878 414.888 -20.1895 432.022L-19.7979 432.788C-11.7777 448.907 -16.6422 466.98 -21.7393 484.763C-24.3468 493.861 -27.0295 502.907 -28.2461 511.758C-29.4605 520.594 -29.1995 529.158 -25.9678 537.278L-25.6875 537.961C-22.7195 544.958 -17.5588 550.39 -11.2295 555.061C-4.68275 559.892 3.04293 563.859 10.793 567.899C18.5095 571.922 26.2504 576.017 32.666 581.073C39.0972 586.141 44.2571 592.219 46.7607 600.235L47.2217 601.754C51.8801 617.564 53.3504 637.03 50.0957 654.554C46.7911 672.347 38.5726 688.323 23.6562 696.285L22.9404 696.658C5.24097 705.673 -13.2494 700.13 -31.8398 691.888C-36.5 689.822 -41.1892 687.576 -45.8857 685.333C-50.5872 683.087 -55.2982 680.843 -60.0254 678.771C-69.1888 674.754 -78.3619 671.404 -87.5332 669.951L-88.4209 669.817C-105.649 667.32 -122.427 669.271 -139.666 672.139L-143.12 672.724C-152.615 674.357 -162.479 678.327 -172.448 683.021C-177.429 685.366 -182.416 687.882 -187.391 690.368C-192.36 692.851 -197.313 695.303 -202.201 697.506C-221.348 706.139 -239.984 711.203 -255.175 698.89L-255.896 698.291C-263.061 692.176 -264.82 684.642 -263.566 676.37C-262.325 668.181 -258.127 659.198 -253.351 649.989C-248.545 640.722 -243.145 631.208 -239.316 621.777C-235.609 612.646 -233.446 603.751 -234.699 595.443L-234.831 594.64C-236.453 585.55 -241.381 577.312 -247.803 569.46C-254.232 561.597 -262.068 554.223 -269.459 546.786C-276.815 539.384 -283.728 531.921 -288.128 523.983C-292.548 516.009 -294.461 507.504 -291.746 498.075L-291.498 497.254C-288.839 488.86 -283.275 483.331 -276.048 479.479C-268.627 475.524 -259.416 473.316 -249.735 471.533C-239.994 469.738 -229.822 468.378 -220.201 466.128C-210.604 463.882 -201.727 460.783 -194.684 455.598L-193.945 455.045C-186.359 449.265 -180.19 441.527 -174.616 432.99C-168.848 424.156 -163.79 414.589 -158.419 405.463C-147.755 387.34 -135.921 371.051 -115.488 368.226L-114.572 368.107Z" stroke="white" stroke-opacity="0.72" stroke-width="2"/>
</g>
<g filter="url(#filter11_f_1056_3327)">
<path fill-rule="evenodd" clip-rule="evenodd" d="M8.03488 331.795C44.4611 326.745 80.5407 359.632 97.4974 392.019C113.343 422.285 79.3806 460.381 91.9725 492.117C103.395 520.905 151.759 522.414 160.963 551.974C170.403 582.293 167.266 628.097 138.835 642.623C106.094 659.35 70.1627 622.277 33.7263 616.98C16.1281 614.421 -0.953107 616.729 -18.4766 619.751C-55.0412 626.056 -96.6142 668.355 -124.717 644.301C-150.718 622.046 -98.441 579.753 -104.41 546.198C-110.729 510.67 -168.401 489.409 -158.441 454.713C-149.102 422.181 -94.0318 434.976 -66.684 414.784C-36.0728 392.182 -29.7534 337.035 8.03488 331.795Z" fill="url(#paint11_linear_1056_3327)" fill-opacity="0.9"/>
<path d="M8.76758 330.691C27.0318 328.454 45.091 335.515 60.6631 347.064C76.4875 358.801 89.841 375.241 98.3828 391.556L98.7559 392.285C106.376 407.647 101.753 424.868 96.917 441.792C94.4423 450.453 91.8961 459.059 90.7422 467.48C89.5904 475.886 89.8396 484.029 92.9023 491.748L93.168 492.396C95.9801 499.047 100.87 504.212 106.872 508.654C113.081 513.25 120.407 517.024 127.763 520.87C135.084 524.699 142.434 528.598 148.526 533.414C154.634 538.242 159.539 544.035 161.918 551.677L162.355 553.123C166.778 568.179 168.174 586.715 165.084 603.403C161.947 620.346 154.144 635.569 139.97 643.158L139.29 643.514C122.47 652.107 104.901 646.819 87.2598 638.974C82.8369 637.008 78.387 634.869 73.9307 632.734C69.4692 630.597 64.9996 628.461 60.5146 626.489C51.8204 622.666 43.1202 619.48 34.4238 618.098L33.582 617.97C17.2424 615.594 1.3277 617.45 -15.0293 620.18L-18.3066 620.736C-27.3097 622.289 -36.6639 626.067 -46.123 630.534C-50.8489 632.766 -55.5811 635.16 -60.3018 637.526C-65.0169 639.89 -69.7182 642.224 -74.3574 644.322C-92.5259 652.539 -110.24 657.374 -124.682 645.633L-125.367 645.06C-132.182 639.227 -133.854 632.039 -132.662 624.153C-131.483 616.351 -127.496 607.794 -122.964 599.028C-118.402 590.205 -113.281 581.152 -109.648 572.178C-106.132 563.489 -104.082 555.031 -105.27 547.136L-105.395 546.373C-106.932 537.731 -111.603 529.898 -117.694 522.427C-123.794 514.945 -131.225 507.928 -138.24 500.848C-145.221 493.802 -151.786 486.695 -155.965 479.133C-160.164 471.535 -161.983 463.426 -159.402 454.436L-159.166 453.654C-156.638 445.651 -151.349 440.379 -144.481 436.707C-137.431 432.938 -128.684 430.835 -119.497 429.138C-110.249 427.429 -100.602 426.135 -91.4736 423.993C-82.3688 421.856 -73.9541 418.908 -67.2783 413.979L-66.5781 413.453C-59.3859 407.957 -53.5353 400.598 -48.2471 392.474C-42.7744 384.066 -37.9768 374.963 -32.8789 366.273C-22.7601 349.025 -11.5194 333.497 7.89746 330.805L8.76758 330.691Z" stroke="white" stroke-opacity="0.72" stroke-width="2"/>
</g>
<g filter="url(#filter12_f_1056_3327)">
<path fill-rule="evenodd" clip-rule="evenodd" d="M89.1251 304.164C123.007 314.687 110.261 374.694 139.517 394.611C167.136 413.414 216.863 379 237.475 405.161C256.045 428.73 219.173 460.508 214.727 490.068C210.313 519.41 235.137 558.836 211.597 577.206C186.168 597.05 146.871 553.801 117.048 566.295C80.2152 581.725 75.4765 643.462 36.1544 650.704C-0.0139557 657.366 -35.2234 626.951 -58.2841 598.587C-81.0086 570.637 -102.098 530.689 -88.4385 497.46C-73.6541 461.495 -14.0576 467.504 8.62437 435.821C24.6348 413.458 -1.07248 378.847 13.265 355.398C29.4407 328.943 59.3109 294.903 89.1251 304.164Z" fill="url(#paint12_linear_1056_3327)"/>
<path d="M45.4531 315.609C58.7737 304.866 74.0445 298.433 89.4219 303.209L90.2363 303.474C98.564 306.31 104.072 312.118 108.058 319.458C112.153 327.001 114.675 336.229 117.025 345.622C119.387 355.062 121.577 364.673 124.993 373.184C128.404 381.68 132.995 388.961 140.08 393.784L140.708 394.201C147.246 398.405 155.065 399.68 163.557 399.514C172.336 399.342 181.697 397.637 190.964 396.14C200.181 394.65 209.313 393.365 217.45 394.125C225.627 394.889 232.89 397.726 238.261 404.542L238.703 405.12C243.172 411.101 244.286 417.59 243.371 424.349C242.432 431.279 239.359 438.51 235.622 445.823C233.75 449.486 231.699 453.194 229.65 456.91C227.598 460.631 225.548 464.362 223.661 468.096C220.001 475.339 216.996 482.523 215.823 489.538L215.716 490.217C214.636 497.396 215.339 505.238 216.673 513.315C217.339 517.349 218.158 521.423 218.983 525.49C219.808 529.551 220.639 533.609 221.32 537.582C223.986 553.134 224.471 567.945 212.778 577.541L212.212 577.994C205.58 583.169 198.058 584.2 190.152 583.106C182.285 582.018 173.947 578.813 165.595 575.434C157.196 572.035 148.777 568.457 140.593 566.491C132.678 564.59 125.104 564.23 118.109 566.944L117.434 567.217C108.444 570.983 101.37 577.591 95.1904 585.586C89.0016 593.593 83.766 602.913 78.3975 612.075C67.9037 629.985 56.8647 647.419 37.2744 651.504L36.3359 651.687C17.9125 655.081 -0.191814 649.017 -16.5176 638.624C-32.3357 628.554 -46.5743 614.367 -57.9668 600.554L-59.0596 599.218C-70.4656 585.189 -81.4896 568.117 -87.9453 550.345C-94.4001 532.574 -96.3209 514.006 -89.3633 497.08L-88.999 496.223C-81.1801 478.386 -62.4047 470.911 -43.2031 464.093C-33.3804 460.605 -23.4153 457.285 -14.4746 452.864C-5.5466 448.45 2.27261 442.976 7.81152 435.239L8.16504 434.733C11.7423 429.482 13.0257 423.525 13.0879 417.108C13.1522 410.464 11.9083 403.402 10.5889 396.197C9.2765 389.031 7.88887 381.721 7.74316 374.732C7.59714 367.726 8.69459 360.957 12.4121 354.877L13.1836 353.626C21.2588 340.647 32.5318 326.031 45.4531 315.609Z" stroke="white" stroke-opacity="0.72" stroke-width="2"/>
</g>
<g filter="url(#filter13_f_1056_3327)">
<path fill-rule="evenodd" clip-rule="evenodd" d="M339.371 303.091C373.538 298.375 407.38 329.086 423.285 359.331C438.148 387.595 406.292 423.172 418.103 452.808C428.817 479.692 474.182 481.101 482.815 508.706C491.67 537.019 488.727 579.793 462.059 593.358C431.349 608.979 397.646 574.359 363.469 569.412C346.962 567.022 330.94 569.178 314.503 571.999C280.206 577.887 241.212 617.388 214.852 594.926C190.463 574.142 239.498 534.647 233.899 503.312C227.972 470.134 173.876 450.28 183.219 417.878C191.979 387.498 243.634 399.447 269.286 380.59C297.998 359.484 303.926 307.984 339.371 303.091Z" fill="url(#paint13_linear_1056_3327)" fill-opacity="0.9"/>
<path d="M340.051 301.995C357.202 299.904 374.156 306.505 388.771 317.296C403.622 328.262 416.153 343.622 424.17 358.866L424.521 359.549C431.682 373.923 427.334 390.032 422.8 405.831C420.478 413.921 418.092 421.952 417.011 429.81C415.931 437.653 416.165 445.244 419.032 452.437L419.28 453.042C421.912 459.237 426.489 464.052 432.113 468.197C437.932 472.485 444.801 476.007 451.701 479.6C458.568 483.174 465.467 486.819 471.187 491.32C476.922 495.834 481.532 501.253 483.77 508.407L484.181 509.759C488.332 523.829 489.642 541.149 486.741 556.745C483.797 572.579 476.469 586.818 463.151 593.917L462.513 594.25C446.71 602.288 430.208 597.339 413.659 590.013C409.51 588.176 405.334 586.177 401.154 584.184C396.97 582.187 392.778 580.195 388.572 578.353C380.419 574.784 372.264 571.81 364.114 570.52L363.326 570.401C348.009 568.184 333.088 569.917 317.747 572.466L314.673 572.985C306.236 574.434 297.467 577.959 288.596 582.13C284.164 584.214 279.726 586.448 275.298 588.658C270.875 590.865 266.464 593.046 262.111 595.006C245.071 602.678 228.424 607.211 214.848 596.222L214.203 595.686C207.791 590.222 206.217 583.483 207.338 576.1C208.446 568.8 212.191 560.8 216.441 552.615C220.722 544.372 225.523 535.923 228.929 527.547C232.226 519.437 234.143 511.553 233.032 504.198L232.915 503.487C231.476 495.434 227.103 488.13 221.393 481.156C215.674 474.173 208.707 467.624 202.124 461.01C195.577 454.43 189.413 447.786 185.488 440.716C181.544 433.609 179.832 426.017 182.259 417.601L182.48 416.868C184.858 409.374 189.833 404.439 196.285 401.005C202.907 397.48 211.119 395.515 219.737 393.93C228.416 392.333 237.46 391.126 246.021 389.126C254.558 387.131 262.442 384.381 268.693 379.785L269.35 379.294C276.087 374.167 281.57 367.301 286.528 359.718C291.661 351.868 296.158 343.372 300.942 335.253C310.434 319.146 320.991 304.619 339.234 302.101L340.051 301.995Z" stroke="white" stroke-opacity="0.72" stroke-width="2"/>
</g>
</g>
<defs>
<filter id="filter0_f_1056_3327" x="317.067" y="419.121" width="390.901" height="332.893" filterUnits="userSpaceOnUse" color-interpolation-filters="sRGB">
<feFlood flood-opacity="0" result="BackgroundImageFix"/>
<feBlend mode="normal" in="SourceGraphic" in2="BackgroundImageFix" result="shape"/>
<feGaussianBlur stdDeviation="28" result="effect1_foregroundBlur_1056_3327"/>
</filter>
<filter id="filter1_f_1056_3327" x="150.807" y="-31.0004" width="723.429" height="717.081" filterUnits="userSpaceOnUse" color-interpolation-filters="sRGB">
<feFlood flood-opacity="0" result="BackgroundImageFix"/>
<feBlend mode="normal" in="SourceGraphic" in2="BackgroundImageFix" result="shape"/>
<feGaussianBlur stdDeviation="96" result="effect1_foregroundBlur_1056_3327"/>
</filter>
<filter id="filter2_f_1056_3327" x="-11.8633" y="114.841" width="775.13" height="768.188" filterUnits="userSpaceOnUse" color-interpolation-filters="sRGB">
<feFlood flood-opacity="0" result="BackgroundImageFix"/>
<feBlend mode="normal" in="SourceGraphic" in2="BackgroundImageFix" result="shape"/>
<feGaussianBlur stdDeviation="96" result="effect1_foregroundBlur_1056_3327"/>
</filter>
<filter id="filter3_f_1056_3327" x="-95.0908" y="30.0786" width="785.448" height="778.16" filterUnits="userSpaceOnUse" color-interpolation-filters="sRGB">
<feFlood flood-opacity="0" result="BackgroundImageFix"/>
<feBlend mode="normal" in="SourceGraphic" in2="BackgroundImageFix" result="shape"/>
<feGaussianBlur stdDeviation="96" result="effect1_foregroundBlur_1056_3327"/>
</filter>
<filter id="filter4_f_1056_3327" x="65.0576" y="-1.08417" width="809.177" height="801.844" filterUnits="userSpaceOnUse" color-interpolation-filters="sRGB">
<feFlood flood-opacity="0" result="BackgroundImageFix"/>
<feBlend mode="normal" in="SourceGraphic" in2="BackgroundImageFix" result="shape"/>
<feGaussianBlur stdDeviation="96" result="effect1_foregroundBlur_1056_3327"/>
</filter>
<filter id="filter5_f_1056_3327" x="-111.482" y="109.855" width="780.174" height="773.174" filterUnits="userSpaceOnUse" color-interpolation-filters="sRGB">
<feFlood flood-opacity="0" result="BackgroundImageFix"/>
<feBlend mode="normal" in="SourceGraphic" in2="BackgroundImageFix" result="shape"/>
<feGaussianBlur stdDeviation="96" result="effect1_foregroundBlur_1056_3327"/>
</filter>
<filter id="filter6_f_1056_3327" x="-90.5186" y="251.118" width="739.509" height="751.166" filterUnits="userSpaceOnUse" color-interpolation-filters="sRGB">
<feFlood flood-opacity="0" result="BackgroundImageFix"/>
<feBlend mode="normal" in="SourceGraphic" in2="BackgroundImageFix" result="shape"/>
<feGaussianBlur stdDeviation="112" result="effect1_foregroundBlur_1056_3327"/>
</filter>
<filter id="filter7_f_1056_3327" x="-228.756" y="47.5298" width="844.485" height="835.5" filterUnits="userSpaceOnUse" color-interpolation-filters="sRGB">
<feFlood flood-opacity="0" result="BackgroundImageFix"/>
<feBlend mode="normal" in="SourceGraphic" in2="BackgroundImageFix" result="shape"/>
<feGaussianBlur stdDeviation="96" result="effect1_foregroundBlur_1056_3327"/>
</filter>
<filter id="filter8_f_1056_3327" x="-180.105" y="265.835" width="580.729" height="670.626" filterUnits="userSpaceOnUse" color-interpolation-filters="sRGB">
<feFlood flood-opacity="0" result="BackgroundImageFix"/>
<feBlend mode="normal" in="SourceGraphic" in2="BackgroundImageFix" result="shape"/>
<feGaussianBlur stdDeviation="66" result="effect1_foregroundBlur_1056_3327"/>
</filter>
<filter id="filter9_f_1056_3327" x="-130.926" y="197.279" width="531.553" height="577.135" filterUnits="userSpaceOnUse" color-interpolation-filters="sRGB">
<feFlood flood-opacity="0" result="BackgroundImageFix"/>
<feBlend mode="normal" in="SourceGraphic" in2="BackgroundImageFix" result="shape"/>
<feGaussianBlur stdDeviation="66" result="effect1_foregroundBlur_1056_3327"/>
</filter>
<filter id="filter10_f_1056_3327" x="-486.001" y="174.674" width="730.847" height="724.56" filterUnits="userSpaceOnUse" color-interpolation-filters="sRGB">
<feFlood flood-opacity="0" result="BackgroundImageFix"/>
<feBlend mode="normal" in="SourceGraphic" in2="BackgroundImageFix" result="shape"/>
<feGaussianBlur stdDeviation="96" result="effect1_foregroundBlur_1056_3327"/>
</filter>
<filter id="filter11_f_1056_3327" x="-353.595" y="137.279" width="713.341" height="708.356" filterUnits="userSpaceOnUse" color-interpolation-filters="sRGB">
<feFlood flood-opacity="0" result="BackgroundImageFix"/>
<feBlend mode="normal" in="SourceGraphic" in2="BackgroundImageFix" result="shape"/>
<feGaussianBlur stdDeviation="96" result="effect1_foregroundBlur_1056_3327"/>
</filter>
<filter id="filter12_f_1056_3327" x="-318.761" y="76.6067" width="787.427" height="801.026" filterUnits="userSpaceOnUse" color-interpolation-filters="sRGB">
<feFlood flood-opacity="0" result="BackgroundImageFix"/>
<feBlend mode="normal" in="SourceGraphic" in2="BackgroundImageFix" result="shape"/>
<feGaussianBlur stdDeviation="112" result="effect1_foregroundBlur_1056_3327"/>
</filter>
<filter id="filter13_f_1056_3327" x="-11.8633" y="108.609" width="693.164" height="687.165" filterUnits="userSpaceOnUse" color-interpolation-filters="sRGB">
<feFlood flood-opacity="0" result="BackgroundImageFix"/>
<feBlend mode="normal" in="SourceGraphic" in2="BackgroundImageFix" result="shape"/>
<feGaussianBlur stdDeviation="96" result="effect1_foregroundBlur_1056_3327"/>
</filter>
<linearGradient id="paint0_linear_1056_3327" x1="375.07" y1="477.121" x2="586.011" y2="744.476" gradientUnits="userSpaceOnUse">
<stop stop-color="#0C0066"/>
<stop offset="1" stop-color="#034C80"/>
</linearGradient>
<linearGradient id="paint1_linear_1056_3327" x1="344.808" y1="163" x2="673.827" y2="498.366" gradientUnits="userSpaceOnUse">
<stop stop-color="#245A96"/>
<stop offset="1" stop-color="#110858"/>
</linearGradient>
<linearGradient id="paint2_linear_1056_3327" x1="182.138" y1="308.842" x2="562.261" y2="695.907" gradientUnits="userSpaceOnUse">
<stop stop-color="#490778"/>
<stop offset="1" stop-color="#490778"/>
</linearGradient>
<linearGradient id="paint3_linear_1056_3327" x1="98.9102" y1="224.079" x2="489.001" y2="621.458" gradientUnits="userSpaceOnUse">
<stop stop-color="#070F56"/>
<stop offset="1" stop-color="#26044B"/>
</linearGradient>
<linearGradient id="paint4_linear_1056_3327" x1="259.059" y1="192.916" x2="672.837" y2="614.027" gradientUnits="userSpaceOnUse">
<stop stop-color="#245A96"/>
<stop offset="1" stop-color="#110858"/>
</linearGradient>
<linearGradient id="paint5_linear_1056_3327" x1="82.5186" y1="303.856" x2="467.628" y2="695.965" gradientUnits="userSpaceOnUse">
<stop stop-color="#490778"/>
<stop offset="1" stop-color="#490778"/>
</linearGradient>
<linearGradient id="paint6_linear_1056_3327" x1="135.481" y1="477.121" x2="434.408" y2="764.404" gradientUnits="userSpaceOnUse">
<stop stop-color="#270157"/>
<stop offset="1" stop-color="#070982"/>
</linearGradient>
<linearGradient id="paint7_linear_1056_3327" x1="-34.7549" y1="241.53" x2="412.654" y2="697.924" gradientUnits="userSpaceOnUse">
<stop stop-color="#490778"/>
<stop offset="1" stop-color="#490778"/>
</linearGradient>
<linearGradient id="paint8_linear_1056_3327" x1="-46.1055" y1="399.837" x2="344" y2="702.843" gradientUnits="userSpaceOnUse">
<stop stop-color="#003B7E"/>
<stop offset="1" stop-color="#570387"/>
</linearGradient>
<linearGradient id="paint9_linear_1056_3327" x1="3.0752" y1="331.279" x2="308.317" y2="591.511" gradientUnits="userSpaceOnUse">
<stop stop-color="#2A22A0"/>
<stop offset="1" stop-color="#0B3271"/>
</linearGradient>
<linearGradient id="paint10_linear_1056_3327" x1="-292" y1="368.674" x2="44.5005" y2="711.462" gradientUnits="userSpaceOnUse">
<stop stop-color="#070F56"/>
<stop offset="1" stop-color="#26044B"/>
</linearGradient>
<linearGradient id="paint11_linear_1056_3327" x1="-159.594" y1="331.279" x2="160.722" y2="656.58" gradientUnits="userSpaceOnUse">
<stop stop-color="#245A96"/>
<stop offset="1" stop-color="#110858"/>
</linearGradient>
<linearGradient id="paint12_linear_1056_3327" x1="-92.7607" y1="302.609" x2="255.987" y2="637.772" gradientUnits="userSpaceOnUse">
<stop stop-color="#270157"/>
<stop offset="1" stop-color="#070982"/>
</linearGradient>
<linearGradient id="paint13_linear_1056_3327" x1="182.138" y1="302.609" x2="481.241" y2="607.713" gradientUnits="userSpaceOnUse">
<stop stop-color="#490778"/>
<stop offset="1" stop-color="#490778"/>
</linearGradient>
</defs>
</svg>
