<svg width="1728" height="1136" viewBox="0 0 1728 1136" fill="none" xmlns="http://www.w3.org/2000/svg">
<g clip-path="url(#clip0_921_3258)">
<g filter="url(#filter0_f_921_3258)">
<path fill-rule="evenodd" clip-rule="evenodd" d="M598.145 818.597C651.031 811.291 701.673 783.474 753.483 796.361C814.535 811.547 892.497 835.349 909.267 895.985C926.737 959.15 827.548 1005.83 829.535 1071.34C832.26 1161.17 978.433 1248.74 922.091 1318.77C866.86 1387.41 755.113 1267.75 667.17 1273.14C608.075 1276.76 560.903 1371.24 508.282 1344.11C451.129 1314.64 489.724 1216.47 453.816 1163.13C424.892 1120.16 358.715 1118.84 328.376 1076.85C285.635 1017.71 211.22 941.21 247.819 878.081C286.101 812.049 392.889 848.556 468.14 835.778C512.126 828.31 553.949 824.702 598.145 818.597Z" fill="url(#paint0_linear_921_3258)"/>
</g>
<g filter="url(#filter1_f_921_3258)">
<path fill-rule="evenodd" clip-rule="evenodd" d="M1410.08 652.403C1475.29 656.653 1551 562.068 1597.05 608.461C1648.5 660.302 1574.14 749.553 1578.89 822.472C1581.42 861.175 1604.26 893.277 1617.99 929.547C1647.13 1006.52 1734.73 1078.6 1704.89 1155.3C1678.84 1222.25 1572.22 1197.58 1504.46 1221.33C1431.96 1246.74 1367.96 1315.18 1292.69 1299.76C1217.23 1284.31 1163.92 1212.45 1128.05 1144.22C1096.07 1083.4 1078.08 1006.56 1105.35 943.48C1131.4 883.247 1245.14 895.536 1262.91 832.361C1286.47 748.66 1151.76 650.313 1206.79 583.022C1253.07 526.424 1337.16 647.649 1410.08 652.403Z" fill="url(#paint1_linear_921_3258)"/>
</g>
<g filter="url(#filter2_f_921_3258)">
<path fill-rule="evenodd" clip-rule="evenodd" d="M1719.08 691.403C1784.29 695.653 1860 601.068 1906.05 647.461C1957.5 699.302 1883.14 788.553 1887.89 861.472C1890.42 900.175 1913.26 932.277 1926.99 968.547C1956.13 1045.52 2043.73 1117.6 2013.89 1194.3C1987.84 1261.25 1881.22 1236.58 1813.46 1260.33C1740.96 1285.74 1676.96 1354.18 1601.69 1338.76C1526.23 1323.31 1472.92 1251.45 1437.05 1183.22C1405.07 1122.4 1387.08 1045.56 1414.35 982.48C1440.4 922.247 1554.14 934.536 1571.91 871.361C1595.47 787.66 1460.76 689.313 1515.79 622.022C1562.07 565.424 1646.16 686.649 1719.08 691.403Z" fill="url(#paint2_linear_921_3258)"/>
</g>
<g filter="url(#filter3_f_921_3258)">
<path fill-rule="evenodd" clip-rule="evenodd" d="M1537.08 740.403C1602.29 744.653 1678 650.068 1724.05 696.461C1775.5 748.302 1701.14 837.553 1705.89 910.472C1708.42 949.175 1731.26 981.277 1744.99 1017.55C1774.13 1094.52 1861.73 1166.6 1831.89 1243.3C1805.84 1310.25 1699.22 1285.58 1631.46 1309.33C1558.96 1334.74 1494.96 1403.18 1419.69 1387.76C1344.23 1372.31 1290.92 1300.45 1255.05 1232.22C1223.07 1171.4 1205.08 1094.56 1232.35 1031.48C1258.4 971.247 1372.14 983.536 1389.91 920.361C1413.47 836.66 1278.76 738.313 1333.79 671.022C1380.07 614.424 1464.16 735.649 1537.08 740.403Z" fill="url(#paint3_linear_921_3258)"/>
</g>
<g filter="url(#filter4_f_921_3258)">
<path fill-rule="evenodd" clip-rule="evenodd" d="M11.0304 421.661C105.295 480.624 11.4063 665.759 102.844 728.769C187.192 786.894 316.937 639.829 404.719 692.955C474.231 735.025 476.244 861.344 427.824 925.451C373.859 996.899 250.538 958.007 171.288 1002.01C128.62 1025.7 120.221 1080.9 86.0742 1115.21C21.4394 1180.14 -40.8595 1343.3 -117.618 1292.27C-208.59 1231.79 -108.016 1084.15 -120.499 977.868C-124.315 945.38 -155.435 923.281 -164.651 891.829C-175.067 856.278 -172.626 820.574 -177.334 783.899C-188.316 698.355 -250.788 609.577 -210.764 532.608C-172.531 459.083 -60.3229 377.03 11.0304 421.661Z" fill="url(#paint4_linear_921_3258)"/>
</g>
<g filter="url(#filter5_f_921_3258)">
<path fill-rule="evenodd" clip-rule="evenodd" d="M237.005 542.156C317.843 530.851 397.911 604.457 435.542 676.945C470.707 744.684 395.337 829.95 423.281 900.979C448.63 965.412 555.961 968.788 576.387 1034.95C597.336 1102.81 590.375 1205.32 527.279 1237.83C454.62 1275.27 374.88 1192.3 294.02 1180.44C254.966 1174.72 217.058 1179.88 178.17 1186.64C97.0251 1200.76 4.76555 1295.43 -57.6002 1241.59C-115.303 1191.78 0.711459 1097.12 -12.5346 1022.02C-26.5593 942.505 -154.546 894.919 -132.441 817.263C-111.716 744.453 10.4964 773.09 71.1871 727.897C139.12 677.31 153.144 553.883 237.005 542.156Z" fill="url(#paint5_linear_921_3258)" fill-opacity="0.9"/>
</g>
<g filter="url(#filter6_f_921_3258)">
<path fill-rule="evenodd" clip-rule="evenodd" d="M790.005 633.156C870.843 621.851 950.911 695.457 988.542 767.945C1023.71 835.685 948.337 920.95 976.281 991.979C1001.63 1056.41 1108.96 1059.79 1129.39 1125.95C1150.34 1193.81 1143.37 1296.32 1080.28 1328.83C1007.62 1366.27 927.88 1283.3 847.02 1271.44C807.966 1265.72 770.059 1270.88 731.17 1277.64C650.025 1291.76 557.766 1386.43 495.4 1332.59C437.697 1282.78 553.711 1188.12 540.465 1113.02C526.441 1033.51 398.454 985.919 420.559 908.263C441.284 835.453 563.496 864.09 624.187 818.897C692.12 768.31 706.144 644.883 790.005 633.156Z" fill="url(#paint6_linear_921_3258)" fill-opacity="0.9"/>
</g>
<g filter="url(#filter7_f_921_3258)">
<path fill-rule="evenodd" clip-rule="evenodd" d="M1056.82 574.909C1119.57 594.604 1095.97 706.907 1150.14 744.183C1201.29 779.373 1293.38 714.966 1331.55 763.927C1365.93 808.037 1297.65 867.51 1289.42 922.831C1281.25 977.745 1327.22 1051.53 1283.62 1085.91C1236.53 1123.05 1163.76 1042.11 1108.53 1065.49C1040.33 1094.37 1031.55 1209.91 958.731 1223.46C891.753 1235.93 826.55 1179.01 783.845 1125.93C741.763 1073.62 702.709 998.853 728.004 936.666C755.383 869.356 865.746 880.603 907.75 821.308C937.399 779.454 889.793 714.68 916.344 670.795C946.298 621.284 1001.61 557.578 1056.82 574.909Z" fill="url(#paint7_linear_921_3258)"/>
</g>
<g filter="url(#filter8_f_921_3258)">
<path fill-rule="evenodd" clip-rule="evenodd" d="M1556 625.156C1636.84 613.851 1716.91 687.457 1754.54 759.945C1789.71 827.685 1714.34 912.95 1742.28 983.979C1767.63 1048.41 1874.96 1051.79 1895.39 1117.95C1916.34 1185.81 1909.37 1288.32 1846.28 1320.83C1773.62 1358.27 1693.88 1275.3 1613.02 1263.44C1573.97 1257.72 1536.06 1262.88 1497.17 1269.64C1416.03 1283.76 1323.77 1378.43 1261.4 1324.59C1203.7 1274.78 1319.71 1180.12 1306.47 1105.02C1292.44 1025.51 1164.45 977.919 1186.56 900.263C1207.28 827.453 1329.5 856.09 1390.19 810.897C1458.12 760.31 1472.14 636.883 1556 625.156Z" fill="url(#paint8_linear_921_3258)" fill-opacity="0.9"/>
</g>
</g>
<defs>
<filter id="filter0_f_921_3258" x="182" y="737" width="809" height="668" filterUnits="userSpaceOnUse" color-interpolation-filters="sRGB">
<feFlood flood-opacity="0" result="BackgroundImageFix"/>
<feBlend mode="normal" in="SourceGraphic" in2="BackgroundImageFix" result="shape"/>
<feGaussianBlur stdDeviation="28" result="effect1_foregroundBlur_921_3258"/>
</filter>
<filter id="filter1_f_921_3258" x="960" y="436" width="883" height="998" filterUnits="userSpaceOnUse" color-interpolation-filters="sRGB">
<feFlood flood-opacity="0" result="BackgroundImageFix"/>
<feBlend mode="normal" in="SourceGraphic" in2="BackgroundImageFix" result="shape"/>
<feGaussianBlur stdDeviation="66" result="effect1_foregroundBlur_921_3258"/>
</filter>
<filter id="filter2_f_921_3258" x="1269" y="475" width="883" height="998" filterUnits="userSpaceOnUse" color-interpolation-filters="sRGB">
<feFlood flood-opacity="0" result="BackgroundImageFix"/>
<feBlend mode="normal" in="SourceGraphic" in2="BackgroundImageFix" result="shape"/>
<feGaussianBlur stdDeviation="66" result="effect1_foregroundBlur_921_3258"/>
</filter>
<filter id="filter3_f_921_3258" x="1087" y="524" width="883" height="998" filterUnits="userSpaceOnUse" color-interpolation-filters="sRGB">
<feFlood flood-opacity="0" result="BackgroundImageFix"/>
<feBlend mode="normal" in="SourceGraphic" in2="BackgroundImageFix" result="shape"/>
<feGaussianBlur stdDeviation="66" result="effect1_foregroundBlur_921_3258"/>
</filter>
<filter id="filter4_f_921_3258" x="-356" y="277" width="949" height="1157" filterUnits="userSpaceOnUse" color-interpolation-filters="sRGB">
<feFlood flood-opacity="0" result="BackgroundImageFix"/>
<feBlend mode="normal" in="SourceGraphic" in2="BackgroundImageFix" result="shape"/>
<feGaussianBlur stdDeviation="66" result="effect1_foregroundBlur_921_3258"/>
</filter>
<filter id="filter5_f_921_3258" x="-327" y="349" width="1106" height="1101" filterUnits="userSpaceOnUse" color-interpolation-filters="sRGB">
<feFlood flood-opacity="0" result="BackgroundImageFix"/>
<feBlend mode="normal" in="SourceGraphic" in2="BackgroundImageFix" result="shape"/>
<feGaussianBlur stdDeviation="96" result="effect1_foregroundBlur_921_3258"/>
</filter>
<filter id="filter6_f_921_3258" x="226" y="440" width="1106" height="1101" filterUnits="userSpaceOnUse" color-interpolation-filters="sRGB">
<feFlood flood-opacity="0" result="BackgroundImageFix"/>
<feBlend mode="normal" in="SourceGraphic" in2="BackgroundImageFix" result="shape"/>
<feGaussianBlur stdDeviation="96" result="effect1_foregroundBlur_921_3258"/>
</filter>
<filter id="filter7_f_921_3258" x="496" y="348" width="1069.16" height="1101.2" filterUnits="userSpaceOnUse" color-interpolation-filters="sRGB">
<feFlood flood-opacity="0" result="BackgroundImageFix"/>
<feBlend mode="normal" in="SourceGraphic" in2="BackgroundImageFix" result="shape"/>
<feGaussianBlur stdDeviation="112" result="effect1_foregroundBlur_921_3258"/>
</filter>
<filter id="filter8_f_921_3258" x="992" y="432" width="1106" height="1101" filterUnits="userSpaceOnUse" color-interpolation-filters="sRGB">
<feFlood flood-opacity="0" result="BackgroundImageFix"/>
<feBlend mode="normal" in="SourceGraphic" in2="BackgroundImageFix" result="shape"/>
<feGaussianBlur stdDeviation="96" result="effect1_foregroundBlur_921_3258"/>
</filter>
<linearGradient id="paint0_linear_921_3258" x1="238" y1="793" x2="780.095" y2="1472.57" gradientUnits="userSpaceOnUse">
<stop stop-color="#0C0066"/>
<stop offset="1" stop-color="#034C80"/>
</linearGradient>
<linearGradient id="paint1_linear_921_3258" x1="1092" y1="568" x2="1815.47" y2="1178.12" gradientUnits="userSpaceOnUse">
<stop stop-color="#2A22A0"/>
<stop offset="1" stop-color="#0B3271"/>
</linearGradient>
<linearGradient id="paint2_linear_921_3258" x1="1401" y1="607" x2="2124.47" y2="1217.12" gradientUnits="userSpaceOnUse">
<stop stop-color="#490778"/>
<stop offset="1" stop-color="#044D72"/>
</linearGradient>
<linearGradient id="paint3_linear_921_3258" x1="1219" y1="656" x2="1942.47" y2="1266.12" gradientUnits="userSpaceOnUse">
<stop stop-color="#4A478C"/>
<stop offset="1" stop-color="#006AFF"/>
</linearGradient>
<linearGradient id="paint4_linear_921_3258" x1="-224" y1="409" x2="638.499" y2="1070.6" gradientUnits="userSpaceOnUse">
<stop stop-color="#003B7E"/>
<stop offset="1" stop-color="#570387"/>
</linearGradient>
<linearGradient id="paint5_linear_921_3258" x1="-135" y1="541" x2="581.983" y2="1262.98" gradientUnits="userSpaceOnUse">
<stop stop-color="#070F56"/>
<stop offset="1" stop-color="#26044B"/>
</linearGradient>
<linearGradient id="paint6_linear_921_3258" x1="418" y1="632" x2="1134.98" y2="1353.98" gradientUnits="userSpaceOnUse">
<stop stop-color="#245A96"/>
<stop offset="1" stop-color="#110858"/>
</linearGradient>
<linearGradient id="paint7_linear_921_3258" x1="720" y1="572" x2="1372.38" y2="1192.38" gradientUnits="userSpaceOnUse">
<stop stop-color="#270157"/>
<stop offset="1" stop-color="#070982"/>
</linearGradient>
<linearGradient id="paint8_linear_921_3258" x1="1184" y1="624" x2="1900.98" y2="1345.98" gradientUnits="userSpaceOnUse">
<stop stop-color="#490778"/>
<stop offset="1" stop-color="#490778"/>
</linearGradient>
<clipPath id="clip0_921_3258">
<rect width="1728" height="1136" fill="white"/>
</clipPath>
</defs>
</svg>
