<svg width="986" height="1182" viewBox="0 0 986 1182" fill="none" xmlns="http://www.w3.org/2000/svg">
<g filter="url(#filter0_f_1000_3296)">
<path fill-rule="evenodd" clip-rule="evenodd" d="M580.33 174.398C644.896 158.721 706.215 223.091 747.718 274.953C783.782 320.019 781.344 381.989 791.865 438.731C799.855 481.815 799.348 523.388 801.897 567.132C805.191 623.647 822.282 678.331 809.037 733.373C788.926 816.951 776.715 914.83 706.342 964.245C634.022 1015.03 527.543 1024.81 447.579 987.185C368.604 950.021 353.748 846.346 303.78 774.808C260.265 712.508 180.353 669.459 172.842 593.85C165.361 518.533 208.641 441.416 265.722 391.682C316.489 347.449 402.742 383.531 458.149 345.264C516.963 304.644 510.862 191.266 580.33 174.398Z" fill="url(#paint0_linear_1000_3296)" fill-opacity="0.9"/>
</g>
<defs>
<filter id="filter0_f_1000_3296" x="0" y="0" width="986" height="1182" filterUnits="userSpaceOnUse" color-interpolation-filters="sRGB">
<feFlood flood-opacity="0" result="BackgroundImageFix"/>
<feBlend mode="normal" in="SourceGraphic" in2="BackgroundImageFix" result="shape"/>
<feGaussianBlur stdDeviation="86" result="effect1_foregroundBlur_1000_3296"/>
</filter>
<linearGradient id="paint0_linear_1000_3296" x1="172" y1="172" x2="981.112" y2="791.869" gradientUnits="userSpaceOnUse">
<stop stop-color="#000559"/>
<stop offset="1" stop-color="#490778"/>
</linearGradient>
</defs>
</svg>
