<svg width="928" height="1157" viewBox="0 0 928 1157" fill="none" xmlns="http://www.w3.org/2000/svg">
<g filter="url(#filter0_f_1000_3297)">
<path fill-rule="evenodd" clip-rule="evenodd" d="M359.825 144.661C451.2 203.624 360.19 388.759 448.824 451.769C530.586 509.894 656.354 362.829 741.444 415.955C808.825 458.025 810.776 584.344 763.841 648.451C711.53 719.899 591.99 681.007 515.169 725.011C473.809 748.702 465.669 803.9 432.568 838.207C369.915 903.144 309.526 1066.3 235.12 1015.27C146.937 954.787 244.428 807.151 232.328 700.868C228.629 668.38 198.463 646.281 189.53 614.829C179.432 579.278 181.799 543.574 177.235 506.899C166.59 421.355 106.033 332.577 144.83 255.608C181.892 182.083 290.659 100.03 359.825 144.661Z" fill="url(#paint0_linear_1000_3297)"/>
</g>
<defs>
<filter id="filter0_f_1000_3297" x="0" y="0" width="928" height="1157" filterUnits="userSpaceOnUse" color-interpolation-filters="sRGB">
<feFlood flood-opacity="0" result="BackgroundImageFix"/>
<feBlend mode="normal" in="SourceGraphic" in2="BackgroundImageFix" result="shape"/>
<feGaussianBlur stdDeviation="66" result="effect1_foregroundBlur_1000_3297"/>
</filter>
<linearGradient id="paint0_linear_1000_3297" x1="132" y1="132" x2="987.184" y2="767.881" gradientUnits="userSpaceOnUse">
<stop stop-color="#003B7E"/>
<stop offset="1" stop-color="#570387"/>
</linearGradient>
</defs>
</svg>
